/* XPM */
static char *skull2[] = {
/* columns rows colors chars-per-pixel */
"50 58 161 2 ",
"   c None",
".  c gray1",
"X  c #BC0417",
"o  c #B3041D",
"O  c #BA0418",
"+  c #B4091D",
"@  c #BF1A17",
"#  c #B91B1F",
"$  c #BA121C",
"%  c #BF2419",
"&  c #BA2C1E",
"*  c #BE331C",
"=  c #AB0323",
"-  c #A0022B",
";  c #AF1124",
":  c #AD1825",
">  c #B51622",
",  c #B61821",
"<  c #C7050E",
"1  c #CE0509",
"2  c #CF0B0C",
"3  c #D0060A",
"4  c #D20C08",
"5  c #CD110D",
"6  c #D71507",
"7  c #D81707",
"8  c #D51E07",
"9  c #DA1A07",
"0  c #D41208",
"q  c #D51A08",
"w  c #C50410",
"e  c #C01015",
"r  c #D41C11",
"t  c #D11313",
"y  c #D72407",
"u  c #DD2206",
"i  c #D92B07",
"p  c #DE3A06",
"a  c #DA350F",
"s  c #DF3E0E",
"d  c #C72217",
"f  c #CE2E16",
"g  c #C5251A",
"h  c #C92A19",
"j  c #D62414",
"k  c #D72916",
"l  c #C0361B",
"z  c #C33B1A",
"x  c #D63612",
"c  c #D73812",
"v  c #DC3D10",
"b  c #D9331A",
"n  c #DC3F1E",
"m  c #E02606",
"M  c #E32C05",
"N  c #E63104",
"B  c #E93604",
"V  c #EC3B04",
"C  c #DF4006",
"Z  c #C94517",
"A  c #D35717",
"S  c #D75B10",
"D  c #E14405",
"F  c #EE4104",
"G  c #E34C04",
"H  c #EC4F03",
"J  c #E3430D",
"K  c #EA4A0A",
"L  c #F14502",
"P  c #F54B02",
"I  c #E75A04",
"U  c #E85D03",
"Y  c #F65102",
"T  c #F95401",
"R  c #FF5E00",
"E  c #E35115",
"W  c #EB6603",
"Q  c #ED6C02",
"!  c #E96209",
"~  c #E06B0C",
"^  c #F06602",
"/  c #FE6400",
"(  c #FD6D00",
")  c #EF7202",
"_  c #E3700A",
"`  c #F07602",
"'  c #FC7300",
"]  c #F17B02",
"[  c #FB7B00",
"{  c #FE760B",
"}  c #FF7F19",
"|  c #DF4A22",
" . c #C6533A",
".. c #E05024",
"X. c #CD613D",
"o. c #D36438",
"O. c #E4602A",
"+. c #E6682D",
"@. c #E86E2F",
"#. c #E6702C",
"$. c #E66D3A",
"%. c #EB7C34",
"&. c #D8574B",
"*. c #E36340",
"=. c #CF7267",
"-. c #ED8005",
";. c #F38101",
":. c #FA8500",
">. c #F58C01",
",. c #F98B00",
"<. c #FC8008",
"1. c #F79001",
"2. c #F89200",
"3. c #F9990A",
"4. c #FF871F",
"5. c #FA9F12",
"6. c #FAA115",
"7. c #FBA61C",
"8. c #F18821",
"9. c #FF8920",
"0. c #FE9123",
"q. c #F59A29",
"w. c #F08F3B",
"e. c #F1933D",
"r. c #FBA420",
"t. c #FBAB23",
"y. c #FBAD2A",
"u. c #FCB22D",
"i. c #FFA233",
"p. c #F1A73E",
"a. c #FCB633",
"s. c #FDB836",
"d. c #FFB23E",
"f. c #FDBA39",
"g. c #EC8645",
"h. c #E28E46",
"j. c #F39C41",
"k. c #E88159",
"l. c #F6A643",
"z. c #FFB742",
"x. c #F9B348",
"c. c #FBBD4D",
"v. c #FFA558",
"b. c #FEC042",
"n. c #FDC54C",
"m. c #FFC94E",
"M. c #FFCB51",
"N. c #FCC65F",
"B. c #FFD365",
"V. c #FFD46B",
"C. c #FFDA75",
"Z. c #FFDD7B",
"A. c #FFDE83",
"S. c #FBCF96",
"D. c #FFE38A",
"F. c #FFEA9C",
"G. c #FFE0A0",
"H. c #FFECA2",
"J. c #FFEFA9",
"K. c #FFF6BB",
"L. c #FFF8BE",
/* pixels */
"                                                                                                    ",
"                                                                                                    ",
"                                                                                                    ",
"                                                                                                    ",
"                                                                                                    ",
"                                                                                                    ",
"                                                                                                    ",
"                                                                                                    ",
"                                                                                                    ",
"                                                                                                    ",
"                                                                                                    ",
"                                                1 1                                                 ",
"                                                  1 1 1                                             ",
"                                                      1                                             ",
"                                                      1                                             ",
"                                                                                                    ",
"                                                                                                    ",
"                                                                                                    ",
"                                  1 1 1 1                                                           ",
"                              1 1 1 1 1 1 1 1 1       1 1 1 1 1 1 1                                 ",
"                        1   1 1 1 1 1 1 1 1 1 1 1 1 1 1 1 1 1 1 1 1                                 ",
"                    1 1 1 1 1 1 1 1 1 1 1 1 1 1 1 1 1 1 1 1 1 1 1 1                                 ",
"                  1 1 1 1 1 1 1 1 1 1 1 1 1 1 1 1 1 1 2 1 1 1 1 1 1                                 ",
"                  1 1 1 1 1 1 1 1 1 1 ] ;.2.2.2.2.2.2.>.W 1 1 1 1 1 1   3 1                         ",
"                1 1 1 1 1 1 1 1 ` 3.b.2.f.b.b.m.M.m.2.2.2.>.1 1 1 1 1 1 1 1 1                       ",
"                1 1 1 1 1 1 1 ] 3.M.M.M.M.M.m.M.M.3.2.2.2.2.>.1 1 1 1 1 1 1 1                       ",
"                1 1 1 1 1 1 ) 6.M.M.M.M.M.m.M.M.a.2.2.2.2.2.2.W 1 1 1 1 1 1 1                       ",
"                1 1 1 1 1 i 6.M.M.M.M.M.M.M.M.M.t.2.2.2.2.2.2.2.4 1 1 1 1 1 1                       ",
"        1 1     1 1 1 1 1 Q a.M.M.M.M.M.M.M.M.m.1.2.2.2.2.2.2.2.0 1 1 1 1 1 1                       ",
"          1     1 1 1 1 y 2.M.M.M.M.M.M.M.M.m.6.2.2.2.2.2.2.2.1.1.1 1 1 1 1 1                       ",
"          1     1 1 1 1 G 2.M.M.m.M.M.M.M.M.M.2.,.' 2.2.2.2.2.2.2.1 1 1 1 1             1           ",
"          1 1 1 1 1 1 1 2.2.a.m.M.M.M.M.M.M.M.2.( 2.2.2.2.2.2.2.2.4 1 1 1 1           1 1           ",
"            . 1 1 1 1 1 2.2.2.2.M.M.M.f.3.a.5.2./ 1.2.2.2.1.2.2.2.6 1 1 1         1 1 1             ",
"              1 1 1 1 1 2.2.2.6.M.M.2.2.2.2.1.1.' 2.2.2.2.:.,.2.,.6 1 1 1         1                 ",
"                  1 1 1 2.2.2.5.f.2.2.2.2.-.-.2.[ ,.2.,.R R R R / 6 1 1 1                           ",
"                    1 1 2.2.2.2.2.2.>.>.- - - S 2./ 2.:.R R R R 4 1 1 1                             ",
"                    1 1 G 2.2.2.2.- - - - - - S 2.[ ' :./ R R R 1 1 1 1                             ",
"                    1 1 1 e z 2.2.- - - - - - S m.[ / / ,.,.R 3 1 1 1 1                             ",
"                    1 1 1 X * 2.2.>.< - - < 1 U M.r.2.2.2.;.1 1 1 1 1 1                             ",
"                    1 1 1 O = D 2.2.) P P P W 2.M.u.2.~ y 1 1 1 1 1 1 1                             ",
"                  1 1 1 1 1 w i & 2.f.:.:.2.2.t.a.2.~ = P 1 1 1 1 1 1 1                             ",
"                  1 1 1 1 1 1 Q - * t.M.a.a.a.7.2.l = Y R 1 1 1 1 1 1 1                             ",
"                  1 1 1 1 1 1 1 Z O c r.M.u.3.2.Q = 1 ( :.Y 1 1 1 1 1 1                             ",
"                    1 1 1 1 1 1 1.V [ n.2.3.2.2.D 1 1 H :.T 1 1 1 1 1                               ",
"                      1 1 1 1 1 0 2.2.m.2.2.2.y.E 1 1 I :.Y 1 1 1 1                                 ",
"                      1 1 1 1 1 1 2.2.a.2.7.f.8.n 8 I >.' V 1 1 1 1                                 ",
"                    1 1 1 1 1 1 1 Q 2.m.3.e.1 i W 2.' R V 1 1 1                                     ",
"                      1 1 1 1 1 1 1 R 1 1 8 ) 2.,.R M 1 1 1 1 1                                     ",
"                        1 1 1 1 1 1 T >.2.2.,.( P 1 1 1 1 1 1                                       ",
"                          1 1 1 1 1 1 T T T R 1 1 1 1 1 1 1 1                                       ",
"                            1 1 1 1 1 1 1 1 1 1 1 1 1 1 1 1                                         ",
"                                1 1 1 1 1 1 1 1 1 1 1 1                                             ",
"                                    1 1 1 1 1 1 1 1                                                 ",
"                                        1 1 1 1 1 3                                                 ",
"                                              1 1 1                                                 ",
"                                                  1                                                 ",
"                                                                                                    ",
"                                                                                                    "
};