/* XPM */
static char *_b8102b31da1409486dcd5988abba8f019RGi7f2c3gHFQti[] = {
/* columns rows colors chars-per-pixel */
"62 249 19 1 ",
"  c None",
". c #280916",
"X c #20121C",
"o c #29072F",
"O c #3B0E20",
"+ c #3B0F21",
"@ c #3E2530",
"# c #4A2B38",
"$ c #65253E",
"% c #312841",
"& c #3F3A57",
"* c #4D0C4F",
"= c #5A4772",
"- c #F22525",
"; c #BA5D22",
": c #CD7A26",
"> c #875368",
", c #D1A22A",
"< c #A16891",
/* pixels */
"                                                              ",
"                                                              ",
"                                                              ",
"                                                              ",
"                                                              ",
"                                                              ",
"                                                              ",
"                                                              ",
"                                                              ",
"                                                              ",
"                                                              ",
"                                                              ",
"                                                              ",
"                                                              ",
"                                                              ",
"                                                              ",
"                                                              ",
"                                                              ",
"                                                              ",
"                                                              ",
"                                                              ",
"                                                              ",
"                                                              ",
"                                                              ",
"                                                              ",
"                                                              ",
"                                                              ",
"                                                              ",
"                                                              ",
"                                                              ",
"                                                              ",
"                                                              ",
"                                                              ",
"                                                              ",
"                                                              ",
"                                                              ",
"                                                              ",
"                                                              ",
"                                                              ",
"                                                              ",
"                                                              ",
"                                                              ",
"                                                              ",
"                                                              ",
"                                                              ",
"                                                              ",
"                                                              ",
"                                                              ",
"                                                              ",
"                                                              ",
"                                                              ",
"                                                              ",
"                                                              ",
"                                                              ",
"                                                              ",
"                                                              ",
"                                                              ",
"                                                              ",
"                                                              ",
"                                                              ",
"                                                              ",
"                                                              ",
"                                                              ",
"                                                              ",
"                                                              ",
"                                                              ",
"                                                              ",
"                                                              ",
"                                                              ",
"                                                              ",
"                                                              ",
"                                                              ",
"                                   **     *                   ",
"                                   *o    **                   ",
"                                  *oo    *   *                ",
"                                   o        *o                ",
"                                            *                 ",
"                                           o                  ",
"                                             **o              ",
"                                            ****     *        ",
"                                      *    o**o     o*        ",
"                              *       *    **o      o**       ",
"                             *        *   **oo      o*        ",
"                             *       *o  o*oo       o**       ",
"                                     ** ooooo       oo*       ",
"                                     *oooooo o      oo*       ",
"                                     *ooooooooo*     oo       ",
"                                    ooooooooooo**    oo       ",
"                                    oooooooooooo***  o        ",
"                                   *oo*oooooooo*o**     *     ",
"                                  *****ooooooooo****   oo*    ",
"                                 *****oo#oo+ooooo***    oo**  ",
"                              *  ****ooo@++.oooooo**o    oo*  ",
"                            *** *****ooo++..*ooooooo      oo  ",
"                           ***  ****oooo++.#**ooooo        o  ",
"                          ***  *****ooo++.###*oooooo       o  ",
"                          **   ****oooo++.###**ooooo**        ",
"                          *oo o****ooo++..*@@#*ooooo***       ",
"                          *oo o****ooo++..**@@#*ooo*****      ",
"                           oo  **o*ooo++.***@@#**oo*****o     ",
"                           oooooooo*o++++***@@@***oo****o     ",
"                           oooooooooo++++***@@@***o*****o     ",
"                            oooo oooo.+++***@@@***oo*ooo      ",
"                             ooo oooo..+++*@@@***ooooooo      ",
"                                **ooo*..O++@@@***ooooo        ",
"                               ***oo**...+++@****oooo         ",
"                              ****oo***...+++***ooooo         ",
"                              ****oo***#...++***oooo          ",
"                              ****ooo*##....++**oooo          ",
"                              o**oooo##@-....+ooooo           ",
"                              oo*oooo#@--....Ooooo            ",
"                               oooooo@@--....Ooooo            ",
"                                ooooo@@--O....oooo            ",
"                                ooooo@@@-O....ooo             ",
"                 ====            oooo@@OO....oooo             ",
"                ======           ooooo@O.....ooo              ",
"               ===&&&&=           ooooO.....ooo               ",
"               ==&&&&&&             oo......oo                ",
"               =&&&;;X&               ....oo                  ",
"              ==&&;;;X&                ..                     ",
"              ==&&:;;XX&             .OOOO.                   ",
"              =&&&:::XX=               ..                     ",
"         ,,,:==&&XX::XX&              .OOO                    ",
"          ::;::&:&>XXXX& ,,,           ..                     ",
"            =;:::><&XXX,,::            O.                     ",
"           =&&::::&&&&&:,:             O.                     ",
"          =&&%;;::::&&&&:,             O.                     ",
"          =&%%%%;::,::,,::             ..                     ",
"         =&&%%%%:%::::;;:;%           $O                      ",
"         &&&% %%%:%;;;;;:%%&&         $O                      ",
"        =&&%   %%:%%%%%;:%%%&&&      <<<                      ",
"       =&&&%    %%;:%&&%: %%%&&&&&&&&>>>                      ",
"       &&&%%    %%%;:&&&%  %%%%&&&&&&><<                      ",
"      =&&%%      %%<;&&&&   %%%%%&&&&%>>                      ",
"      &&&%%      %%&&,&&&     %%%%%%&&%.                      ",
"      &&%%        %&&:%&&      %%%%%%%O.                      ",
"     &&&%%        &&&:%&&,         %%O.                       ",
"     &&&%%       %%&&;,%%:           OO                       ",
"     &&&%%      ,,%%&&:,%:           OO                       ",
"     &&%%%      ;:,,%&::%:           $O                       ",
"     &&%%%      %;:::%::::           $.                       ",
"     &<<%%     &%%;::::::%           $.                       ",
"     <<<<%     &&%%;:::::%%          O.                       ",
"     <<>><    &&&%%%;:::::%          ..                       ",
"     <>>>>>   &&&%%%:;:::;%          ..                       ",
"     >>>> <  &&&&%%:;;;::;%         $.                        ",
"     >>>    &&&&%%%:%%;;;%%         $O                        ",
"      >><  :%&&%%%:%&&;;;%%         $O                        ",
"          :::%%%%%:&&&;;;%%         $O                        ",
"           :::::%::&&&;%%%%         $O                        ",
"            %::::::&&&:&&&%         OO                        ",
"           &&%%%:::&&&:&&&%         O.                        ",
"           &&&%%%::%&&:&&%%         ..                        ",
"          &&&%%%::%%&&:&&%%         ..                        ",
"          &&&&%::%%%&&:&&%%        $.                         ",
"         &&&&%%;::%%%&;&&%%        $.                         ",
"        &&&&&%%%;;:%%%;&&%%        O.                         ",
"       &&&&&&&&%%%;:%%;&%%%        O.                         ",
"       &&&&&&&&%%%%;::%%%%%        O.                         ",
"      &&&&&&&&&%%%%%;:%%%%%        O.                         ",
"      &&&&&&&&&%%%%%%;:%%%%        O.                         ",
"     &&&&&&&&&%%%%%%%%;::%%        O.                         ",
"     &&&&&&&&&&&&&&%%%%;:::       O.                          ",
"     &&&&&%&%%&&&&&&&%%%;;;       ..                          ",
"    &&&&&%%%%%&&&&&&&&&%%%%       ..                          ",
"    %%&%%%%%&&&&&%%%%%%%%%%       O.                          ",
"   %%%%%%%%%%%%%%%%%%%%%%%%       ..                          ",
"                                                              ",
"                                                              ",
"                                                              ",
"                                                              ",
"                                                              ",
"                                                              ",
"                                                              ",
"                                                              ",
"                                                              ",
"                                                              ",
"                                                              ",
"                                                              ",
"                                                              ",
"                                                              ",
"                                                              ",
"                                                              ",
"                                                              ",
"                                                              ",
"                                                              ",
"                                                              ",
"                                                              ",
"                                                              ",
"                                                              ",
"                                                              ",
"                                                              ",
"                                                              ",
"                                                              ",
"                                                              ",
"                                                              ",
"                                                              ",
"                                                              ",
"                                                              ",
"                                                              ",
"                                                              ",
"                                                              ",
"                                                              ",
"                                                              ",
"                                                              ",
"                                                              ",
"                                                              ",
"                                                              ",
"                                                              ",
"                                                              ",
"                                                              ",
"                                                              ",
"                                                              ",
"                                                              ",
"                                                              ",
"                                                              ",
"                                                              ",
"                                                              ",
"                                                              ",
"                                                              ",
"                                                              ",
"                                                              ",
"                                                              ",
"                                                              ",
"                                                              ",
"                                                              ",
"                                                              ",
"                                                              ",
"                                                              ",
"                                                              ",
"                                                              ",
"                                                              ",
"                                                              ",
"                                                              ",
"                                                              ",
"                                                              ",
"                                                              ",
"                                                              ",
"                                                              ",
"                                                              ",
"                                                              ",
"                                                              ",
"                                                              ",
"                                                              ",
"                                                              ",
"                                                              ",
"                                                              ",
"                                                              ",
"                                                              "
};
