/* XPM */
static char *NPC[] = {
/* columns rows colors chars-per-pixel */
"64 36 21 1 ",
"  c None",
". c #49276D",
"X c #417E57",
"o c #5C4378",
"O c #E5722B",
"+ c #B22F75",
"@ c #904B7A",
"# c #C26A56",
"$ c #CC7853",
"% c #60BD6C",
"& c #FFBF5A",
"* c #E6A66A",
"= c #684D87",
"- c #7C6296",
"; c #9873A4",
": c #EA5990",
"> c #6290B0",
", c #D78B83",
"< c #F8C993",
"1 c #B5A0C9",
"2 c #FCEBFF",
/* pixels */
"                                                                ",
"                                                                ",
"                                                                ",
"                         ......                                 ",
"                        .<<<<<<.                                ",
"                       .<<<<<<<<.                               ",
"                      .$<<<<<<<<$.                              ",
"                     .1<<<<<<<<<<1.                             ",
"                     .1<<<<<<<<<<1.                             ",
"                     .1$...$$...$1.                             ",
"                    .<1<2==$$==2<1<.                            ",
"                   .-<-<<<<<<<<<<-<-.                           ",
"                   .-$-1<<$<<$<<1-$-.                           ",
"                   .--.-111--111-.--.                           ",
"                    .-..--<<<<--..-.   12221                    ",
"                     .%X.--11--.X%.   1222221                   ",
"                    .%%%2..11..2%%2. .2222222                   ",
"                   .22X%21X..X12%%21..2222222                   ",
"                   .22.%22%%%%22%%1.<.2122122                   ",
"                  .$12.%22211222%X$<<12&22&21                   ",
"                  .<<1.%22222222%.$<<12&O2&1.                   ",
"                 .<<<<.X22222222X..$<.2OOOO1.                   ",
"                 .<<<$.X12222221X. ...1OOOO1.                   ",
"                 .<<<.:..111111..:.   .1111.                    ",
"                  .<$.:+22222222+:.    ....                     ",
"                   ..:+.22222222.+:.                            ",
"                    .:.@22211222@.:.                            ",
"                    ..@@22111122@@..                            ",
"                     .,,,222222,,,.                             ",
"                    ..,,,@@..@@,,,..                            ",
"                   ....=@@....@@=....                           ",
"                   ..=;===....===;=..                           ",
"                    .;;;==....==;;;.                            ",
"                     ..............                             ",
"                                                                ",
"                                                                "
};
