/* XPM */
static char *wizard_left6[] = {
/* columns rows colors chars-per-pixel */
"64 104 19 1 ",
"  c None",
". c #280916",
"X c #20121C",
"o c #29072F",
"O c #3B0E20",
"+ c #3B0F21",
"@ c #3E2530",
"# c #4A2B38",
"$ c #65253E",
"% c #312841",
"& c #3F3A57",
"* c #4D0C4F",
"= c #5A4772",
"- c #F22525",
"; c #BA5D22",
": c #CD7A26",
"> c #875368",
", c #D1A22A",
"< c #A16891",
/* pixels */
"                   o*o                                          ",
"                  o***                                          ",
"                  oo**o     oo                                  ",
"                   oo**                                         ",
"                     o*                                         ",
"                     oo                                         ",
"                                                                ",
"            o*                                                  ",
"           o***                                                 ",
"           ***o                                                 ",
"          o**oo                                                 ",
"          **oo                                                  ",
"          **       o                                            ",
"          *o      oo                                            ",
"     **   o       oo                                            ",
"      **  o      ooo                                            ",
"      **  o      oo                                             ",
"       *  o      oo                                             ",
"       *         o                oo                            ",
"       *                           oo                           ",
"       *                            o                           ",
"       o               o     oo      o                          ",
"                       oo   o**                                 ",
"      o                oo   o***                                ",
"     o           o     ooo  oo***                               ",
"                oo  **oooo** o***                               ",
"               oo* o*oooooo*  o***                              ",
"            *  o**oo****oooo* oo**                              ",
"           **o o**o+**#oo**oooooo*                              ",
"          ***ooo***.++@oo***ooooo*                              ",
"         *****o****..++o*****ooo*o                              ",
"        *****o*****#.++o******oooo                              ",
"        ****o*****###.++o*******o                               ",
"         **o******###.++o********                               ",
"         oo******#@@o..++********                               ",
"        ooo*****#@@oo..++********                               ",
"        oo******#@@***.++o********                              ",
"        oo*****o@@@***++++*******o*                             ",
"       *oo****o*@@@***++++*******o*                             ",
"       oooo*ooo*@@@***+++.*******o*                             ",
"       ooooooo**o@@@*+++..*******o*                             ",
"       ooooo*****@@@+++..oo******oo*                            ",
"       ooooo*****o@+++...oo******oo*                            ",
"        oooo*****o+++...**o*****ooo*                            ",
"        ooo****ooo++...#o*oo***ooooo                            ",
"        *oo****oo++....##oooo*ooooo                             ",
"         oo*****o+....-@##ooo*ooooo                             ",
"         ooo****oO....--@#oo*oooooo                             ",
"          oo*****O....--@@oooooooo                              ",
"           o*****....+--@@*oooooo                               ",
"           oo****....O-@@@**oooo                                ",
"           oo*****....OO@@*oooo                                 ",
"            oo****.....O@*oooo            ====                  ",
"               o***.....+*ooo            ======                 ",
"                 **......ooo            =&&&&===                ",
"                  ***....oo             &&&&&&==                ",
"                      ..                &X;;&&&=                ",
"                    .+O++.              &X;;;&&==               ",
"                      ..               &XX;;:&&==               ",
"                     +OO.              =XX:::&&&=               ",
"                      ..               &XX::XX&&==:,,,          ",
"                      .O           ,,, &XXXX>&:&::;::           ",
"                      .O            ::,,XXX&<>:::;=             ",
"                      .+             :,:&&&&&::::&&             ",
"                      ..             ,:&&&&::::;;%%=            ",
"                       +$            ::,,::,::;%%%&&=           ",
"                       O$          &%;:;;::::%:%%%%&=           ",
"                       <<<       &&%%%:;;;;;%:%%% %&&=          ",
"                       >>>&&&&&&&&%%%%:;%%%%%:%%  %&&&          ",
"                       <<>&&&&&&%%%%% :%&&%:;%%    %&&=         ",
"                       >>%&&&&%%%%%   %&&&:;%%%    %&&&=        ",
"                       .%&&%%%%%%     &&&&;<%%     %%&&&        ",
"                       .O%%%%%%%      &&&,&&%%      %%&&=       ",
"                        .O%%          &&%:&&%       %%&&&       ",
"                        +O           ,&&%:&&&        %%&&       ",
"                        OO           :%%,;&&%%       %%&&&      ",
"                        O$           :%,:&&%%,,      %%&&&      ",
"                        .$           :%::&%,,:;      %%&&&      ",
"                        .$           ::::%:::;%      %%%&&      ",
"                        .+           %::::::;%%&     %%%&&      ",
"                        ..          %%:::::;%%&&     %%<<&      ",
"                        ..          %:::::;%%%&&&    %<<<<      ",
"                         .$         %;:::;:%%%&&&    <>><<      ",
"                         +$         %;::;;;:%%&&&&   >>>><      ",
"                         O$         %%;;;%%:%%%&&&&  >>>>>      ",
"                         O$         %%;;;&&%:%%%&&%:  >>>       ",
"                         +$         %%;;;&&&:%%%%%:::           ",
"                         ++         %%%%;&&&::%:::::            ",
"                         .+         %&&&:&&&::::::&&            ",
"                         ..         %&&&:&&&:::%%&&&            ",
"                         ..         %%&&:&&%::%%%%&&&           ",
"                          .$        %%&&:&&%%::%%&&&&           ",
"                          .$        %%&&:&&%%%::%%&&&&          ",
"                          .+        %%&&;&%%%::;%%&&&&&         ",
"                          .O        %%&&;%%%:;;%&&&&&&&&        ",
"                          .O        %%%&;%%:;%%%&&&&&&&&        ",
"                          .O        %%%%%::;%%%%&&&&&&&&&       ",
"                          .O        %%%%%:;%%%%%&&&&&&&&&       ",
"                          .+        %%%%:;%%%%%%%&&&&&&&&&      ",
"                           .+       %%::;%%%&&&&&&&&&&&&&&      ",
"                           ..       :::;%%&&&&&&&%%&%&&&&&      ",
"                           ..       ;;;%&&&&&&&&&%%%%%&&&&&     ",
"                           .+       %%%%%%%%%%&&&&&%%%%%&%%     ",
"                           ..       %%%%%%%%%%%%%%%%%%%%%%%%    "
};