/* XPM */
static char *wizard_left4[] = {
/* columns rows colors chars-per-pixel */
"64 104 19 1 ",
"  c None",
". c #280916",
"X c #20121C",
"o c #29072F",
"O c #3B0E20",
"+ c #3B0F21",
"@ c #3E2530",
"# c #4A2B38",
"$ c #65253E",
"% c #312841",
"& c #3F3A57",
"* c #4D0C4F",
"= c #5A4772",
"- c #F22525",
"; c #BA5D22",
": c #CD7A26",
"> c #875368",
", c #D1A22A",
"< c #A16891",
/* pixels */
"                                                                ",
"         o                                                      ",
"                                                                ",
"                                                                ",
"                                                                ",
"                                                                ",
"                                                                ",
"                                                                ",
"                                                                ",
"                                                                ",
"                                                                ",
"                  o****                                         ",
"                 oo****        o                                ",
"                 ooo*****     ooo                               ",
"                 ooooo***       oo                              ",
"                  ooooo**                                       ",
"           o          o*o*                                      ",
"                      oo**                                      ",
"                      ooo*                                      ",
"           ***        ooo*                                      ",
"           ****       ooo*oo                                    ",
"           ***o        ooo****                                  ",
"           oooooo    oooo*******                                ",
"           o  oooo*oooooo********                               ",
"           o ooo******oooo*******o                              ",
"           oooo*********ooo*****ooo                             ",
"           ooo*********o*ooooooooo                              ",
"          ooooo**********oooooooo                               ",
"           oooo****+**#**ooo*oo                                 ",
"          ooooo****.++@***oo*oo                                 ",
"         ooooooo***..++****o*oo                                 ",
"        oooooooo***#.++****o**oo                                ",
"     o* oooooo****###.++*******o                                ",
"    o** oooo******###.++********o                               ",
"    o**oooo******#@@*..++*******o                               ",
"    o**o oo*****#@@**..++********o                              ",
"    o**o oo*****#@@***.++********o                              ",
"    o*o  ooo****@@@***++++*******oo                             ",
"    o**  ooo****@@@***++++*******oo                             ",
"    oo*  oo*****@@@***+++.oo****ooo                             ",
"     o*   o******@@@*+++..**o*oooo                              ",
"     o**  o******@@@+++..*oo*oooo                               ",
"      o**ooo******@+++...****ooo                                ",
"       o*ooo******+++...****oo                                  ",
"        ooooo****o++...#****oo                                  ",
"         ooooo***++....##***ooo                                 ",
"          oooo***+....-@##***ooo                                ",
"           ooo***O....--@#****ooo                               ",
"           oooo**+....--@@*****oo                               ",
"            ooo**....O--@@*****oo                               ",
"            ooo**....O-@@@o***ooo                               ",
"            ooooo*....OO@@oo*ooo                                ",
"             oooo*.....+@o**oooo                                ",
"              ooooo.....O***ooo           ====                  ",
"              ooo**......**ooo           ======                 ",
"               ooo***....*ooo           =&&&&===                ",
"                ooo***..*ooo            &&&&&&==                ",
"                  oo.+O++.              &X;;&&&=                ",
"                      ..                &X;;;&&==               ",
"                     +OO.              &XX;;:&&==               ",
"                      ..               =XX:::&&&=               ",
"                      .O               &XX::XX&&==:,,,          ",
"                      .O           ,,, &XXXX>&:&::;::           ",
"                      .+            ::,,XXX&<>:::;=             ",
"                      ..             :,:&&&&&::::&&=            ",
"                       O$            ,:&&&&::::;;%&&=           ",
"                       +$           %::,,::,::;%%%%&=           ",
"                       <<<        &%%;:;;::::%:%%%%&&=          ",
"                       >>>&&&&&&&&%%%%:;;;;;%:%%% %&&&          ",
"                       <<>&&&&&&%%%%%%:;%%%%%:%%   %&&=         ",
"                       >>%&&&&%%%%%%  :%&&%:;%%    %&&&=        ",
"                       .%&&%%%%%%     %&&&:;%%%    %%&&&        ",
"                       .+%%%%%%%      &&&&;<%%      %%&&=       ",
"                        .O%%          &&&,&&%%      %%&&&       ",
"                        OO            &&%:&&%        %%&&       ",
"                        OO           ,&&%:&&&%       %%&&&      ",
"                        +$           :%%,;&&%,,      %%&&&      ",
"                        .$           :%,:&&%%:;      %%&&&      ",
"                        .$           :%::&%::;%      %%%&&      ",
"                        .+           ::::%::;%%&     %%%&&      ",
"                        ..          %%:::::;%%&&     %%<<&      ",
"                        ..          %:::::;%%%&&&    %<<<<      ",
"                         .$         %;:::;:%%%&&&    <>><<      ",
"                         +$         %;::;;;:%%&&&&   >>>><      ",
"                         O$         %%;;;%%:%%%&&&&  >>>>>      ",
"                         +$         %%;;;&&%:%%%&&%:  >>>       ",
"                         O$         %%;;;&&&:%%%%%:::           ",
"                         ++         %%%%;&&&::%:::::            ",
"                         .O         %&&&:&&&::::::&&            ",
"                         ..         %&&&:&&&:::%%&&&            ",
"                         ..         %%&&:&&%::%%%%&&&           ",
"                          .$        %%&&:&&%%::%%&&&&           ",
"                          .$        %%&&:&&%%%::%%&&&&          ",
"                          .O        %%&&;&%%%::;%%&&&&&         ",
"                          .O        %%&&;%%%:;;%&&&&&&&&        ",
"                          .O        %%%&;%%:;%%%&&&&&&&&        ",
"                          .+        %%%%%::;%%%%&&&&&&&&&       ",
"                          .+        %%%%%:;%%%%%&&&&&&&&&       ",
"                          .O        %%%%:;%%%%%%%&&&&&&&&&      ",
"                           .+       %%::;%%%&&&&&&&&&&&&&&      ",
"                           ..       :::;%%&&&&&&&%%&%&&&&&      ",
"                           ..       ;;;%&&&&&&&&&%%%%%&&&&&     ",
"                           .+       %%%%%%%%%%&&&&&%%%%%&%%     ",
"                           ..       %%%%%%%%%%%%%%%%%%%%%%%%    "
};