/* XPM */
static char *wizard_left1[] = {
/* columns rows colors chars-per-pixel */
"64 104 19 1 ",
"  c None",
". c #280916",
"X c #20121C",
"o c #29072F",
"O c #3B0E20",
"+ c #3B0F21",
"@ c #3E2530",
"# c #4A2B38",
"$ c #65253E",
"% c #312841",
"& c #3F3A57",
"* c #4D0C4F",
"= c #5A4772",
"- c #F22525",
"; c #BA5D22",
": c #CD7A26",
"> c #875368",
", c #D1A22A",
"< c #A16891",
/* pixels */
"                                                                ",
"                                                                ",
"                                                                ",
"                                                                ",
"                                                                ",
"                                                                ",
"                                                                ",
"                                                                ",
"                                                                ",
"                    *     **                                    ",
"                    **    o*                                    ",
"                 *   *    oo*                                   ",
"                 o*        o                                    ",
"                  *                                             ",
"                   o                                            ",
"               o**                                              ",
"         *     ****                                             ",
"         *o     o**o    *                                       ",
"        **o      o**    *       *                               ",
"         *o      oo**   *        *                              ",
"        **o       oo*o  o*       *                              ",
"        *oo       ooooo **                                      ",
"        *oo      o oooooo*                                      ",
"        oo     *ooooooooo*                                      ",
"        oo    **ooooooooooo                                     ",
"         o  ***oooooooooooo                                     ",
"      *     **o*oooooooo*oo*                                    ",
"     *oo   ****ooooooooo*****                                   ",
"   **oo    ***ooooo+oo#oo*****                                  ",
"   *oo    o**oooooo.++@ooo****  *                               ",
"   oo      ooooooo*..++ooo***** ***                             ",
"   o        ooooo**#.++oooo****  ***                            ",
"   o       oooooo*###.++ooo*****  ***                           ",
"         **ooooo**###.++oooo****   **                           ",
"        ***ooooo*#@@*..++ooo****o oo*                           ",
"       *****ooo*#@@**..++ooo****o oo*                           ",
"      o*****oo**#@@***.++ooo*o**  oo                            ",
"      o****oo***@@@***++++o*oooooooo                            ",
"      o*****o***@@@***++++oooooooooo                            ",
"       ooo*oo***@@@***+++.oooo oooo                             ",
"       ooooooo***@@@*+++..oooo ooo                              ",
"         ooooo***@@@+++..*ooo**                                 ",
"          oooo****@+++...**oo***                                ",
"          ooooo***+++...***oo****                               ",
"           oooo***++...#***oo****                               ",
"           oooo**++....##*ooo****                               ",
"            ooooo+....-@##oooo**o                               ",
"             ooooO....--@#oooo*oo                               ",
"             ooooO....--@@oooooo                                ",
"             oooo....O--@@ooooo                                 ",
"              ooo....O-@@@ooooo                                 ",
"              oooo....OO@@oooo            ====                  ",
"               ooo.....+@ooooo           ======                 ",
"                ooo.....+oooo           =&&&&===                ",
"                 oo......oo             &&&&&&==                ",
"                   oo....               &X;;&&&=                ",
"                      ..                &X;;;&&==               ",
"                    .+OO+.             &XX;;:&&==               ",
"                      ..               =XX:::&&&=               ",
"                     +OO.              &XX::XX&&==:,,,          ",
"                      ..           ,,, &XXXX>&:&::;::           ",
"                      .O            ::,,XXX&<>:::;=             ",
"                      .+             :,:&&&&&::::&&=            ",
"                      .+             ,:&&&&::::;;%&&=           ",
"                      ..             ::,,::,::;%%%%&=           ",
"                       O$           %;:;;::::%:%%%%&&=          ",
"                       +$         &&%%:;;;;;%:%%% %&&&          ",
"                       <<<      &&&%%%:;%%%%%:%%   %&&=         ",
"                       >>>&&&&&&&&%%% :%&&%:;%%    %&&&=        ",
"                       <<>&&&&&&%%%%  %&&&:;%%%    %%&&&        ",
"                       >>%&&&&%%%%%   &&&&;<%%      %%&&=       ",
"                       .%&&%%%%%%     &&&,&&%%      %%&&&       ",
"                       .+%%%%%%%      &&%:&&%        %%&&       ",
"                        .O%%         ,&&%:&&&        %%&&&      ",
"                        OO           :%%,;&&%%       %%&&&      ",
"                        O+           :%,:&&%%,,      %%&&&      ",
"                        O$           :%::&%,,:;      %%%&&      ",
"                        .$           ::::%:::;%      %%%&&      ",
"                        .$           %::::::;%%&     %%<<&      ",
"                        .O          %%:::::;%%&&     %<<<<      ",
"                        ..          %:::::;%%%&&&    <>><<      ",
"                        ..          %;:::;:%%%&&&   >>>>><      ",
"                         .$         %;::;;;:%%&&&&  < >>>>      ",
"                         +$         %%;;;%%:%%%&&&&    >>>      ",
"                         O$         %%;;;&&%:%%%&&%:  <>>       ",
"                         O$         %%;;;&&&:%%%%%:::           ",
"                         +$         %%%%;&&&::%:::::            ",
"                         O+         %&&&:&&&::::::%             ",
"                         .+         %&&&:&&&:::%%%&&            ",
"                         ..         %%&&:&&%::%%%&&&            ",
"                         ..         %%&&:&&%%::%%%&&&           ",
"                          .$        %%&&:&&%%%::%&&&&           ",
"                          .$        %%&&;&%%%::;%%&&&&          ",
"                          .O        %%&&;%%%:;;%%%&&&&&         ",
"                          .O        %%%&;%%:;%%%&&&&&&&&        ",
"                          .O        %%%%%::;%%%%&&&&&&&&        ",
"                          .+        %%%%%:;%%%%%&&&&&&&&&       ",
"                          .+        %%%%:;%%%%%%&&&&&&&&&       ",
"                          .O        %%::;%%%%%%%%&&&&&&&&&      ",
"                           .+       :::;%%%%&&&&&&&&&&&&&&      ",
"                           ..       ;;;%%%&&&&&&&%%&%&&&&&      ",
"                           ..       %%%%&&&&&&&&&%%%%%&&&&&     ",
"                           .+       %%%%%%%%%%&&&&&%%%%%&%%     ",
"                           ..       %%%%%%%%%%%%%%%%%%%%%%%%    "
};