/* XPM */
static char *wizard_left3[] = {
/* columns rows colors chars-per-pixel */
"64 104 19 1 ",
"  c None",
". c #280916",
"X c #20121C",
"o c #29072F",
"O c #3B0E20",
"+ c #3B0F21",
"@ c #3E2530",
"# c #4A2B38",
"$ c #65253E",
"% c #312841",
"& c #3F3A57",
"* c #4D0C4F",
"= c #5A4772",
"- c #F22525",
"; c #BA5D22",
": c #CD7A26",
"> c #875368",
", c #D1A22A",
"< c #A16891",
/* pixels */
"                                                                ",
"                         o                                      ",
"                                                                ",
"                                                                ",
"         o                                                      ",
"         o      oo                                              ",
"        oo     oooo                                             ",
"        o         o                                             ",
"        o              o                                        ",
"                       o                                        ",
"                        o                                       ",
"                        o                                       ",
"                                                                ",
"                                                                ",
"                                                                ",
"                                                                ",
"    ooo                        oo                               ",
"     o o         o*****o      oooo                              ",
"                o*******        ooo                             ",
"           o    o**o o****        o                             ",
"          o o   oo*    ***o                                     ",
"                oooooooo**o  o*                                 ",
"             o oooooooo**oo  ****                               ",
"            oooooo*oo*****oo o****                              ",
"           oooo*o*********ooo oo**                              ",
"           oooo************oo  oo*                              ",
"          oooo**************oo  **                              ",
"         ooooo**************ooo**o                              ",
"         ooooo*****+**#*****ooo*oo                              ",
"         ooooo*****.++@*****ooo**                               ",
"          oooo*****..++******o**oo                              ",
"          ooooo****#.++******o***o                              ",
"           oooo***###.++*********o                              ",
"           o*oo***###.++********oo                              ",
"           o**o**#@@*..++*****oooo                              ",
"           o**oo#@@**..++*o**oooo                               ",
"           o***o#@@***.++*o**ooo                                ",
"           o**oo@@@***++++o*ooo                                 ",
"          oo***o@@@***++++o*oo                                  ",
"          ooo***@@@***+++.o*oo                                  ",
"          oooo***@@@*+++..oooo                                  ",
"          oooo***@@@+++..*oooo                                  ",
"           oooo***@+++...**ooo                                  ",
"            ooo***+++...o***ooo                                 ",
"             ooo**++...#o***ooo                                 ",
"             ooo*++....##***ooo                                 ",
"            ooo**+....-@##***oo                                 ",
"            ooo**O....--@#***oo                                 ",
"            ooo**+....--@@***oo                                 ",
"            ooo**....+--@@***oo                                 ",
"            oooo*....O-@@@***oo                                 ",
"            ooooo*....OO@@**ooo                                 ",
"             oooo*.....O@**ooo                                  ",
"              oooo*.....O**ooo            ====                  ",
"               ooo*......*ooo            ======                 ",
"               oooo*o....oooo           =&&&&===                ",
"                oooooo..ooo             &&&&&&==                ",
"                  oo.+OOO.              &X;;&&&=                ",
"                      ..                &X;;;&&==               ",
"                     +OO.              &XX;;:&&==               ",
"                      ..               =XX:::&&&=               ",
"                      .O               &XX::XX&&==:,,,          ",
"                      .O           ,,, &XXXX>&:&::;::           ",
"                      .+            ::,,XXX&<>:::;=             ",
"                      ..             :,:&&&&&::::&&=            ",
"                       +$            ,:&&&&::::;;%&&=           ",
"                       O$           %::,,::,::;%%%%&=           ",
"                       <<<        &%%;:;;::::%:%%%%&&=          ",
"                       >>>&&&&&&&&%%%%:;;;;;%:%%% %&&&          ",
"                       <<>&&&&&&%%%%%%:;%%%%%:%%   %&&=         ",
"                       >>%&&&&%%%%%%  :%&&%:;%%    %&&&=        ",
"                       .%&&%%%%%%     %&&&:;%%%    %%&&&        ",
"                       .+%%%%%%%      &&&&;<%%      %%&&=       ",
"                        .O%%          &&&,&&%%      %%&&&       ",
"                        O+            &&%:&&%        %%&&       ",
"                        OO           ,&&%:&&&%       %%&&&      ",
"                        O$           :%%,;&&%,,      %%&&&      ",
"                        .$           :%,:&&%%:;      %%&&&      ",
"                        .$           :%::&%::;%      %%%&&      ",
"                        .+           ::::%::;%%&     %%%&&      ",
"                        ..          %%:::::;%%&&     %%<<&      ",
"                        ..          %:::::;%%%&&&    %<<<<      ",
"                         .$         %;:::;:%%%&&&    <>><<      ",
"                         +$         %;::;;;:%%&&&&   >>>><      ",
"                         +$         %%;;;%%:%%%&&&&  >>>>>      ",
"                         +$         %%;;;&&%:%%%&&%:  >>>       ",
"                         O$         %%;;;&&&:%%%%%:::           ",
"                         +O         %%%%;&&&::%:::::            ",
"                         .O         %&&&:&&&::::::&&            ",
"                         ..         %&&&:&&&:::%%&&&            ",
"                         ..         %%&&:&&%::%%%%&&&           ",
"                          .$        %%&&:&&%%::%%&&&&           ",
"                          .$        %%&&:&&%%%::%%&&&&          ",
"                          .O        %%&&;&%%%::;%%&&&&&         ",
"                          .+        %%&&;%%%:;;%&&&&&&&&        ",
"                          .O        %%%&;%%:;%%%&&&&&&&&        ",
"                          .+        %%%%%::;%%%%&&&&&&&&&       ",
"                          .O        %%%%%:;%%%%%&&&&&&&&&       ",
"                          .+        %%%%:;%%%%%%%&&&&&&&&&      ",
"                           .+       %%::;%%%&&&&&&&&&&&&&&      ",
"                           ..       :::;%%&&&&&&&%%&%&&&&&      ",
"                           ..       ;;;%&&&&&&&&&%%%%%&&&&&     ",
"                           .+       %%%%%%%%%%&&&&&%%%%%&%%     ",
"                           ..       %%%%%%%%%%%%%%%%%%%%%%%%    "
};