/* XPM */
static char *wizard_right8[] = {
/* columns rows colors chars-per-pixel */
"64 104 19 1 ",
"  c None",
". c #280916",
"X c #20121C",
"o c #29072F",
"O c #3B0E20",
"+ c #3B0F21",
"@ c #3E2530",
"# c #4A2B38",
"$ c #65253E",
"% c #312841",
"& c #3F3A57",
"* c #4D0C4F",
"= c #5A4772",
"- c #F22525",
"; c #BA5D22",
": c #CD7A26",
"> c #875368",
", c #D1A22A",
"< c #A16891",
/* pixels */
"                                                                ",
"                                                                ",
"                                                                ",
"                                                                ",
"                                                                ",
"                                                                ",
"                                                                ",
"                                         o                      ",
"                                        o                       ",
"                                       o                        ",
"                                       o                        ",
"                                                                ",
"                                             o                  ",
"                                 o            o                 ",
"                                 o            o                 ",
"                                               o                ",
"                                                                ",
"                                    **     *                    ",
"                                    *o    o*                    ",
"                                   *oo    oo  *                 ",
"                                  ooo *o  *o **                 ",
"                                  ooo **   o  *                 ",
"                                  oo  *ooo oo *                 ",
"                                  oo  *ooooo  * o               ",
"                                  oooooooo*ooo oo    **         ",
"                                   o oo*oo*ooooooo  o**         ",
"                               *    *oo*oo**oo  oo oo***        ",
"                              ***  *****o***oo  oo  oo***       ",
"                             **** *****oo#**+o  oo  oo****      ",
"                             ***  ****oo*@++.oo  o   o****      ",
"                             ***  ****oo*++..*ooo *  oo**       ",
"                             **  ****ooo*++.#*oooo**  oo*       ",
"                             ** *****ooo++.###oooo****ooo       ",
"                              * ****oooo++.###ooo*****ooo       ",
"                              *******oo++..*@@#*ooo****oo*      ",
"                             *o******oo++..**@@#oooo*** oo*     ",
"                            *ooo*****oo++.**o@@#o**oo*ooooo*    ",
"                            *ooo*****o++++***@@@***ooooooooo    ",
"                            *ooooo***o++++***@@@***o*ooooo      ",
"                            *oooooo**o.+++***@@@***ooooooo      ",
"                             oooooo**o..+++*@@@oo**o*o oo       ",
"                             ooooooooo*..+++@@@oo**o**o         ",
"                             oooooooo**...+++@*****o****        ",
"                              ooooooo***...+++****oo****o       ",
"                               oooooo***#...++****oo****o       ",
"                                 *oo***##....++***oo****o       ",
"                                ***o**##@-....+**ooooooo        ",
"                               ****o**#@--....O**ooooooo        ",
"                               ****o**@@--....+*oooooo          ",
"                               ****o**@@--O....*ooooo           ",
"                               o**ooo*@@@-O....*ooooo           ",
"                  ====         oo*ooo*@@+O....*oooooo           ",
"                 ======         oooooo*@O.....*ooooo            ",
"                ===&&&&=         ooooo*O.....*ooo               ",
"                ==&&&&&&          ooooo......oo                 ",
"                =&&&;;X&           ooo ....oo                   ",
"               ==&&;;;X&                ..                      ",
"               ==&&:;;XX&             .+OO+.                    ",
"               =&&&:::XX=               ..                      ",
"          ,,,:==&&XX::XX&              .+O+                     ",
"           ::;::&:&>XXXX& ,,,           ..                      ",
"             =;:::><&XXX,,::            O.                      ",
"            =&&::::&&&&&:,:             O.                      ",
"           =&&%;;::::&&&&:,             +.                      ",
"           =&%%%%;::,::,,::             ..                      ",
"          =&&%%%%:%::::;;:;%           $O                       ",
"          &&&% %%%:%;;;;;:%%&&         $+                       ",
"         =&&%   %%:%%%%%;:%%%&&&      <<<                       ",
"        =&&&%    %%;:%&&%: %%%&&&&&&&&>>>                       ",
"        &&&%%    %%%;:&&&%  %%%%&&&&&&><<                       ",
"       =&&%%      %%<;&&&&   %%%%%&&&&%>>                       ",
"       &&&%%      %%&&,&&&     %%%%%%&&%.                       ",
"       &&%%        %&&:%&&      %%%%%%%+.                       ",
"      &&&%%        &&&:%&&,         %%+.                        ",
"      &&&%%       %%&&;,%%:           OO                        ",
"      &&&%%      ,,%%&&:,%:           OO                        ",
"      &&%%%      ;:,,%&::%:           $O                        ",
"      &&%%%      %;:::%::::           $.                        ",
"      &<<%%     &%%;::::::%           $.                        ",
"      <<<<%     &&%%;:::::%%          +.                        ",
"      <<>><    &&&%%%;:::::%          ..                        ",
"      <>>>>>   &&&%%%:;:::;%          ..                        ",
"      >>>> <  &&&&%%:;;;::;%         $.                         ",
"      >>>    &&&&%%%:%%;;;%%         $+                         ",
"       >><  :%&&%%%:%&&;;;%%         $O                         ",
"           :::%%%%%:&&&;;;%%         $+                         ",
"            :::::%::&&&;%%%%         $O                         ",
"             %::::::&&&:&&&%         OO                         ",
"            &&%%%:::&&&:&&&%         +.                         ",
"            &&&%%%::%&&:&&%%         ..                         ",
"           &&&%%%::%%&&:&&%%         ..                         ",
"           &&&&%::%%%&&:&&%%        $.                          ",
"          &&&&%%;::%%%&;&&%%        $.                          ",
"         &&&&&%%%;;:%%%;&&%%        +.                          ",
"        &&&&&&&&%%%;:%%;&%%%        O.                          ",
"        &&&&&&&&%%%%;::%%%%%        +.                          ",
"       &&&&&&&&&%%%%%;:%%%%%        O.                          ",
"       &&&&&&&&&%%%%%%;:%%%%        +.                          ",
"      &&&&&&&&&%%%%%%%%;::%%        O.                          ",
"      &&&&&&&&&&&&&&%%%%;:::       +.                           ",
"      &&&&&%&%%&&&&&&&%%%;;;       ..                           ",
"     &&&&&%%%%%&&&&&&&&&%%%%       ..                           ",
"     %%&%%%%%&&&&&%%%%%%%%%%       +.                           ",
"    %%%%%%%%%%%%%%%%%%%%%%%%       ..                           "
};