/* XPM */
static char *wizard_right4[] = {
/* columns rows colors chars-per-pixel */
"64 104 19 1 ",
"  c None",
". c #280916",
"X c #20121C",
"o c #29072F",
"O c #3B0E20",
"+ c #3B0F21",
"@ c #3E2530",
"# c #4A2B38",
"$ c #65253E",
"% c #312841",
"& c #3F3A57",
"* c #4D0C4F",
"= c #5A4772",
"- c #F22525",
"; c #BA5D22",
": c #CD7A26",
"> c #875368",
", c #D1A22A",
"< c #A16891",
/* pixels */
"                                                                ",
"                                                      o         ",
"                                                                ",
"                                                                ",
"                                                                ",
"                                                                ",
"                                                                ",
"                                                                ",
"                                                                ",
"                                                                ",
"                                                                ",
"                                         ****o                  ",
"                                o        ****oo                 ",
"                               ooo     *****ooo                 ",
"                              oo       ***ooooo                 ",
"                                       **ooooo                  ",
"                                      *o*o          o           ",
"                                      **oo                      ",
"                                      *ooo                      ",
"                                      *ooo        ***           ",
"                                    oo*ooo       ****           ",
"                                  ****ooo        o***           ",
"                                *******oooo    oooooo           ",
"                               ********oooooo*oooo  o           ",
"                              o*******oooo******ooo o           ",
"                             ooo*****ooo*********oooo           ",
"                              ooooooooo*o*********ooo           ",
"                               oooooooo**********ooooo          ",
"                                 oo*ooo**#**+****oooo           ",
"                                 oo*oo***@++.****ooooo          ",
"                                 oo*o****++..***ooooooo         ",
"                                oo**o****++.#***oooooooo        ",
"                                o*******++.###****oooooo *o     ",
"                               o********++.###******oooo **o    ",
"                               o*******++..*@@#******oooo**o    ",
"                              o********++..**@@#*****oo o**o    ",
"                              o********++.***@@#*****oo o**o    ",
"                             oo*******++++***@@@****ooo  o*o    ",
"                             oo*******++++***@@@****ooo  **o    ",
"                             ooo****oo.+++***@@@*****oo  *oo    ",
"                              oooo*o**..+++*@@@******o   *o     ",
"                               oooo*oo*..+++@@@******o  **o     ",
"                                ooo****...+++@******ooo**o      ",
"                                  oo****...+++******ooo*o       ",
"                                  oo****#...++o****ooooo        ",
"                                 ooo***##....++***ooooo         ",
"                                ooo***##@-....+***oooo          ",
"                               ooo****#@--....+***ooo           ",
"                               oo*****@@--....O**oooo           ",
"                               oo*****@@--+....**ooo            ",
"                               ooo***o@@@-O....**ooo            ",
"                                ooo*oo@@+O....*ooooo            ",
"                                oooo**o@O.....*oooo             ",
"                  ====           ooo***O.....ooooo              ",
"                 ======           ooo**......**ooo              ",
"                ===&&&&=           ooo*....***ooo               ",
"                ==&&&&&&            ooo*..***ooo                ",
"                =&&&;;X&              .+OOO.oo                  ",
"               ==&&;;;X&                ..                      ",
"               ==&&:;;XX&              .OO+                     ",
"               =&&&:::XX=               ..                      ",
"          ,,,:==&&XX::XX&               O.                      ",
"           ::;::&:&>XXXX& ,,,           O.                      ",
"             =;:::><&XXX,,::            +.                      ",
"            =&&::::&&&&&:,:             ..                      ",
"           =&&%;;::::&&&&:,            $+                       ",
"           =&%%%%;::,::,,::%           $O                       ",
"          =&&%%%%:%::::;;:;%%&        <<<                       ",
"          &&&% %%%:%;;;;;:%%%%&&&&&&&&>>>                       ",
"         =&&%   %%:%%%%%;:%%%%%%&&&&&&><<                       ",
"        =&&&%    %%;:%&&%:  %%%%%%&&&&%>>                       ",
"        &&&%%    %%%;:&&&%     %%%%%%&&%.                       ",
"       =&&%%      %%<;&&&&      %%%%%%%+.                       ",
"       &&&%%      %%&&,&&&          %%+.                        ",
"       &&%%        %&&:%&&            OO                        ",
"      &&&%%       %&&&:%&&,           OO                        ",
"      &&&%%      ,,%&&;,%%:           $O                        ",
"      &&&%%      ;:%%&&:,%:           $.                        ",
"      &&%%%      %;::%&::%:           $.                        ",
"      &&%%%     &%%;::%::::           +.                        ",
"      &<<%%     &&%%;:::::%%          ..                        ",
"      <<<<%    &&&%%%;:::::%          ..                        ",
"      <<>><    &&&%%%:;:::;%         $.                         ",
"      <>>>>   &&&&%%:;;;::;%         $O                         ",
"      >>>>>  &&&&%%%:%%;;;%%         $+                         ",
"       >>>  :%&&%%%:%&&;;;%%         $+                         ",
"           :::%%%%%:&&&;;;%%         $+                         ",
"            :::::%::&&&;%%%%         OO                         ",
"            &&::::::&&&:&&&%         +.                         ",
"            &&&%%:::&&&:&&&%         ..                         ",
"           &&&%%%%::%&&:&&%%         ..                         ",
"           &&&&%%::%%&&:&&%%        $.                          ",
"          &&&&%%::%%%&&:&&%%        $.                          ",
"         &&&&&%%;::%%%&;&&%%        +.                          ",
"        &&&&&&&&%;;:%%%;&&%%        O.                          ",
"        &&&&&&&&%%%;:%%;&%%%        O.                          ",
"       &&&&&&&&&%%%%;::%%%%%        O.                          ",
"       &&&&&&&&&%%%%%;:%%%%%        +.                          ",
"      &&&&&&&&&%%%%%%%;:%%%%        O.                          ",
"      &&&&&&&&&&&&&&%%%;::%%       +.                           ",
"      &&&&&%&%%&&&&&&&%%;:::       ..                           ",
"     &&&&&%%%%%&&&&&&&&&%;;;       ..                           ",
"     %%&%%%%%&&&&&%%%%%%%%%%       +.                           ",
"    %%%%%%%%%%%%%%%%%%%%%%%%       ..                           "
};