/* XPM */
static char *wizard_right5[] = {
/* columns rows colors chars-per-pixel */
"64 104 19 1 ",
"  c None",
". c #280916",
"X c #20121C",
"o c #29072F",
"O c #3B0E20",
"+ c #3B0F21",
"@ c #3E2530",
"# c #4A2B38",
"$ c #65253E",
"% c #312841",
"& c #3F3A57",
"* c #4D0C4F",
"= c #5A4772",
"- c #F22525",
"; c #BA5D22",
": c #CD7A26",
"> c #875368",
", c #D1A22A",
"< c #A16891",
/* pixels */
"                                                                ",
"                                                                ",
"                                                                ",
"                                                                ",
"                                           oo                   ",
"                                          ***o                  ",
"                                 oo       ***oo                 ",
"                                oooo     o****o                 ",
"                                o        o***oo                 ",
"                                         **oo                   ",
"                                         *o                     ",
"                                        ooo                     ",
"                                        oo        ***           ",
"                                        *o       **oo           ",
"                                        *        **o            ",
"                                        o        o*o            ",
"                                        o         o*o           ",
"                                                   *oo          ",
"                                                   *oo          ",
"                                        oooo       **o          ",
"                                      ******oo     **o          ",
"                                    o********oo    **o          ",
"                                  ************oooo ***          ",
"                                 *************oooooo**o         ",
"                                 ***************oooo**o  **     ",
"                                o****************ooo*o  *****   ",
"                               o******************o*oo  ***o    ",
"                           ooo o******************oooo  *ooo    ",
"                           ooo o*********#**+*****ooo   *oo     ",
"                          ooo oo*********@++.*****ooo   *o      ",
"                          ooo ooo********++..*****ooo   *o      ",
"                          ooo ooooo******++.#*****ooo   oo      ",
"                          oo  oooooo****++.###*****o     oo     ",
"                          ooo  oooo*****++.###******o    oo     ",
"                            oo oooo****++..*@@#*****o     o     ",
"                             oo o******++..**@@#*****           ",
"                                 ******++.***@@#*****o          ",
"                                 *****++++**o@@@*****o          ",
"                                 *****++++ooo@@@*****oo         ",
"                                 *****.+++ooo@@@*****oo         ",
"                                 *****..+++o@@@*****ooo         ",
"                                *******..+++@@@****oooo         ",
"                               o*******...+++@*****ooo          ",
"                               *********...+++ooooooo           ",
"                              oo********#...++*oooooo           ",
"                              oooo*****##....++**ooo            ",
"                               oooo***##@-....+***oo            ",
"                                oooo**#@--....+***ooo           ",
"                                 ooooo@@--....O***ooo           ",
"                                  oooo@@--+....***ooo           ",
"                                   ooo@@@-O....***o*o           ",
"                                   ooo@@OO....*****oo           ",
"                                  oooo*@O.....*****oo           ",
"                  ====            oooo*O.....*****ooo           ",
"                 ======           oooo*......****ooo            ",
"                ===&&&&=          oooo*....**ooooooo            ",
"                ==&&&&&&          oooo**..**ooooooo             ",
"                =&&&;;X&           ooo.+OOO.oooooo              ",
"               ==&&;;;X&           ooooo..ooooooo               ",
"               ==&&:;;XX&              .+O+  ooo                ",
"               =&&&:::XX=               ..                      ",
"          ,,,:==&&XX::XX&               O.                      ",
"           ::;::&:&>XXXX& ,,,           O.                      ",
"             =;:::><&XXX,,::            +.                      ",
"            =&&::::&&&&&:,:             ..                      ",
"           =&&%;;::::&&&&:,            $O                       ",
"           =&%%%%;::,::,,::%           $+                       ",
"          =&&%%%%:%::::;;:;%%&        <<<                       ",
"          &&&% %%%:%;;;;;:%%%%&&&&&&&&>>>                       ",
"         =&&%   %%:%%%%%;:%%%%%%&&&&&&><<                       ",
"        =&&&%    %%;:%&&%:  %%%%%%&&&&%>>                       ",
"        &&&%%    %%%;:&&&%     %%%%%%&&%.                       ",
"       =&&%%      %%<;&&&&      %%%%%%%+.                       ",
"       &&&%%      %%&&,&&&          %%+.                        ",
"       &&%%        %&&:%&&            OO                        ",
"      &&&%%       %&&&:%&&,           OO                        ",
"      &&&%%      ,,%&&;,%%:           $O                        ",
"      &&&%%      ;:%%&&:,%:           $.                        ",
"      &&%%%      %;::%&::%:           $.                        ",
"      &&%%%     &%%;::%::::           +.                        ",
"      &<<%%     &&%%;:::::%%          ..                        ",
"      <<<<%    &&&%%%;:::::%          ..                        ",
"      <<>><    &&&%%%:;:::;%         $.                         ",
"      <>>>>   &&&&%%:;;;::;%         $O                         ",
"      >>>>>  &&&&%%%:%%;;;%%         $+                         ",
"       >>>  :%&&%%%:%&&;;;%%         $+                         ",
"           :::%%%%%:&&&;;;%%         $O                         ",
"            :::::%::&&&;%%%%         ++                         ",
"            &&::::::&&&:&&&%         O.                         ",
"            &&&%%:::&&&:&&&%         ..                         ",
"           &&&%%%%::%&&:&&%%         ..                         ",
"           &&&&%%::%%&&:&&%%        $.                          ",
"          &&&&%%::%%%&&:&&%%        $.                          ",
"         &&&&&%%;::%%%&;&&%%        +.                          ",
"        &&&&&&&&%;;:%%%;&&%%        O.                          ",
"        &&&&&&&&%%%;:%%;&%%%        +.                          ",
"       &&&&&&&&&%%%%;::%%%%%        O.                          ",
"       &&&&&&&&&%%%%%;:%%%%%        +.                          ",
"      &&&&&&&&&%%%%%%%;:%%%%        O.                          ",
"      &&&&&&&&&&&&&&%%%;::%%       O.                           ",
"      &&&&&%&%%&&&&&&&%%;:::       ..                           ",
"     &&&&&%%%%%&&&&&&&&&%;;;       ..                           ",
"     %%&%%%%%&&&&&%%%%%%%%%%       +.                           ",
"    %%%%%%%%%%%%%%%%%%%%%%%%       ..                           "
};