/* XPM */
static char *run_right6[] = {
/* columns rows colors chars-per-pixel */
"161 68 18 1 ",
"  c None",
". c #280916",
"X c #20121C",
"o c #29072F",
"O c #3B0E20",
"+ c #3B0F21",
"@ c #3E2530",
"# c #4A2B38",
"$ c #312841",
"% c #3F3A57",
"& c #4D0C4F",
"* c #5A4772",
"= c #F22525",
"- c #BA5D22",
"; c #CD7A26",
": c #875368",
"> c #D1A22A",
", c #A16891",
/* pixels */
"                                                                                                                                                                 ",
"             oooo                                                                                                                                                ",
"            oo                                                                                                                                                   ",
"            o                                                                                                                                                    ",
"                                                                                                                                                                 ",
"                                                                                                                                                                 ",
"                                                                                                                                                                 ",
"                   oooo                                                                                                                                          ",
"                  ooo                                                                                                                                            ",
"                 oo                                                                                                                                              ",
"                 oo                                                                                                                                              ",
"                                                                                                                                                                 ",
"        &&&&                                                                                                                                                     ",
"        oo&&&                                                                                                                                                    ",
"       o  o&&&                                ****                                                                                                               ",
"      o    o&&                 ooo&          ******                                                                                                              ",
"      o    o&&o    oo&&o     &&&&&o&o       ***%%%%*                                                                                                             ",
"     o     o&&o  &&&&&&&o  o&&&&&&&&&o      **%%%%%%                                                                                                             ",
"     o      o&o &&&&ooo&oo o&&&&&&&&&oo     *%%%--X%                                                                                                             ",
"    o     o o&o &&&oooo&&ooo&&&o&&&&&&oo   **%%---X%                                                                                                             ",
"         oo oo&oo&oo  o&&&o&&&&&&&&&&&&oo  **%%;--XX%                                                                                                            ",
"        oo   oo&&oo   o&&&&o&&&&&&oo&o&oo  *%%%;;;XX*                                                                                                            ",
"        oo    ooo     oo&&&&&&&&&ooo#@ooooo*%%XX;;XX%                                                                                                            ",
"         o             o&&&&&&&&&oo@@@ooo&oo$;%:XXXX%>                                                                                                           ",
"                       o&&&&&&&&.##@@@@o&&&oo:$,%XXX>;                                                                                                           ",
"                       oo&&&&&&&.#@oo@@@+++.oo%%%%%;>;                                                                                                           ",
"                       oo&&o&&&&+#&ooo@+.....oo;%%%%;>                                                                                                           ",
"                       ooo&&&&&#+..&&&++.....oo>;;>>;;                                                                                                           ",
"                       ooo&&&&#.++.+&++.......o;;;--;-                                                                                                           ",
"                        oo&&&&#@++++++....+...o-----;$%                                                                                                          ",
"                        oo&&&#&&&++++..#===O..O$$$$-;$%%                                                                                                         ",
"                        oo&&&&&&o&&+..&#==@...OO$,,,$$%%%                                                                                                        ",
"                         o&&&oo&o&&+.&&#@@@...OOOO,,$$$%%%                                                                                                       ",
"                         o&&ooo&o&&&&&&&&&@&&.o..O,,,$$$%%%                                                                                                      ",
"                          o&oooooo&&&&&&&&&&oo$::,::,O$$$%%%                                                                                                     ",
"                           o ooooooo&o&&&&&&o$$:::: .OOO$$%%%                                                                                                    ",
"                                ooooo&&&&&&oo$$::    ..O+,,%%%                                                                                                   ",
"                                 ooooo&&&&oo;;$        ..,,,%%                                                                                                   ",
"                                 -;oooooooo$-$           ::,++                                                                                                   ",
"                                %$-;$ooooo$$-$           :::,OO                                                                                                  ",
"                               %%%$$;;$$$$$--            $$::..O+                                                                                                ",
"                               %%%%$-;;;$$$-             $$$%% ..+O                                                                                              ",
"                              %%%%%%$--;;-$              $$%%    ..+O                                                                                            ",
"                              %%%%%%$$--;;$              $%%       ..+                                                                                           ",
"                              %%%%%%%$$;--$                         ..                                                                                           ",
"                             %%%%%%%$-;---$                                                                                                                      ",
"                             %%%%%%%$;----$                                                                                                                      ",
"                             %%%%%%$-$$---$                                                                                                                      ",
"                             -%%%%$;-$$--$$                                                                                                                      ",
"                             %-%%$$;$$$-$$                                                                                                                       ",
"                       $$$   %%;;;-;$%-$$                                                                                                                        ",
"                      $$$$$$ %%%%%-;$%%%$                                                                                                                        ",
"                     $$$$$$$$%%%%%;$%$-$$                                                                                                                        ",
"                     $$$$$$$$%%%%%-$$%-$$                                                                                                                        ",
"                    $$$$$$$$%%%%%%%;$$-$$                                                                                                                        ",
"                   $$$$$$$$%%%%%%%%-;$-$$                                                                                                                        ",
"                   $$$$$$$$%%%%%%%%$-;-$$                                                                                                                        ",
"                     $$$$$%%%%%%%%%$$$---                                                                                                                        ",
"                      $$$%%%%%%%%%%$$$$-                                                                                                                         ",
"                      $$%%%%%%%%%%$$$$$                                                                                                                          ",
"                       $%%%%%%%%%%$$$$                                                                                                                           ",
"                       %%%%%%%%%%$$$                                                                                                                             ",
"                      %%%%%%%%%%$                                                                                                                                ",
"                      %%%%%%%%%%                                                                                                                                 ",
"                     %%%%%%%%%%                                                                                                                                  ",
"                    %%%%%%%%%%%                                                                                                                                  ",
"                    %%%%%%%%%%%%                                                                                                                                 ",
"                     %%%%%%%%%%%%%                                                                                                                               "
};