/* XPM */
static char *run_right4[] = {
/* columns rows colors chars-per-pixel */
"161 68 18 1 ",
"  c None",
". c #280916",
"X c #20121C",
"o c #29072F",
"O c #3B0E20",
"+ c #3B0F21",
"@ c #3E2530",
"# c #4A2B38",
"$ c #312841",
"% c #3F3A57",
"& c #4D0C4F",
"* c #5A4772",
"= c #F22525",
"- c #BA5D22",
"; c #CD7A26",
": c #875368",
"> c #D1A22A",
", c #A16891",
/* pixels */
" oo                                                                                                                                                              ",
"o                                                                                                                                                                ",
"o              oo                                                                                                                                                ",
"o             o                                                                                                                                                  ",
"                                                                                                                                                                 ",
"                                                                                                                                                                 ",
"                                                                                                                                                                 ",
"                                                                                                                                                                 ",
"                                                                                                                                                                 ",
"                                                                                                                                                                 ",
"                    ooooo                                                                                                                                        ",
"          &&&      ooooooo                                                                                                                                       ",
"         &o&&&     oo                                                                                                                                            ",
"        &ooo&&&    oo       &&&&              ****                                                                                                               ",
"       &&o oo&&     ooooo &&&&&&&&o          ******                                                                                                              ",
"       oo   o&&     &&&&&&&&&&&&&&&&&       ***%%%%*                                                                                                             ",
"      oo    oo&&   &&&&&&&&&&&&&&&&&o&      **%%%%%%                                                                                                             ",
"      o      o&&  &&&&&&&&&&&&&&&&&&&&&     *%%%--X%                                                                                                             ",
"             o&& &&&oo&&&&&&&&&&&&&o&&&&   **%%---X%                                                                                                             ",
"        oo   oo&&&&oooo&&&&&&&&&&&ooooo&o  **%%;--XX%                                                                                                            ",
"       oo    oo&&&ooo o&&&&&&&&&&oo&&oooo  *%%%;;;XX*                                                                                                            ",
"      oo     ooo&oooo o&&&&&&&&ooo&&#@&oooo*%%XX;;XX%                                                                                                            ",
"      oo      ooooo    &&&&&&&oooo&@@@&&oooo$;%:XXXX%>                                                                                                           ",
"       o       ooo     oo&&&&ooo.##@@@@&&ooooo$,%XXX>;                                                                                                           ",
"        o              oooooo&oo.#@&&@@@+++.&oo%%%%;>;                                                                                                           ",
"                  ooo  ooooo&&&o+#&&&&@+.....&o;%%%%;>                                                                                                           ",
"                  ooo  oooo&&&&#+..&&&++.....&&o;;>>;;                                                                                                           ",
"                 oooo  o&&&&&&#.++.+&++.......&&;;--;-                                                                                                           ",
"                 ooo    &&&&&&#@++++++....O...&&----;$%                                                                                                          ",
"                 oo     &&&&&#&o&++++..#===O..O&$$$-;$%%                                                                                                         ",
"                 oo     o&&&&&&oo&&+..&#==@...OO$,,,$$%%%                                                                                                        ",
"                  o      o&&&&&ooo&+.&&#@@@...O+O+,,$$$%%%                                                                                                       ",
"                   o     o&&&&oooooo&&&&&&@oo.o..O,,,$$$%%%                                                                                                      ",
"                   o      o&&ooooooo&&&&&&oo&&o::,::,O$$$%%%                                                                                                     ",
"                           o&oooooooo&&&&&oo&o$:::: .O+O$$%%%                                                                                                    ",
"                            oooooooooo&&&oo&&o$::    ..O+,,%%%                                                                                                   ",
"                             ooo ooooooo&oo&o;$        ..,,,%%                                                                                                   ",
"                                   oooooooo$-$           ::,+O                                                                                                   ",
"                                    %ooooo$$-$           :::,O+                                                                                                  ",
"                                   ;;;---$$--            $$::..O+                                                                                                ",
"                                   $$%%%%;;-;-           $$$%% ..++                                                                                              ",
"                                  $$%%%%%%%%%%-;         $$%%    ..+O                                                                                            ",
"                                 $$$%%%%%%%%%%%-;        $%%       ..+                                                                                           ",
"                                 $$$%%%%%%%%%%%-%%%%                ..                                                                                           ",
"                                $$$$$%%%%%%%%;-%%%%%                                                                                                             ",
"                               $$$$$$$%%%%%%;%%%%%%%%                                                                                                            ",
"                              $-$$$$$$$$$$;-%%%%%%%%%                                                                                                            ",
"                             $$--$$$$$$$;-$$%%%%%%%%%                                                                                                            ",
"                           $$$$$$--$$$$;$$$$$%%%%%%%%                                                                                                            ",
"                         $$$$$$$$$$--;;$$$$$%%%%%%%%                                                                                                             ",
"                      %%%$$$$$$$$$$$$$$$$$$$$$%%%%%                                                                                                              ",
"                   %%%%%$$$$$$$$$$$$$$$$$$%%%%%%%%                                                                                                               ",
"                %%%%%%$$$$$$$$$$$$$$$$$$%%%%%%%%%                                                                                                                ",
"              %%%%%%%$$$$$$$$$$%%%%$$%%%%%%%%%%%                                                                                                                 ",
"             %%%%%%$$$$$$$$$$$$$$%%$$%%%%%%%%%%                                                                                                                  ",
"             %%$$$$$$$$$$$$$$$$$$$$$%%%%%%%%%%                                                                                                                   ",
"             $$$$$$$$$$$$$%$$$$$$$$$%%%%%%%%%%                                                                                                                   ",
"             $$$$$$$$$$$$$$%%$$$$$$$%%%%%%%%%                                                                                                                    ",
"              $$$$$$$$$$%$$$$%$$$$$$%%%%%%%%                                                                                                                     ",
"              $$$$$$$$$$$%$$$$%$$$$%%%%%%%%                                                                                                                      ",
"               $$$$$$$$$$$%$$$$$$$$%%%%%%                                                                                                                        ",
"                $$$$$$%$$$$%%$$$$$$%%%%%                                                                                                                         ",
"                 $$$$$$%$$$$$$$$$$$$%%%                                                                                                                          ",
"                 $$$$$$$%%$$$$$$$$$$%%                                                                                                                           ",
"                  $$$$$$$$%$$$$$$$$                                                                                                                              ",
"                   $$$$$$$$%%$$$$$$                                                                                                                              ",
"                    $$$$$$$$$$$$$                                                                                                                                ",
"                       $$$$$$$$$                                                                                                                                 "
};