/* XPM */
static char *_4c16f4587c94e4be1401f78d5cfea5bHlUG4ni5Uncf9k6i[] = {
/* columns rows colors chars-per-pixel */
"64 64 209 2 ",
"   c None",
".  c #141516",
"X  c #161718",
"o  c #161919",
"O  c #1B1C1C",
"+  c #1A1715",
"@  c #101111",
"#  c #2C1405",
"$  c #351C0D",
"%  c #391D0B",
"&  c #3A1601",
"*  c #231E1C",
"=  c #241A13",
"-  c #351E10",
";  c #280E00",
":  c #27211E",
">  c #382417",
",  c #3D200E",
"<  c #1E1F20",
"1  c #1E2021",
"2  c #222424",
"3  c #252728",
"4  c #26292A",
"5  c #292B2C",
"6  c #2C2826",
"7  c #322A26",
"8  c #352C27",
"9  c #2B2F31",
"0  c #2D3234",
"q  c #2C3436",
"w  c #333334",
"e  c #333739",
"r  c #343A3C",
"t  c #3B3C3D",
"y  c #3A3535",
"u  c #38312D",
"i  c #441A00",
"p  c #4B1D00",
"a  c #431700",
"s  c #511F00",
"d  c #4D2405",
"f  c #542200",
"g  c #5B2501",
"h  c #592A0A",
"j  c #5A3708",
"k  c #432B18",
"l  c #4C351A",
"z  c #49331B",
"x  c #55391A",
"c  c #56300D",
"v  c #612700",
"b  c #652900",
"n  c #6C2C00",
"m  c #602C0C",
"M  c #683704",
"N  c #743300",
"B  c #7C3B01",
"V  c #743C09",
"C  c #773902",
"Z  c #6D340A",
"A  c #483526",
"S  c #543B24",
"D  c #463C37",
"F  c #453426",
"G  c #7C4500",
"H  c #774404",
"J  c #6F430D",
"K  c #5D422C",
"L  c #564334",
"P  c #62442C",
"I  c #644839",
"U  c #69513C",
"Y  c #5E431E",
"T  c #3C3E41",
"R  c #373E41",
"E  c #413F40",
"W  c #3D4244",
"Q  c #3D464A",
"!  c #434445",
"~  c #444749",
"^  c #454A4C",
"/  c #4A4C4D",
"(  c #4A4646",
")  c #534B49",
"_  c #454E51",
"`  c #4C4F51",
"'  c #465255",
"]  c #4D5253",
"[  c #4C5559",
"{  c #4D595D",
"}  c #525455",
"|  c #545659",
" . c #555A5B",
".. c #5A5C5D",
"X. c #575757",
"o. c #53504F",
"O. c #615D5D",
"+. c #6A5858",
"@. c #6F594F",
"#. c #5A605F",
"$. c #71615C",
"%. c #545E61",
"&. c #5C5F61",
"*. c #4F5C61",
"=. c #615F60",
"-. c #546165",
";. c #5D6263",
":. c #5B666A",
">. c #5C696D",
",. c #576469",
"<. c #5D6C70",
"1. c #626466",
"2. c #626867",
"3. c #646769",
"4. c #666A6B",
"5. c #6A6C6E",
"6. c #686768",
"7. c #69706F",
"8. c #646E71",
"9. c #6C6E71",
"0. c #6D7173",
"q. c #6E7578",
"w. c #6A7575",
"e. c #717576",
"r. c #727877",
"t. c #727679",
"y. c #757B7B",
"u. c #797D7E",
"i. c #797977",
"p. c #70706E",
"a. c #833E00",
"s. c #844200",
"d. c #8B4400",
"f. c #844B00",
"g. c #884B04",
"h. c #954A01",
"j. c #9B4E00",
"k. c #914600",
"l. c #8D5301",
"z. c #875102",
"x. c #915600",
"c. c #945A01",
"v. c #9A5E00",
"b. c #9D5100",
"n. c #97551C",
"m. c #A45400",
"M. c #AE5D00",
"N. c #AD5D00",
"B. c #A75800",
"V. c #B05E00",
"C. c #A04F01",
"Z. c #9D6100",
"A. c #A36600",
"S. c #A76901",
"D. c #AB6C00",
"F. c #AF6000",
"G. c #B26001",
"H. c #AE7000",
"J. c #895932",
"K. c #88562C",
"L. c #7A807F",
"P. c #77807F",
"I. c #7B7F80",
"U. c #747E81",
"Y. c #768182",
"T. c #7D8383",
"R. c #7F8887",
"E. c #7E8989",
"W. c #7A8789",
"Q. c #818686",
"!. c #818887",
"~. c #838788",
"^. c #838A8A",
"/. c #898D8E",
"(. c #86908F",
"). c #8A908F",
"_. c #8C8F91",
"`. c #878E90",
"'. c #869191",
"]. c #8D9292",
"[. c #8D9896",
"{. c #919496",
"}. c #929897",
"|. c #949799",
" X c #959A9A",
".X c #9A9D9D",
"XX c #9AA09F",
"oX c #97A19F",
"OX c #9D9EA1",
"+X c #9EA1A2",
"@X c #9DA6A6",
"#X c #A2A4A6",
"$X c #A2A8A7",
"%X c #A5A7A9",
"&X c #A6A9AA",
"*X c #AAACAD",
"=X c #AAB0AF",
"-X c #A7B0AE",
";X c #AEAFB1",
":X c #AFB0B2",
">X c #B0B1B3",
",X c #B3B8B7",
"<X c #B6BBBA",
"1X c #B9BEBD",
"2X c #BBC0BF",
"3X c #BEC3C1",
"4X c #C3C7C6",
"5X c #C3C8C7",
"6X c #C4C9C8",
/* pixels */
"].P.0.7.y.e.r.q.i.r.u.y.y.P.y.T./.y.^.y.5.i.y.5.2.q.r.w.0.y.y.y.Q.T.L.T.}.P.5.r.5.w.r.t.u.r.r.u.r.Q.T.Q.Q.Q.{.w.u.7.q.5.y.9.y.y.",
"1XT.>X>X>X>X>X*X:X:X:X:X:X;X;X;X;X*Xy.R.;X:X:X:X:X:X:X>X:X:X:X:X;X:X:X*XT.~.:X:X:X:X:X:X:X:X:X:X>X>X>X>X:X&XQ./.>X>X:X;X>X:X;X;X",
"1XI.*X*X>X>X:X:X;X;X=X;X;X:X;X:X:X*XQ.Q.*X:X;X:X:X:X:X>X>X:X=X:X:X*X;X*X/./.;X:X:X:X:X:X:X:X;X:X:X:X:X:X:X&X[./.>X:X;X:X:X:X:X;X",
"<Xi.:X;X>X*X;X;X;X;X;X;X*X;X;X;X;X*X^./.:X*X;X:X;X:X:X*X:X*X*X*X*X:X=X*X/.~.:X:X:X:X:X:X:X:X;X;X:X:X*X:X:X%X]./.:X:X*X;X:X;X;X;X",
"<X6.I.T.Q.I.Q.L.u.Q.u.Q.Q.Q.Q.~.~.Q./.e.Q.Q.Q.u.u.u.L.L.L.T.Q.Q.T.R.E.u._.0.T.T.T.T.Q.T.L.Q.Q.Q.L.L.Q.T.T.u.|.2.I.I.I.I.T.I.I.Q.",
"1Xe.+XOX.X.X.X{..Xu..X~.{.{._.{.{._.#X|._.~./._./././.!.+X+X*X*X&X;X&X$X:X&X#X#X|..X+X X.X^.|.{.|.|.{._._.{.+X|./.T./././._.{.~.",
"1Xu.>X>X:X;X*X*X*X/./.*X:X:X>X>X;X:X:X:X:X:X;X;X:X:X>X/.@X3X5X6X5X4X5X4X5X6X4X4X4X4X4X4X4X+X_.:X:X>X>X>X>X>X>X>X>X>X;X>X>X>X>X~.",
"<XT.;X;X:X;X>X>X*X/.{.>X:X;X;X>X:X;X:X:X>X>X>X;X:X:X>XQ.XX3X5X5X5X4X4X4X6X3X4X4X4X5X4X4X4XXX].:X:X:X;X;X;X>X;X>X;X;X;X;X;X>X>X~.",
"1Xp.|.|. X.XOX.X.Xi./.OX#X#X%X%X%X#X$X%X%X%X*X%X&X*X&XT.XX:X<X,X<X<X,X<X1X1X2X1X1X1X2X2X2X.X~.OX#XOX%X#X%X%X%X%X%X%X%X%X&X*X*XQ.",
",Xy.{.{._.~.~./.~.I.#X'.]./././._._.].^.].'./././././.!.#X/.Q.R.Q.~.~.~.~.T.T.Q.Q.Q.!.Q.~.T._.~.Q.Q.Q.T.I.I.I.I.I.I.I.y.u.u.u.u.",
";X{.:X>X;X;X;X>X;X~. X4X4X4X6X4X4X4X4X4X4X4X3X4X4X4X5X].{.>X;X>X>X;X;X>X;X;X:X>X:X>X>X>X:XQ./.>X>X>X>X>X>X>X;X;X>X;X:X;X;X;X*X~.",
"*X_.;X:X;X;X;X>X>X~. X4X4X4X4X4X4X4X4X4X4X4X4X4X4X4X6X{.].:X;X;X;X>X>X;X>X;X:X>X:X:X;X;X;X~.~.>X;X;X;X;X;X>X;X;X;X>X;X>X:X;X>X~.",
"*X/.#X&X&X&X%X;X%X~._.4X3X4X3X4X3X4X4X4X4X4X4X4X4X4X4X]./.*X;X*X;X;X;X*X;X;X;X;X;X:X:X;X;X~.~.;X:X*X;X;X*X;X*X*X;X*X*X>X:X;X>XI.",
":Xu.r.q.y.y.t.t.e.~.{.U.y.I.T.I.u.T.^.5.4.1.2.2.;.;.;.P.].w.0.0.4.9.9.e.t.&.| ....} } &.| i.~.p.p.5.0.0.5.e.u.O.......] | ../ I.",
"*X|.:X=X*X;X;X;X*X;X:X*X;X*X*X*X*XOX/.{.*X*X*X*X*X*X*X*X=X*X*X;X;X;X*XOX/..X;X;X:X:X;X;X:X;X;X*X*X*X*X*X%X|..XOX;X*X*X*X*X*X;X;X",
"&X X:X:X:X:X:X;X:X:X:X:X;X;X;X;X>X+X.X X:X:X;X:X:X:X>X:X:X>X;X;X;X;X;XOX_.OX;X;X:X:X:X:X>X>X>X;X>X;X;X:X;X.X~.OX>X>X>X:X>X>X;X;X",
"&X{.:X>X;X;X*X:X:X*X:X;X;X;X;X>X>XOX.X.X>X;X;X;X;X;X;X;X;X;X;X;X;X;X:X.X].OX;X;X>X>X>X>X>X>X:X;X:X:X;X;X;X|.~.#X>X>X>X*X;X;X;X>X",
"*Xy./.~./.~./.~././.^._._._././._.I..Xi././././././././.~./././././.{.T.{.I.~./.~.^.~./.~.~.~./././._./._.t.{.T.~./././././._.~.",
"<XT..X_.{._.Q./.~.Q./.Q.I./.I.I.T.T.%X/.T.i.L.I.u.Q.Q./.(.~./.Q.T./.Q.Q.OX~.i.u.t.e.u.u.Q.u././. X_.~.{.~./.|.T.Q.L.I.Q./.T.T.~.",
":X~.:X;X;X>X:X:X:XQ.{.>X;X;X>X;X>X>X>X>X>X>X>X>X;X;X;XQ.{.>X;X;X*X;X:X:X;X;X;X;X:X:X:X:X:X/.].4X4X4X4X4X4X4X4X4X4X4X4X4X5X5X6X~.",
":X{.;X;X;X>X;X:X>XT.{.;X*X:X:X:X;X;X;X;X>X>X>X>X:X;X:X/._.>X:X;X;X;X;X;X;X;X;X:X;X;X:X:X>XQ.].6X5X5X4X4X5X5X5X5X6X5X5X5X6X6X5X'.",
"*X~.#X%X%X%X*X%X*Xu./.%X*X*X*X*X;X*X;X*X;X;X;X;X;X;X*X/.{.&X*X&X*X*X*X*X*X*X*X;X;X;X;X*X*Xu._.3X3X4X3X3X3X3X3X3X3X5X4X3X4X4X4X/.",
"*XY.~.~.I.I.I.I.T.Q.{.R.Y.T.T.T.T.~.~.^.Q.I.I.T.I.T.Y.^..XT.T.T.T.Q.Q.T.T.T.I.I.I.T.T.u.I.Q.~.T.I.I.T.U.I.I.I.Y.~.T.I.I.y.Y.I./.",
"+X#X;X;X;X;X>X>X>X_.{.6X4X4X4X4X4X4X4X3X5X5X4X4X4X5X4X{.(.5X4X4X4X4X5X4X4X4X4X4X6X6X4X4X4X/.I.>X>X;X;X;X;X;X:X:X;X>X>X>X;X>X*X~.",
".X+X:X;X;X;X;X>X>X_.{.4X4X4X4X4X4X4X4X3X5X5X5X4X4X5X4X].].6X4X4X4X4X4X4X5X4X4X4X4X5X4X4X4X_.u.>X>X>X>X>X>X>X>X>X>X;X:X;X;X;X;XT.",
"OX+X;X*X&X;X;X;X;X_./.4X4X4X4X4X4X4X4X4X5X5X5X6X5X5X5X].}.6X4X4X5X5X5X5X5X5X4X4X5X5X4X6X4X/.I.>X>X;X;X>X>X>X>X>X>X;X:X;X;X;X;X~.",
"*Xy.y.y.t.I.I.u.u.{.`.~.~.Q.T.T.T.T.!.0.8.9.r.2.5.i.y./...;.5.6.2.7.0.y.!.7.r.2.2.4.0.q.0.2./ ` ....| &.3.0.0.2.| ..&...&.;.4.T.",
"+X+X$X&X&X&X%X%X%X%X%X%X%X%X%X$X%X{.+X#X%X&X&X&X$X$X%X$X%X%X#X#XOX+X+X/. X$X*X*X$X%X%X#X#X#X%X+X#X%X%X+X#X~.|.*X*X*X*X*X&X&X&X&X",
".X%X;X;X;X;X:X:X:X:X:X>X;X;X=X>X:X{./.*X;X;X;X;X;X;X;X;X;X;X;X*X;X;X*X/.~.>X>X>X>X:X;X;X;X;X;X>X;X>X>X;X>X~.].>X>X:X:X:X:X:X:X:X",
"|.%X;X;X;X;X;X:X:X:X;X;X;X;X;X;X:X_./.*X>X;X;X;X;X;X;X;X;X;X;X;X;X;X;X~._.>X>X>X:X:X;X>X>X>X>X>X>X;X>X>X>X~./.:X:X:X:X>X:X:X:X:X",
"_.~.{._._.|.{._.{.{.{.{.{.{.|.|.|.Q._./.{._.{.{.{.|.|.{.|.|.{.|.|.|.|.y._._.{.{.{./._._._.{.{.{.{.|..X|.|.e././._._._._.{.{._.|.",
"*XI.Q.T.T.I.i.i.t.u.T.t.u.I.T.u.u.Q.%XT.e.r.t.0.e.t.I.Q.u.u.I.u.I.I.u.I.#Xt.e.i.e.r.p.e.0.Q.9.I.I.i.I.t.u.T.#XI.r.t.0.5.p.9.y.!.",
"OX#X>X>X;X;X;X;X;X~./.;X;X;X;X;X;X;X:X:X:X:X;X;X;X;X>X~.~.>X:X:X:X:X>X;X>X>X:X:X>X:X:X;X;X/.I.;X;X>X;X;X;X;X;X>X:X;X:X*X:X*X;Xy.",
"|.#X;X;X;X;X;X;X;X~.~.;X;X;X;X;X;X>X:X:X;X;X;X;X;X;X;X/.~.>X>X:X:X:X;X;X;X;X:X:X;X;X;X:X>XQ.I.>X;X;X;X;X;X;X:X:X:X;X;X>X;X;X;XI.",
"[.OX%X*X;X;X;X;X;X^.~.;X;X;X;X:X>X>X>X*X;X;X;X;X;X;X;XT.^.>X;X;X:X:X;X;X;X;X*X;X;X:X;X;X>X~.I.;X>X>X;X;X;X;X:X;X>X:X>X:X;X>X;Xu.",
" Xu.U.I.e.t.e.t.t._.y.0.9.4.5.9.9.0.5.5.5.5.8.9.4.9.2.].y.9.9.9.e.p.9.9.9.9.p.9.5.5.9.9.6.~.4.9.9.e.9.9.4.9.9.0.9.5.9.0.e.5.3.+X",
"!.:X>X>X>X>X>X>X>X`.I.;X;X;X;X;X>X;X;X>X:X;X>X*X;X;X;X{.I.>X>X:X:X:X;X>X>X:X:X:X:X:X:X:X;Xu.|.;X;X;X>X;X>X>X;X:X:X:X;X;X;X;X#X(.",
"~.;X:X>X;X>X;X>X;X~.u.>X>X>X>X>X;X;X:X:X:X>X>X>X;X;X;X~.i.>X;X>X>X;X;X:X:X>X:X:X:X:X:X:X*Xu.|.;X;X;X;X>X:X>X:X:X;X:X;X;X;X;X+X].",
"R.;X;X>X>X>X>X>X>X/.Q.>X;X>X>X>X>X>X>X:X;X;X>X>X;X:X;X_.u.:X>X>X:X;X>X:X>X>X:X:X:X:X;X:X*Xe..X>X>X>X>X>X>X>X:X:X:X:X>X>X;X>XXX{.",
" Xy.I.T.I.I.I.I.I.|.9.i.I.i.I.t.I.i.u.t.0.i.e.e.i.t.t._.X.6.5.6.0.9.e.t.t.9.e.e.i.e.e.t.9.e.&.3.9.9.9.e.0.i.t.e.t.e.i.i.e.i.5.Q.",
"{.#X%X#X#X#X+XOXOX+XOX.X.XOXOX.XOX/.|.OXOX.X X.X.X.XOXOX|.|.{.{.{.{.{./.{.OX.X.X.XOXOXOX|..X.X|. X|.|..X|._.{..XOXOXOXOX.X.X X.X",
"Q.;X;X;X;X;X;X>X>X>X>X;X;X;X;X;X;XQ._.;X;X>X>X>X>X;X;X:X:X;X;X;X;X;X*XT./.:X:X;X:X*X;X;X:X:X;X:X:X:X;X>X>XT.~.:X:X>X;X>X>X;X>X*X",
"~.;X;X:X;X;X>X>X>X>X;X;X;X;X;X;X;XT._.:X;X*X>X>X;X>X:X;X;X;X:X:X;X*X>X~.~.>X;X;X:X;X;X;X:X:X:X:X:X;X>X>X:X~.~.:X:X:X>X;X;X;X:X;X",
"I.|. XOXOXOXOXOXOXOX#X+X+X+X+X%X+XI./.|..X.X.XOXOXOX#X#XOXOX+X+X#X#X%Xu.~. X.X.X.XOX.XOXOXOXOX#XOXOX+X+XOXT.Q..X.X.XOXOXOXOX#XOX",
"}.y.I.u.y.t.y.t.r./.0.y.i.e.t.i.r.r.P.5.4.0.9.9.5.0.9.Q.5.y.i.u.I.I.I.I.T.t.p.0.9.9.9.5.9.T.p.t.t.i.t.t.t.i.u.p.9.5.5.5.0.4.4.^.",
"T.;X>X>X:X>X:X;X:X/.u.:X:X*X:X;X;X;X>X;X>X>X;X;X;X*X*X).T.:X;X;X;X:X;X;X>X;X;X;X;X;X:X:X;Xu.{.:X>X:X>X>X>X>X>X>X>X;X;X;X;X;X.X/.",
"~.;X:X:X:X:X:X:X;X/.u.>X:X:X:X:X:X>X>X>X:X*X;X;X:X;X*X/.y.:X;X;X;X;X;X;X;X;X:X;X;X;X;X;X;Xt.{.:X:X:X>X:X>X>X>X>X:X;X;X;X;X;X.X/.",
"Q.;X;X;X;X:X;X:X:X].I.:X:X:X:X;X>X>X*X>X>X:X;X;X:X:X&X/.u.;X;X:X*X;X;X;X>X:X:X>X;X;X;X;X*Xi. X>X:X=X:X:X:X:X>X;X:X:X>X:X:X:X X/.",
"`.9.e.0.e.9.0.0.5.{.4.r.y.t.t.e.r.e.r.r.q.r.y.y.q.w.4.#X;.0.5.3.4.2.9.2.3.3.4.5.4.5.9.5.3.].2.0.q.y.e.w.r.0.w.q.q.r.t.t.r.w.4.XX",
"I.;X;X;X:X;X;X;X&XY.>X4X4X4X4X4X4X4X4X4X4X4X4X4X4X4X=X$X{.;X;X;X;X;X;X;X;X;X*X*X*X*X*X*X.X/.1X4X4X3X4X4X4X3X4X4X4X4X4X4X4X4X$X.X",
"i.;X;X;X:X:X;X:X%Xr.,X6X4X4X4X4X4X4X4X4X4X4X4X4X4X4X=X+X{.;X;X;X;X;X:X:X:X:X:X;X;X;X;X;X X!.2X4X4X3X4X3X4X4X4X4X4X4X4X4X4X4X X{.",
"I.:X:X>X:X:X>X:X%XP.<X4X4X4X4X4X4X4X4X4X4X4X4X4X4X4X$XXX}.;X*X;X;X;X;X;X;X;X;X;X:X;X;X>X.X/.2X3X4X4X4X4X4X3X4X4X3X4X4X4X3X4XOX{.",
"I.y.I.I.I.~.Q.I.u.{.'. X{.|.}. X X X|.{.}.|.XX.XXX.X~.%Xt.I.I.T.T.T.I.Q.Q.T.T.Q.~.~.Q.~.i.].[.{. X}.}. X X X|.{.{.|. XoX X X^.}.",
"_.OXOX X.X{. X XOXOX X X{.{. X{.}.}./.{.{.{./.].~.~./.OX.X{.{._.{.{. X/.T.{.{././././.~./. X|.{.{.|. X.X{.}.Q.{.{./._.~._._.).+X",
"t.;X;X>X;X;X;X;X;X;X:X:X:X:X>X*X*X/.T.;X;X:X:X:X:X:X>X;X:X:X>X>X:X:X:XQ.I.;X*X:X;X:X;X:X;X;X:X:X:X:X>X:X=X/.T.>X>X>X>X>X>X>X:X:X",
"i.>X;X;X;X;X;X;X;X;X:X:X;X;X>X:X=XQ.~.;X;X;X:X:X;X;X;X>X:X:X>X*X:X:X>X~.Q.:X:X*X:X:X;X:X;X;X:X:X:X:X:X:X=X/.u.>X;X;X:X:X:X:X:X:X",
"q.%X%X%X%X&X&X*X%X*X&X*X*X*X*X*X*XT.I.#X#X%X%X&X*X%X%X*X*X*X*X*X*X;X:XQ.r.%X%X%X%X%X%X*X*X*X*X*X*X*X*X*X&X~.y.%X$X#X#X%X&X*X&X%X",
"I.t.t.t.e.t.9.0.9.u.5.0.r.5.9.0.5.y.r.4.4.4.1.#.1...1.T.5.0.9.e.e.9.4.y.0.4.9.3.1.3.4.;.;.y.2.5.5.9.5.5.3.i.5.;.2.4.1.4.3.1.6.u.",
"I.>X;X;X>X>X>X>X&Xi.OX>X>X*X>X>X;X:X;X;X:X:X;X;X*X:XOX.X_.>X>X>X>X;X:X;X:X:X:X:X;X:X;X>X#X~.%X>X:X:X:X:X:X;X;X>X>X>X;X;X>X*X_.|.",
"I.>X;X;X;X;X:X>X&Xy..X:X:X;X;X;X;X*X;X;X;X;X;X=X>X*X|.|..X>X;X;X;X;X*X;X*X:X*X;X*X:X;X;XOXQ.;X>X:X:X:X;X:X;X:X>X;X;X;X;X:X>X/.].",
"Y.:X*X:X:X:X:X:X&XP.#X;X;X;X:X:X:X:X;X:X=X:X;X;X:X:X{..X X:X:X:X;X;X;X*X:X*X*X>X=X>X;X:X.X!.%X>X:X:X:X:X;X:X>X:X:X>X;X;X:X=X/.].",
"R.u.I.u.t.r.r.P.r.{.P.u.L.u.u.y.u.u.u.u.T.T.Q.Q.Q.P.e.$Xr.i.P.P.u.u.u.T.P.u.u.u.y.P.y.u.0. Xy.I.y.u.u.y.u.y.u.Y.Q.u.T.u.L.u.0..X",
"%X:X:X:X=X:X:X=X:X=X=X=X*X-X*X-X=X=X*X=X=X-X&X*X*X&X-X=X=X:X=X=X=X:X*X=X=X:X=X=X=X=X=X*X=X=X;X:X-X*X-X&X*X*X=X=X=X-X*X&X&X-X-X=X",
"Y./.^.!.!./.!.^.R.^./.!.!.!.!.R.!.!./.!.^.^.^.^.!.!.!.^.^.R.^.^.^.!.!./.^.!.!./.!.^.^.^.^.^.!.!.!.^.^.^.^.^.^.^.!.^.!.^.^.^.!.^."
};