/* XPM */
static char *_4c16f4587c94e4be1401f78d5cfea5bHlUG4ni5Uncf9k6i[] = {
/* columns rows colors chars-per-pixel */
"64 64 209 2 ",
"   c None",
".  c #141516",
"X  c #161718",
"o  c #161919",
"O  c #1B1C1C",
"+  c #1A1715",
"@  c #101111",
"#  c #2C1405",
"$  c #351C0D",
"%  c #391D0B",
"&  c #3A1601",
"*  c #231E1C",
"=  c #241A13",
"-  c #351E10",
";  c #280E00",
":  c #27211E",
">  c #382417",
",  c #3D200E",
"<  c #1E1F20",
"1  c #1E2021",
"2  c #222424",
"3  c #252728",
"4  c #26292A",
"5  c #292B2C",
"6  c #2C2826",
"7  c #322A26",
"8  c #352C27",
"9  c #2B2F31",
"0  c #2D3234",
"q  c #2C3436",
"w  c #333334",
"e  c #333739",
"r  c #343A3C",
"t  c #3B3C3D",
"y  c #3A3535",
"u  c #38312D",
"i  c #441A00",
"p  c #4B1D00",
"a  c #431700",
"s  c #511F00",
"d  c #4D2405",
"f  c #542200",
"g  c #5B2501",
"h  c #592A0A",
"j  c #5A3708",
"k  c #432B18",
"l  c #4C351A",
"z  c #49331B",
"x  c #55391A",
"c  c #56300D",
"v  c #612700",
"b  c #652900",
"n  c #6C2C00",
"m  c #602C0C",
"M  c #683704",
"N  c #743300",
"B  c #7C3B01",
"V  c #743C09",
"C  c #773902",
"Z  c #6D340A",
"A  c #483526",
"S  c #543B24",
"D  c #463C37",
"F  c #453426",
"G  c #7C4500",
"H  c #774404",
"J  c #6F430D",
"K  c #5D422C",
"L  c #564334",
"P  c #62442C",
"I  c #644839",
"U  c #69513C",
"Y  c #5E431E",
"T  c #3C3E41",
"R  c #373E41",
"E  c #413F40",
"W  c #3D4244",
"Q  c #3D464A",
"!  c #434445",
"~  c #444749",
"^  c #454A4C",
"/  c #4A4C4D",
"(  c #4A4646",
")  c #534B49",
"_  c #454E51",
"`  c #4C4F51",
"'  c #465255",
"]  c #4D5253",
"[  c #4C5559",
"{  c #4D595D",
"}  c #525455",
"|  c #545659",
" . c #555A5B",
".. c #5A5C5D",
"X. c #575757",
"o. c #53504F",
"O. c #615D5D",
"+. c #6A5858",
"@. c #6F594F",
"#. c #5A605F",
"$. c #71615C",
"%. c #545E61",
"&. c #5C5F61",
"*. c #4F5C61",
"=. c #615F60",
"-. c #546165",
";. c #5D6263",
":. c #5B666A",
">. c #5C696D",
",. c #576469",
"<. c #5D6C70",
"1. c #626466",
"2. c #626867",
"3. c #646769",
"4. c #666A6B",
"5. c #6A6C6E",
"6. c #686768",
"7. c #69706F",
"8. c #646E71",
"9. c #6C6E71",
"0. c #6D7173",
"q. c #6E7578",
"w. c #6A7575",
"e. c #717576",
"r. c #727877",
"t. c #727679",
"y. c #757B7B",
"u. c #797D7E",
"i. c #797977",
"p. c #70706E",
"a. c #833E00",
"s. c #844200",
"d. c #8B4400",
"f. c #844B00",
"g. c #884B04",
"h. c #954A01",
"j. c #9B4E00",
"k. c #914600",
"l. c #8D5301",
"z. c #875102",
"x. c #915600",
"c. c #945A01",
"v. c #9A5E00",
"b. c #9D5100",
"n. c #97551C",
"m. c #A45400",
"M. c #AE5D00",
"N. c #AD5D00",
"B. c #A75800",
"V. c #B05E00",
"C. c #A04F01",
"Z. c #9D6100",
"A. c #A36600",
"S. c #A76901",
"D. c #AB6C00",
"F. c #AF6000",
"G. c #B26001",
"H. c #AE7000",
"J. c #895932",
"K. c #88562C",
"L. c #7A807F",
"P. c #77807F",
"I. c #7B7F80",
"U. c #747E81",
"Y. c #768182",
"T. c #7D8383",
"R. c #7F8887",
"E. c #7E8989",
"W. c #7A8789",
"Q. c #818686",
"!. c #818887",
"~. c #838788",
"^. c #838A8A",
"/. c #898D8E",
"(. c #86908F",
"). c #8A908F",
"_. c #8C8F91",
"`. c #878E90",
"'. c #869191",
"]. c #8D9292",
"[. c #8D9896",
"{. c #919496",
"}. c #929897",
"|. c #949799",
" X c #959A9A",
".X c #9A9D9D",
"XX c #9AA09F",
"oX c #97A19F",
"OX c #9D9EA1",
"+X c #9EA1A2",
"@X c #9DA6A6",
"#X c #A2A4A6",
"$X c #A2A8A7",
"%X c #A5A7A9",
"&X c #A6A9AA",
"*X c #AAACAD",
"=X c #AAB0AF",
"-X c #A7B0AE",
";X c #AEAFB1",
":X c #AFB0B2",
">X c #B0B1B3",
",X c #B3B8B7",
"<X c #B6BBBA",
"1X c #B9BEBD",
"2X c #BBC0BF",
"3X c #BEC3C1",
"4X c #C3C7C6",
"5X c #C3C8C7",
"6X c #C4C9C8",
/* pixels */
"oX(.#.;.1.4.7.5.4.5.4.5.2.7.7.7.7.r.}./.X. .;.2.;.;.:.] X. .;.#.1.} .. .y.2. .1.2.;.1. ...;...#.;.;...} } #.r.2.;.:.;.1...;.2.X.",
":X$X*X*X*X&X&X%X&X&X&X*X&X&X&X%X#X#X@X&X&X*X*X*X*X*X*X&X&X&X&X&X&X&X&X#X&X%X*X&X&X*X&X&X&X%X%X$X&X&X&X&X#X@X:X#X*X*X*X*X&X&X&X*X",
":X&X>X:X>X>X:X:X;X>X>X>X;X:X:X:X:X>X$X*X>X:X:X:X>X;X;X>X>X>X;X>X;X:X:X*X:X$X>X:X>X>X>X>X>X>X>X>X>X>X>X>X*X*X,X*X>X>X>X>X>X;X:X:X",
"=X&X*X*X*X;X*X:X*X=X=X=X:X:X;X:X;X*X$X$X*X=X=X*X;X>X*X=X*X;X;X;X;X=X:X=X:X%X*X*X*X*X*X*X;X=X;X:X>X=X>X:X>X:X:X&X=X>X*X*X*X;X;X;X",
":XXX{. X X X|..X|..X>X|. X|.|. X X X+X+X.X+X+XXXXX#X.X$X,X{./.~./././.(..X{._.|.{.].{. X X+X>X X|..X X}.{.|.$X#X.X+XXX+X.XXXXX&X",
"*X{.{.{.{.{.].{.{./.<X^././._.{.{.{.)./././././././././.2X/.Q.Q.Q.Q.Q.Q.T.Q.Q.L.u.u.T.I.u.i.<X^.'./.)./.].).(./././.]./.)././.(.",
">X.X>X>X>X*X:X:X:X%X1X*X:X>X>X>X>X>X;X:X>X>X>X>X>X,X>X#X2X%X;X>X:X:X:X>X*X;X;X;X:X;X;X;X;X%X1X*X:X:X;X;X;X>X>X>X:X:X:X:X:X:X;X#X",
":X X>X>X*X=X:X;X:X#X1X*X:X>X>X;X:X>X*X>X*X:X;X>X;X:X*X#X2X&X;X>X>X>X:X>X>X;X;X;X;X;X;X;X*X#X1X*X*X;X;X;X;X>X=X:X*X>X>X>X:X:X>X#X",
":X X|. X X X.X X X+X3XOXOX.X+X+X.XXXXX#X#X#X#X#X#X#X#X#X4X.X.X.XXXXX.X.X+X+X#X+X#X+X#X@X#X#X1X+X#X#X#X#X+X#X+X.X#X#X#X#X#X#X#X&X",
":X]././././.Q.~.Q.T.>XI.Q.T.Q.T.T.T.Q.Q.I.R.T.T.T.u.T.^.,Xe.1.1.4.2.1.4.2.3.4.2.1.;.2.1.2.0.&XQ.Q.Q.Q.Q.I.L.T.Q.Q.T.u.T.T.T.Y.].",
",X&X:X:X=X>X>X>X;X#X,X:X>X>X:X*X:X;X;X;X;X;X:X;X*X*X*X#X<X%X:X:X:X>X:X;X;X;X;X;X;X:X;X;X;X X=X>X;X;X;X;X;X:X;X;X:X;X:X*X:X;X;X#X",
":X$X=X:X:X;X:X:X:X+X>X>X>X>X:X>X>X:X:X;X:X;X*X;X>X;X;X%X>X:X:X:X>X:X:X:X;X;X;X;X;X>X>X>X>XXX*X>X>X;X;X;X;X;X;X:X:X:X:X:X>X;X;X+X",
",X X%X%X#X#X&X#X&X#X,X&X&X*X*X*X*X&X*X&X&X%X%X%X&X&X&X%X1X%X*X*X*X&X*X*X%X&X*X*X&X&X&X*X&X+X:X%X&X&X&X*X&X%X*X&X&X*X%X&X*X%X$X+X",
":X'./.].].{.{.{.{. X X X X.X.X X X X1X.X/.].[.].{.{.{.|. X.X.X.X X X X{.1X X/.'._._.].{.{.[.{. X|. X|.|.|. X2X X].].].{.{.|.[.[.",
"=X|.#XOX#X+X#X#X+X+X+XOX#X+XOXOXOXOX>XOX%X#X%X+X%X#X+X+XOX+XOXOXOXOXOXOX;XOX@XOX+X#XOXOX#X+X+X+X+X+X#X#XOX|.,X|.#X#X#X#XOX+X+X+X",
":X%X;X:X:X;X:X*X:X;X:X:X:X:X:X>X>X&X,X#X>X>X>X;X>X>X;X>X;X>X>X;X;X;X;X;X>X%X;X;X;X;X;X;X;X>X;X>X>X;X;X;X;X*X,X+X>X;X;X;X>X:X:X>X",
":X#X*X>X>X:X:X:X:X;X>X:X;X;X;X;X;X;X<X@X>X;X>X>X;X;X>X;X;X>X>X>X;X;X;X&X,X$X;X;X;X>X;X>X;X;X;X>X;X;X;X;X;X&X,X@X;X;X;X;X;X:X:X>X",
":X+X{. X.X X+X X.X+X&X XOXOX X XOXOX-X@X$X$X%X%X#X@X$X&X;X.X|.OXOX XOXOX;XOX#X+XOXOXOX@X#X%X%X.X.X XOXOX X X+X_. XOXOX|.OXOXOX%X",
"=X{././._._._._._./.=XR.~.~.~.~.~.^.~.~.~.~.~.T.W.~.I._.,XI.~././.E.^.~.^.~.~.E.`.~.T.~.T.T.%X~.~.^.~.~.~.~.~.~.W.E.T.T.I.Y.I._.",
":X%X>X:X>X:X:X:X:X#X:X;X;X>X>X>X>X>X>X>X;X;X;X>X;X>X>XOX<X;X;X;X>X:X;X;X;X;X;X;X;X;X;X;X*XOX;X>X>X>X>X>X>X;X;X;X;X;X>X>X>X;X;X%X",
":X%X=X:X:X:X:X>X>X+X;X;X:X>X>X>X>X>X>X>X>X:X;X>X;X>X;X&X<X;X>X;X;X>X>X>X;X>X>X>X>X;X;X;X;X@X:X;X:X>X>X>X>X;X;X;X>X;X;X;X>X;X>X@X",
",X+X.X#X+X+X@X+X$X+X,X%X&X%X&X&X&X#X&X%X$X$X$X%X%X#X#X#X1X%X%X&X&X&X&X&X&X&X&X&X%X%X%X#X#X$X>X$X%X&X*X&X&X$X%X%XOX%X#X%X@X+X$X$X",
":XR.T.Q.u.I.T.I.y.'.$XT.E.I.I.I.Y.I.I.I.Y.T.Q.!.Q.~.Y. X&XU.U.I.I.T.I.I.I.Q.T.T.Q.T.E.Q.I.].OXu.T.T.I.Y.I.I.I.I.T.I.I.E.I.I.U.+X",
"=X%X;X>X>X>X;X;X;X&X*X:X;X;X;X*X;X;X;X;X;X;X;X;X;X;X:X$X;X;X;X>X;X;X;X;X;X*X;X;X;X;X:X;X:X#X%X;X*X*X*X;X*X*X*X;X;X;X;X;X;X;X;X*X",
":X%X;X:X*X:X;X;X;X$X;X:X;X:X:X;X>X>X>X>X>X:X>X>X:X:X:X&X:X;X>X>X>X;X;X;X;X:X:X:X;X:X:X>X:X&X#X*X*X;X*X*X:X;X;X;X;X;X;X;X;X:X;X*X",
":XOX%X#X%X%X%X%X$X&X;X&X&X%X&X*X&X%X&X*X;X*X*X*X&X&X&X*X;X&X%X%X*X*X*X&X&X%X*X*X*X%X*X%X*X+X+X#X#X#X%X%X&X%X%X&X%X$X#X&X;X&X*X@X",
":X+XOXOX+XOX.XOXOX+X+X+X+XOX+XOX.X@X3X X X X X|.}.[. XOX@XOXOX+XOXOXOX+X1X|. X X X.XOX.X X X.X.X X X X X XOX<X{.{.[.{.|. X X|. X",
":X|.OX X XOX XOX|.|. X|.|.|.|.|.|.].1X|. XOX.X X.XOXOXOX X X X XOX|.|.'.1X]. XOXOX.X X X.X.X.X X.X X X|.{.~.<X{.OXOXOX XOX X|.|.",
";X$X>X>X>X>X>X>X>X:X:X:X:X>X>X;X;X&X2X#X;X>X>X>X>X;X;X;X:X:X:X:X;X;X;X#X2X%X:X>X:X:X:X;X;X;X:X:X:X*X>X>X*XOX1X*X>X;X;X;X;X>X>X>X",
":X#X;X;X;X:X>X>X;X:X;X;X:X;X:X;X>X$X2X#X;X;X;X;X>X:X:X:X:X:X:X;X;X;X;XOX2X$X:X;X:X:X;X:X;X:X:X:X:X>X>X>X;X@X1X%X;X;X;X;X;X>X;X:X",
":X.X X.X X.X+X+X+X$X*X#XXX+X+X+X+X+X:X].OX.XOXOX+X@X#X+X+X X.X.X.X+X.X X&X_.{. X X.X.XOX+X%X#XXX.XOX#X+X+X|.&X_.OXOXOXOX+X+X@X&X",
":X~.Q.R.~.Q.!.Q.Q.].+XT.T.Q.T.T.Q.Y.T.I.I.T.T.T.Y.Y.y.|.$XR.Q.Q.Q.R.T.T.Q.Q.Q.T.Q.Q.T.Y.y.}..XT.Y.Y.T.T.T.R.T.I.T.Y.I.T.I.u.u.+X",
":X%X;X:X>X:X>X:X>X*X*X>X>X:X:X;X*X*X>X;X;X;X:X;X;X:X;X$X:X;X;X*X*X;X;X;X;X;X;X;X;X:X;X;X;X$X%X*X:X;X*X;X;X;X;X>X>X>X;X;X;X:X;X*X",
":X%X>X;X>X:X>X>X>X&X=X>X*X:X:X>X>X;X;X;X;X;X;X;X:X:X:X&X:X;X;X:X;X;X;X;X;X;X;X;X;X;X;X;X;X#X%X;X;X;X;X;X*X;X;X;X;X;X;X;X;X:X:X*X",
":X@X+X&X%X&X#X$X&X&X=X$X%X%X#X#X+X#X#X#X#X#X%X+X#X#XOX*X-X%X%X%X%X$X$X%X#X#X#X$X#X#X$X#X#X$X&X#X$X&X%X%X#X#X#X+XOX+X#X$X#X#X#X*X",
"&Xr.u.u.Y.u.y.u.T.#X.XQ.!.Q././.Q.E.~.Q.T.!.~.~.~.~.Q.*X+XR.~./.~.~.~.^.Q.E.~.~./.~.~.~.Q.&X}.u.T.Q.R.R.~.~.R.!.~./.~.Q.T.R.T.<X",
"$X+X:X:X*X:X*X*X*X*X#X*X;X:X*X&X*X*X*X*X;X*X*X*X*X*X&X;X#X*X*X;X*X*X;X;X;X;X;X;X;X;X;X*X%X&X+X*X*X*X*X*X*X*X;X;X*X*X&X*X*X&X#X:X",
"&X%X:X:X:X:X:X:X;X*X%X:X:X:X=X;X*X;X;X;X;X>X;X:X:X;X;X;X$X;X:X;X:X:X;X;X;X;X>X;X;X;X;X;X;X*X#X=X>X:X>X>X>X;X;X;X;X;X;X;X;X;X*X:X",
"*X.X%X%X%X&X&X&X&X*X#X&X&X*X*X*X&X*X*X*X*X*X*X*X*X*X*X&X#X%X;X*X*X*X*X*X*X*X*X;X*X;X;X;X;X*XOX&X*X*X*X;X*X*X*X*X*X*X*X*X*X*X&X>X",
";X$X%X#X#X%X%X#X#X$X#X.X.X.X.X X.X$X>X[.}.{. X.X X.X X.X|.|.|.|.{. X X+X*X|.{.}. X X.X X X|. X|.{..X X|. X%X*X X{. X X X.X.X|.oX",
"@X/.|.|.{.{.{.{.{.{.{.{.{.].]._././.,X_.{.{.{.{.{.{.].{./.].{.{._._.'.].:X{.{.{.{.{.{.{.{.{.[.{.{.].]._.^.].:X[.{.{.[.|.{.{.{.{.",
"$X*X:X;X;X;X:X:X:X>X:X>X*X:X:X:X:X+X,X:X:X:X>X>X>X:X:X;X:X:X:X;X;X>X:X$X:X;X;X;X;X:X>X;X:X:X:X:X:X>X>X>X:X#X>X:X>X;X:X;X:X>X>X*X",
"#X*X;X;X;X;X;X;X:X:X:X;X;X:X:X:X;X+X:X;X>X>X>X>X>X:X=X;X*X*X*X;X;X:X;X%X=X;X;X:X>X;X;X;X;X;X:X>X>X>X:X>X:X#X>X>X>X:X>X>X;X=X>X:X",
"$X+XOX+X$X$X+X#X+X#X&X%X%X#X&X&X&X$X1X%X$X&X#X&X&X*X%X%X#X%X#X%X%X%X#X%X,X%X#X#X%X#X%X%X&X&X&X&X&X&X%X&X#XXX#X.X.XOX#X#X+X#X%X%X",
"&XI.T.I.Y.T.I.I.u..X|.u.Y.Y.u.u.I.T.I.I.u.u.T.u.Y.T.u.*X XT.u.I.T.I.Y.T.u.Y.T.Y.u.u.u.I.I.%X'.u.u.I.I.u.u.R.P.I.Q.Q.Y.I.u.Y.P.:X",
"&X%X;X;X;X;X;X*X*X$X%X:X*X*X;X;X;X;X;X;X*X*X*X*X*X*X&X*X&X;X;X:X:X:X:X*X;X;X*X;X;X;X:X:X*X&X+X*X*X*X*X;X:X:X:X:X;X*X;X;X*X*X*X:X",
"&X$X:X:X;X;X;X;X;X%X$X;X>X:X:X:X>X;X>X:X>X;X;X>X>X;X;X%X#X;X:X:X:X:X:X>X>X>X>X>X>X:X;X>X;X%X#X;X;X;X;X;X;X:X:X:X:X:X;X>X:X:X*X,X",
"&X+X&X*X&X&X&X%X%X;X#X&X#X&X%X%X%X%X%X%X&X%X%X%X&X%X%X*X$X*X%X%X*X%X%X%X%X%X%X%X%X%X%X%X#X&XOX&X&X%X%X%X%X%X%X%X%X%X%X%X%X%X#X1X",
"+Xy.T.I.T.I.T.T.T.:X[.R.~.~.~./.Q.Q.Q.Q./.~.~.^.~.~.^.2X}.^./.^.!.~.^.^.^.^._.^.~.^.^._.^.<X'././.^.~.~.!.~./.Q.^.~./.!./.~.^.3X",
" X*X;X;X*X*X*X&X&X*X.X%X%X&X%X*X%X*X%X&X&X*X%X%X%X#XOX<X+X*X%X*X*X%X%X%X%X&X%X%X%X&X&X%X+X:X+X#X%X*X*X&X*X&X%X&X&X%X%X%X%X$XOX<X",
"|.;X>X:X;X:X;X;X*X*X.X*X;X;X:X:X:X:X:X>X:X>X;X;X;X;X&X1X#X>X>X>X:X;X;X;X;X;X;X;X*X;X*X;X%X>X%X:X;X;X>X:X:X>X>X>X:X;X;X;X;X;X#X1X",
" X&X*X*X*X*X*X*X&X*XOX:X;X;X;X:X:X:X:X>X:X;X;X;X>X;X$X3XOX;X>X;X;X;X;X*X=X;X;X;X;X*X;X;X$X<X%X:X;X;X;X;X:X=X:X>X>X:X>X;X>X;X#X1X",
"*X&X%X#X#X+X+X+X+X:X$XOXOX+X+X.X.X$X*X X X.X.XOX XOX XOX]. X X X}..X.X&X&X|. X|. X}.|. X.X+X{.|. X}..X X.X$X$XXX.X.X.X X.XOX|.OX",
"]./.`./.^./.!././.^.^./.^./.~.!.Q./.&XR.^.^._.`.^./.^.^./.^./.^././.Q.[.$X~._././._.^././.^./.^.!./.~.~.Q.}..X/./././././.~.^.^.",
".X:X>X>X>X>X>X>X>X>X>X>X;X=X:X>X*X%X>X:X:X>X:X:X>X>X>X:X:X:X:X:X:X;X;X&X*X>X>X>X>X>X:X:X:X>X>X>X>X>X:X>X>X&X&X>X:X:X:X:X;X:X:X:X",
".X:X:X>X>X:X>X>X>X>X>X;X;X>X;X:X:X%X>X*X:X:X:X;X>X>X:X:X>X:X:X:X:X:X;X&X*X>X>X>X;X>X>X>X;X=X:X:X:X:X:X:X:X&X%X:X:X:X:X:X*X:X:X:X",
"OX%X&X&X*X&X*X%X*X&X$X&X&X&X&X*X*X#X&XOXOX+X#X%X#X%X&X%X%X&X&X%X&X*X&X#X#X+X#X#X#X%X+X%X%X%X#X#X#X&X&X&X&XOX.XOX+XOX#X%X#X%X#X%X",
" XP.u.P.Y.Y.T.I.u.*X].T.Q.R.Q.T.T.T.Q.Q.Q.Q.~.R.!.T.Q.2X].4.1.6.5.;.1.4.4.1.3.;.1.5.1.3.6.,XT.P.T.T.Y.Y.u.I.I.T.Q.Q.Q.Q.Q.Q.~.2X",
" X*X*X*X*X*X*X&X%X*X+X*X*X*X%X*X*X&X*X*X*X*X*X*X%X*X%X1XOX*X*X*X;X*X*X*X;X*X*X*X*X*X*X*X%X>X+X>X*X*X*X*X*X*X*X*X*X*X*X*X*X*XOX1X",
" X>X>X>X>X;X:X;X*X*X+X>X:X:X:X:X:X:X:X:X:X:X>X;X:X;X%X1X#X;X;X;X;X;X;X:X:X;X;X;X;X*X*X*X*X,X%X>X*X:X:X:X>X>X*X*X>X;X:X:X:X;X%X1X",
".X&X&X*X*X*X%X%X%X*X.X*X*X*X*X*X*X&X*X*X*X*X*X*X*X*XOX1X.X&X*X&X%X*X%X&X%X*X%X*X*X*X*X*X%X,X+X*X*X*X*X*X*X*X*X*X*X*X%X%X*X*X#X1X",
">X4X3X2X4X2X1X1X1X4X1X3X1X1X1X1X1X1X1X1X1X1X1X1X1X<X1X4X4X1X1X2X1X1X1X1X1X1X1X<X<X<X1X,X1X4X3X1X1X1X1X1X1X1X1X1X1X1X1X1X1X1X1X4X",
"u.{././.].)._.).]././.{.).]./.].].]./.).{.].{.].].].]._.'././.]././.(././././.].].].]./.).).]./.).{././.]./.].]./.)./.{.{.]././.",
"} &.&...;...1.=.&...;...1...1...;...1.;.&.#.&...&.&.&.&.&.;.1.;.&.;...1.;.&.;...;.1.....1.&.1.&.;.;.1.&.;.;.;.&.;.;.&.1.&.&.&.;."
};