/* XPM */
static char *_4c16f4587c94e4be1401f78d5cfea5bHlUG4ni5Uncf9k6i[] = {
/* columns rows colors chars-per-pixel */
"64 64 209 2 ",
"   c None",
".  c #141516",
"X  c #161718",
"o  c #161919",
"O  c #1B1C1C",
"+  c #1A1715",
"@  c #101111",
"#  c #2C1405",
"$  c #351C0D",
"%  c #391D0B",
"&  c #3A1601",
"*  c #231E1C",
"=  c #241A13",
"-  c #351E10",
";  c #280E00",
":  c #27211E",
">  c #382417",
",  c #3D200E",
"<  c #1E1F20",
"1  c #1E2021",
"2  c #222424",
"3  c #252728",
"4  c #26292A",
"5  c #292B2C",
"6  c #2C2826",
"7  c #322A26",
"8  c #352C27",
"9  c #2B2F31",
"0  c #2D3234",
"q  c #2C3436",
"w  c #333334",
"e  c #333739",
"r  c #343A3C",
"t  c #3B3C3D",
"y  c #3A3535",
"u  c #38312D",
"i  c #441A00",
"p  c #4B1D00",
"a  c #431700",
"s  c #511F00",
"d  c #4D2405",
"f  c #542200",
"g  c #5B2501",
"h  c #592A0A",
"j  c #5A3708",
"k  c #432B18",
"l  c #4C351A",
"z  c #49331B",
"x  c #55391A",
"c  c #56300D",
"v  c #612700",
"b  c #652900",
"n  c #6C2C00",
"m  c #602C0C",
"M  c #683704",
"N  c #743300",
"B  c #7C3B01",
"V  c #743C09",
"C  c #773902",
"Z  c #6D340A",
"A  c #483526",
"S  c #543B24",
"D  c #463C37",
"F  c #453426",
"G  c #7C4500",
"H  c #774404",
"J  c #6F430D",
"K  c #5D422C",
"L  c #564334",
"P  c #62442C",
"I  c #644839",
"U  c #69513C",
"Y  c #5E431E",
"T  c #3C3E41",
"R  c #373E41",
"E  c #413F40",
"W  c #3D4244",
"Q  c #3D464A",
"!  c #434445",
"~  c #444749",
"^  c #454A4C",
"/  c #4A4C4D",
"(  c #4A4646",
")  c #534B49",
"_  c #454E51",
"`  c #4C4F51",
"'  c #465255",
"]  c #4D5253",
"[  c #4C5559",
"{  c #4D595D",
"}  c #525455",
"|  c #545659",
" . c #555A5B",
".. c #5A5C5D",
"X. c #575757",
"o. c #53504F",
"O. c #615D5D",
"+. c #6A5858",
"@. c #6F594F",
"#. c #5A605F",
"$. c #71615C",
"%. c #545E61",
"&. c #5C5F61",
"*. c #4F5C61",
"=. c #615F60",
"-. c #546165",
";. c #5D6263",
":. c #5B666A",
">. c #5C696D",
",. c #576469",
"<. c #5D6C70",
"1. c #626466",
"2. c #626867",
"3. c #646769",
"4. c #666A6B",
"5. c #6A6C6E",
"6. c #686768",
"7. c #69706F",
"8. c #646E71",
"9. c #6C6E71",
"0. c #6D7173",
"q. c #6E7578",
"w. c #6A7575",
"e. c #717576",
"r. c #727877",
"t. c #727679",
"y. c #757B7B",
"u. c #797D7E",
"i. c #797977",
"p. c #70706E",
"a. c #833E00",
"s. c #844200",
"d. c #8B4400",
"f. c #844B00",
"g. c #884B04",
"h. c #954A01",
"j. c #9B4E00",
"k. c #914600",
"l. c #8D5301",
"z. c #875102",
"x. c #915600",
"c. c #945A01",
"v. c #9A5E00",
"b. c #9D5100",
"n. c #97551C",
"m. c #A45400",
"M. c #AE5D00",
"N. c #AD5D00",
"B. c #A75800",
"V. c #B05E00",
"C. c #A04F01",
"Z. c #9D6100",
"A. c #A36600",
"S. c #A76901",
"D. c #AB6C00",
"F. c #AF6000",
"G. c #B26001",
"H. c #AE7000",
"J. c #895932",
"K. c #88562C",
"L. c #7A807F",
"P. c #77807F",
"I. c #7B7F80",
"U. c #747E81",
"Y. c #768182",
"T. c #7D8383",
"R. c #7F8887",
"E. c #7E8989",
"W. c #7A8789",
"Q. c #818686",
"!. c #818887",
"~. c #838788",
"^. c #838A8A",
"/. c #898D8E",
"(. c #86908F",
"). c #8A908F",
"_. c #8C8F91",
"`. c #878E90",
"'. c #869191",
"]. c #8D9292",
"[. c #8D9896",
"{. c #919496",
"}. c #929897",
"|. c #949799",
" X c #959A9A",
".X c #9A9D9D",
"XX c #9AA09F",
"oX c #97A19F",
"OX c #9D9EA1",
"+X c #9EA1A2",
"@X c #9DA6A6",
"#X c #A2A4A6",
"$X c #A2A8A7",
"%X c #A5A7A9",
"&X c #A6A9AA",
"*X c #AAACAD",
"=X c #AAB0AF",
"-X c #A7B0AE",
";X c #AEAFB1",
":X c #AFB0B2",
">X c #B0B1B3",
",X c #B3B8B7",
"<X c #B6BBBA",
"1X c #B9BEBD",
"2X c #BBC0BF",
"3X c #BEC3C1",
"4X c #C3C7C6",
"5X c #C3C8C7",
"6X c #C4C9C8",
/* pixels */
"$X X X{.{.|..X.XOX.X.X.XOX.X.X.X.XOX{.).{.{. X{..X.X.XXX X.X.X.X#XOXOX.X}.~.|..X.X|..XOXOX.XXX.XOX.X.X.X.X|.|./.|.|..X X.XOXOX#X",
"*X/.>X:X:X:X>X>X>X>X>X>X>X:X;X;X;X;X~.Q.:X;X>X:X:X;X>X>X>X>X>X>X;X>X:X:XQ.Q.>X>X;X;X;X:X:X:X;X;X:X:X;X:X;X*XQ.Q.:X>X;X:X:X:X;X;X",
"&X^.*X*X;X*X>X:X:X:X>X:X:X:X;X;X;X:XQ.Q.*X;X*X;X;X;X;X;X;X>X;X:X>X>X>X;XQ.Q.>X;X;X;X;X;X;X;X*X*X*X*X*X*X*X;XQ.Q.:X:X;X;X;X;X;X;X",
"$XT.&X&X*X&X*X*X*X&X*X*X*X*X;X*X;X;XQ.Q.*X*X*X*X*X*X*X*X*X*X*X*X*X*X;X;XQ.L.*X*X*X*X*X*X*X*X*X*X*X*X*X*X*X&X^.t.*X*X*X%X*X;X%X*X",
"#X/.9.9.6.6.5.3.1.6.I.&.4.3.4.6.6.1.Q./.5.#.1.....=.&.3.Q.&.5.4.9.3.4.5.~.I.&.3.....1.&.....I.X.6...5.1.1.2.).I.=.9.=.&.3.8.3.4.",
"&XQ.;X;X:X:X:X;X>X*XT..X;X>X>X>X:X:X:X*X:X*X;X;X>X>X>X|.#X{.:X:X;X>X>X>X>X>X>X>X>X>X>X>X:X#XQ.&X>X:X:X:X:X>X>X>X>X;X;X>X;X;X;X{.",
"$XQ.;X;X;X;X:X;X:X%XT..X;X;X;X;X;X:X;X>X*X>X>X>X>X>X>X|.OX{.>X:X;X;X>X>X>X>X>X>X>X>X>X>X>XOXu.*X>X>X:X:X;X:X;X;X>X>X>X;X;X;X>X/.",
"&XQ.;X;X;X:X;X:X:X%Xu.OX;X;X;X;X;X:X:X>X>X;X>X>X>X>X>X|..X|.>X:X:X>X;X>X;X>X>X>X>X>X>X>X>XOXQ.*X>X:X:X:X;X>X;X;X>X;X;X>X;X;X;X/.",
"&Xr.r.e.r.e.r.e.t.e./.5.u.i.i.i.u.u.u.u.u.T.T.u.T.I.I.e.*X9.t.t.i.i.i.i.i.i.t.u.u.u.i.u.I.p._.i.I.L.L.i.u.u.T.u.u.u.i.u.u.I.u.9.",
"&X/.;X;X;X;X*X;X*X~.{.%X*X*X%X*X*X*X*X%X&X*X%X%X%X%X%X~.#X%X;X*X*X*X*X%X%X%X;X&X*X%X%X%X%X~.{.*X*X*X*X&X*X%X%X%X%X%X%X%X%X%X%XQ.",
"&XI.:X:X:X:X;X>X:X/./.;X;X;X;X;X;X;X;X;X;X;X;X:X:X:X:X^..X&X;X;X>X;X>X:X:X:X:X;X:X;X;X;X*X/.~.;X>X>X;X;X;X;X;X:X:X:X*X:X;X*X:XQ.",
"&XQ.>X:X:X:X;X;X;X~.{.;X;X;X;X;X;X:X:X:X:X:X:X:X:X:X:X/. X;X;X;X;X>X;X:X:X:X:X:X;X;X;X*X*X/./.;X>X;X>X;X;X;X:X:X>X:X:X;X:X>X>XQ.",
"$Xr.Q.~./.^.^.~.Q.5.{././._._._./._.{.{.{.{.{.|.{.{.{.t.OX~._././._._._.]._.{.{.{.|.|.{.{.t._./.~././._./._././.]._.{.{.{.|.{.r.",
"$X'.OX.X.X.X.X.X.X.X#X{.^./.~.Q././.].i.r.p.u.i.t.I.I.~.%X_./.^./.Q././.{.e.e.9.I.I.i.i.I.I.#X{._.{././././. X5.e.t.r.u.i.t.i./.",
"&Xu.>X>X>X>X>X>X>X>X>X:X:X:X:X:X:X;Xu.I.>X:X:X>X;X;X;X;X;X;X;X;X:X;X;X*XT.I.:X:X:X:X:X:X:X:X;X;X;X;X;X;X;X*XT./.;X:X:X;X;X>X>X:X",
"#XT.>X>X>X>X>X:X;X;X;X;X:X;X:X;X;X;XQ.I.>X:X:X>X;X>X;X:X;X;X;X;X:X;X:X;XQ.Q.:X;X:X:X;X;X;X:X;X;X;X;X;X;X*X%X~.~.:X;X*X>X;X;X;X;X",
"$Xy.:X>X:X>X>X>X:X:X:X:X=X>X>X>X>X;X~.I.>X>X;X:X:X>X*X>X>X>X>X;X>X;X;X;XT.~.>X:X;X>X>X;X;X;X;X;X;X;X;X;X;X*X~.^.:X:X:X>X;X;X;X;X",
"$Xt.1.4.1.&.1...6.1.r.1.6.5.5.4.3.3.].9. .%.&.;.X.1.5.4.Y.5.5.4.5.5.0.9.{.=.&...1.;.&.=.&.;.t.3.6.6.4.9.4.3.~.;. ... .&.| &.;.1.",
"&X/.>X;X;X:X;X:X:X{./.*X;X=X>X;X;X;X;X;X;X;X;X*X*X*X;X/..X$X*X;X;X>X;X;X;X>X;X:X*X*X=X;X*X_./.;X;X;X;X;X;X;X;X:X;X;X;X*X;X*X;X/.",
"&X~.:X;X:X:X;X=X:X{.).;X:X:X:X;X;X;X;X;X;X;X;X:X>X:X*X/.XX*X:X;X;X;X;X>X>X>X>X:X>X;X;X>X*X~./.;X;X;X;X;X;X>X>X:X>X:X:X;X;X:X;XQ.",
":XT.:X;X:X:X:X>X>X/./.;X;X;X;X;X;X;X;X;X>X;X;X;X*X*X;X^..X*X;X;X;X;X>X>X:X>X>X:X;X;X;X;X:X/.~.:X;X;X:X>X>X;X>X:X:X>X>X>X>X;X;X/.",
";X0.y.i.y.r.t.t.y.9./.u.Q.Q.T.T.T.~.T.I.~.~.~././.^./.u..Xy.0.t.e.e.e.t.i.u.i.i.y.u.y.I.i.9./.T.~.Q.~.T.T.T.I.Q.Q.~.~.~.~././.q.",
"$XQ.*X*X*X*X*X*X&X/.}.OXOXOXOX|..X|.OX.XOX|..X X|.|.{./.].+X+XOXOX.X.X.X|. X.X X X{. X|.{.~.|.#XOXOXOXOX.XOXOXOX.XOX X X.X|.|.`.",
"#XQ.:X;X;X;X;X*X*XQ./.;X;X;X;X>X>X;X>X>X;X>X>X>X;X;X;Xy._.;X:X:X:X:X:X:X:X>X:X>X:X:X:X:X>X~._.>X>X;X;X:X:X:X>X:X:X:X:X;X;X;X;XQ.",
"+X/.*X;X;X;X:X:X;X/./.*X*X;X:X;X>X;X;X;X>X>X;X;X;X;X;XT._.;X:X:X:X;X>X:X;X:X:X>X>X:X:X:X:XQ.~.;X>X>X>X>X;X>X>X>X:X:X:X;X;X;X;X~.",
"+Xr./././.{./././.0./.{. X|.|.|.|..XOX|..X|.OXOXOXOXOXu./.|. X.X|.|.|. X X.X.X.XOXOXOXOXOXu.I.|.|.|.{.|.|. X X.X.XOXOXOX.XOX XQ.",
"$X[.{.].].].]._./. X.Xu.T.Q.T.I.i.U._.9.5.0.e.e.9.9.0.I.~.5.1.3.6.9.9.0./.4.0.e.t.t.9.0.i.9.t.=.9.9.e.9.e.9._.9.0.0.t.0.i.0.9.Q.",
".X].>X:X>X>X*X;X;X;X;X>X;X*X;X>X;X+X~.{.;X;X;X;X;X;X;X;X;X:X:X:X:X;X:X+X{. X;X;X;X:X:X;X:X;X;X;X;X;X;X;X;X.X|..X;X:X:X:X;X>X:X;X",
" X{.>X:X:X:X:X;X:X:X:X;X;X;X:X>X>X%X~.{.*X;X;X;X;X;X:X;X:X>X:X>X>X;X;XOX].OX>X:X:X:X:X:X:X:X:X:X;X:X:X:X:X|..X.X;X;X;X;X;X;X;X;X",
"|.{.>X>X:X:X;X:X:X:X:X:X:X:X>X:X>X+X/.{.;X;X>X;X;X:X;X>X:X:X>X;X;X;X;XOX{.OX;X>X>X>X:X:X:X:X:X:X;X:X;X:X:X X X.X;X*X;X;X;X>X>X;X",
"+X5.5.1.9.p.9.5.p.e.r.e.0.0.t.9.e.0..X&.1.6.4.3.4.3.5.t.i.p.t.e.e.e.q.&.OX=.3.6.5.5.5.4.p.e.i.e.e.p.e.e.p.1..X..] } } } | o.} 3.",
"&X~.;X;X;X:X;X*X;X/.{.%X*X;X%X%X*X%X;X%X&X%X%X&X&X%X%X/.{.*X;X;X;X;X*X*X*X;X;X*X*X*X*X%X%X~._.*X%X*X%X*X%X*X*X*X*X%X%X%X%X%X%X_.",
"#X~.:X:X>X>X>X;X:XI./.;X;X;X;X:X;X;X:X;X;X;X;X;X;X;X;XT.`.;X:X;X;X>X;X>X>X>X>X:X>X>X>X;X>X~.~.;X;X*X:X:X;X>X>X;X:X:X;X;X;X;X>X/.",
"@XQ.;X:X:X:X:X;X;XQ./.;X;X;X;X:X:X;X;X;X;X;X;X:X:X:X>X~.^.:X;X;X>X;X;X>X;X;X;X:X:X:X:X;X;X~.~.;X;X;X;X:X:X;X;X;X;X;X:X;X;X>X>X/.",
".X9.Q.Q.Q.~.~.Q.~.0./.~._.~._._._._.{._.{.{.{.|.|.|.|.t./.~.~.~.~.~._././._._.{.{.{._.{._.e.i.~.Q.~./.~./._._._._._._.{.{.{.|.Q.",
"/. X%X&X#X#X+XOX.X~.]._._.{.{.{._._././.{.`.{._._._.{./.{.{.{.{._._._.|._._.{._._._././._.`.~._._./.~./._.~.~.~.~.~.~.~.T.Q.Q.{.",
"/..X;X;X;X;X;X;X:XQ.Q.:X:X:X:X;X>X>X;X;X;X;X>X:X:X;X;X~.^.;X;X;X;X;X;X;X;X;X>X;X;X:X;X;X;X/.i.>X;X;X;X:X>X;X;X>X;X;X;X>X:X>X;X_.",
"Q.OX;X;X*X;X*X*X;X/./.:X:X:X:X;X;X;X;X;X;X;X;X;X;X;X;X^.~.;X;X>X>X;X;X>X;X;X>X;X;X;X;X;X;X_.I.:X;X;X;X;X:X;X;X;X:X;X;X;X;X;X>X`.",
"E./.|.].|.|.|. X|.Q.u.%X%X#X#X#X%X%X$X#X#X#X%X%X%X%X&X~.y.OXOXOXOXOX#X%X&X%X#X%X%X%X%X%X%X~.i.@X#X#X#X#X%X%X%X%X%X%X%X%X%X%X%X~.",
"+X/./.^.~./.Q.Q.u. X/.e.t.t.i.t.e.y.!.0.4.4.8.4.3.&.&.u.9.&. .&.&.3.3.q.I.4.8.3.3.9.3.3.&.9.:.} ;.;.1.4.4.r.R.1.4.9.4.4.4.4.3.q.",
"T.#X;X:X:X:X>X;X;X;X>X>X:X:X:X>X;X{..X%X;X;X;X:X*X;X;X>X>X>X>X;X;X;X;X{.{.*X;X;X;X;X;X;X;X;X;X>X:X:X:X;X;X/./.;X>X:X;X>X;X>X;X>X",
"I.#X;X:X:X;X;X>X>X;X>X:X:X>X;X>X;X_. X%X;X;X;X:X:X;X:X;X>X:X;X>X;X;X>X_.`.%X;X;X;X;X;X;X;X;X;X;X;X;X;X;X;XQ./.;X>X>X:X;X>X;X;X;X",
"Q.%X:X:X:X>X>X>X>X>X>X>X>X:X>X>X;X{.|.*X:X;X;X:X*X;X;X:X;X:X;X>X;X;X;X/./.*X>X:X;X;X;X;X;X;X;X*X:X;X*X;X;X~./.;X>X>X:X:X:X>X>X>X",
"^.6.t.i.t.t.t.t.t.i.t.t.i.i.u.i.t.5.{.5.0.e.e.e.e.r.r.u.y.u.t.i.t.I.i.9.~.3.=.2.1.1.1...;.1.5.4.6.5.4.5.5.5.T.9.e.e.9.9.9.e.9.e.",
"/.|.&X&X&X&X&X&X#X~./.OXOXOXOXOXOXOXOX|.OX.X.X|.|.|.{._./.%X%X+X%X%X+X#X#XOXOXOX#XOX.XOX.X{./.+X+XOX.XOXOXOXOXOXOX.X|.|.OX|.|.{.",
"/.+X:X;X>X>X>X>X;X~.~.>X>X>X>X>X;X>X;X>X;X;X;X;X;X;X;X~./.>X>X:X>X>X>X>X>X>X>X>X>X>X>X:X;X/.~.>X>X>X;X>X;X>X>X;X;X;X;X>X>X>X;XQ.",
"Q.OX>X>X>X;X;X;X;X/.Q.>X>X;X;X;X;X;X;X;X>X;X;X:X;X:X>XQ.~.>X:X>X>X:X:X>X>X;X;X:X:X>X>X;X;X`.I.>X;X;X;X;X;X;X>X;X;X;X;X;X>X>X;X~.",
"T.Q.]._._._.]._._.I.u.|.|.OXOXOX.X.XOXOX.XOXOXOXOXOXOXQ.I.{.|.{.{.|.|.|.|.|.OX XOX XOXOX.X~.I..X.X.X.X.XOXOXOXOX.XOXOXOXOXOXOX/.",
"R. XOX|.|.{.{._.`./.T././.~./.~.~.~.~.~.~.~.~.~.~.~.~.|.~.I.I.e.i.i.t.i.i.t.e.t.i.e.0.t.i.{.i.~.~.~.~.~.~.Q.~.~.~.I.~.~.Q.Q.u._.",
"4.;X:X:X;X;X;X;X;XI.Q.>X>X;X>X>X>X;X>X;X;X>X>X:X:X>X>X|.I.;X;X;X;X;X;X;X;X>X;X:X>X>X;X;X;X~.Q.>X;X;X>X>X>X>X>X;X;X>X;X;X:X;X%Xu.",
"4.;X:X:X;X;X;X:X;X~.Q.>X>X>X>X>X>X>X;X>X;X>X>X;X;X>X;X{.Q.;X>X>X;X;X;X;X;X>X;X:X:X>X:X;X;XQ.Q.>X>X;X;X>X>X;X;X;X;X;X;X>X>X:X%XQ.",
"4.|.OXOXOXOX+X%X+XQ.~.*X*X*X*X*X;X*X;X*X*X*X;X;X;X;X*X XI.;X;X;X*X*X;X>X;X*X;X;X;X;X;X;X%XQ.~.*X*X*X*X*X*X*X*X;X*X;X;X;X;X*X%Xu.",
"{.Q.T.Q.L.I.u.I.i.OXu.e.9.i.p.0.0.e.i.&.&.| ..X.=.=.X. XT.e.0.y.0.0.e.t.y...X.} ..3.X.X.O.|.u.t.e.e.0.0.5.t.t.........=.&...1.OX",
"=.*X*X;X>X;X;X;X;X;X;X;X;X;X*X;X;XQ.~.>X>X>X;X>X;X;X;X;X>X;X*X*X;X;X;XQ.R.:X:X:X:X:X:X;X;X;X;X;X;X;X;X;X;X~.~.>X>X>X;X:X:X:X>X>X",
"1.;X>X;X>X>X;X;X;X;X;X>X>X>X>X;X;X~._.>X>X;X;X;X;X;X;X:X;X;X;X;X;X*X>XQ./.>X:X:X;X;X;X;X;X;X>X;X;X;X;X*X;X~./.>X>X;X>X:X:X:X>X>X",
"..*X;X;X;X;X;X>X;X>X;X>X>X>X>X;X;XI./.>X>X;X;X;X*X;X;X;X;X;X;X;X*X;X;X~./.>X*X;X;X;X;X;X;X>X>X;X;X>X;X;X;XQ._.;X;X;X>X:X:X:X:X>X",
";.u.P.T.I.Q.I.I.I.T.I.~.Q.Q.I.I.I.5./.I.T.T.Q.T.I.Q.Q.I.I.I.T.T.Q.Q.I.5./.u.y.I.I.Q.I.I.I.Q.I.I.~.I.~.~.Q.9.I.I.i.I.I.I.Q.T.Q.Q.",
"/. X.X.X|..X_.|._.~.~._._.~._.{._./.~.~.~./.I.~.T.T.i.|.T.{._.{.|.|.{.{./././._.~.T.Q.Q.I._.i.{./.{./._./._._.u.~.~.~.I.I.~.u._.",
"9.*X>X;X;X>X>X;X;X~.~.>X;X;X>X>X>X>X;X;X>X>X>X>X;X;X*X_.~.>X>X:X;X:X:X;X:X;X;X;X>X;X;X;X;X~.I.>X>X>X;X>X>X>X>X>X>X>X>X>X>X;X%Xu.",
"0.*X;X;X;X;X*X>X>X~./.;X>X>X;X>X>X;X;X;X;X>X;X>X;X*X*X{.I.:X:X:X;X:X:X>X;X:X=X>X;X;X;X>X;XI.Q.;X;X;X>X;X;X>X;X;X>X>X;X;X;X;X%XI.",
"9. XXX.X#XOX+X#X+XL.u.#X#X#X$X%X%X%X%X$X%X%X%X%X%X%X#X Xi.#X+X#X+X#X#X#X#X%X%X%X%X#X%X%X#XT.u.#X#X#X#X%X%X%X%X%X%X%X%X&X%X&X#XQ.",
"}.XX X X X.X XXX|.>XXX].{.{.{.).{.].{.].].{.]._.].].).,XXX[.{.}.}.{.{.[.].].{._./.{.}.|.{.:X}.}.}.|.}.].{.{.{.{.{.]./.(.)._.).,X",
"u.^.(./.(.(.^.^.(.^.^.^./.^.(.(.(.(./.^./.(.^.!.^.(.(.(.(._.^.(./.^.^././.!.^./.(././.(.(.^.^.(.(.^.^.(.(./.^.(./.(.^./.^.(././.",
"..q.7.7.7.7.w.7.e.7.e.w.7.7.7.7.7.7.w.7.7.e.7.q.7.e.7.w.0.0.0.7.r.7.7.2.0.7.w.e.5.w.7.p.p.7.w.e.2.e.r.7.7.7.w.7.w.7.w.7.7.7.7.7."
};