/* XPM */
static char *_b74c69ed7bd4fdfdabefc4f40390fa2kZGhct0C3HZo30ur[] = {
/* columns rows colors chars-per-pixel */
"64 64 85 1 ",
"  c #0E071B",
". c #110C21",
"X c #141027",
"o c #151128",
"O c #17152C",
"+ c #18162E",
"@ c #1A1932",
"# c #1B1A33",
"$ c #1C1B35",
"% c #1E1D36",
"& c #1E1F39",
"* c #1F203A",
"= c #22223D",
"- c #222440",
"; c #232541",
": c #242641",
"> c #262A47",
", c #282A45",
"< c #282B48",
"1 c #2A2F4E",
"2 c #2E314B",
"3 c #2C314F",
"4 c #323248",
"5 c #2E3350",
"6 c #313551",
"7 c #303656",
"8 c #373C59",
"9 c #363E5E",
"0 c #3C415B",
"q c #39405F",
"w c #3C4566",
"e c #3F4767",
"r c #404662",
"t c #444C69",
"y c #424C6E",
"u c #454F6F",
"i c #4B526C",
"p c #50546A",
"a c #485170",
"s c #4A5371",
"d c #4B5677",
"f c #4E5878",
"g c #535970",
"h c #565D76",
"j c #505A79",
"k c #535D7A",
"l c #5A637D",
"z c #546080",
"x c #566181",
"c c #566281",
"v c #596482",
"b c #5E6884",
"n c #5C6989",
"m c #5F6B8A",
"M c #626E8B",
"N c #646F8C",
"B c #6B748D",
"V c #69748E",
"C c #657392",
"Z c #687593",
"A c #6A7794",
"S c #6D7995",
"D c #717B92",
"F c #797F96",
"G c #707F9C",
"H c #73809D",
"J c #77829D",
"K c #78859E",
"L c #7C8AA6",
"P c #7E8CA6",
"I c #808CA6",
"U c #858EA6",
"Y c #8796AF",
"T c #8996AF",
"R c #8D97AF",
"E c #92A1B9",
"W c #94A1B8",
"Q c #96A1B8",
"! c #99A3B8",
"~ c #9FADC2",
"^ c #A1ADC1",
"/ c #ADB8CB",
"( c #AFB8CA",
") c #BAC4D4",
"_ c #C7CFDD",
/* pixels */
"                                                                ",
"X+$$$+XXXXXXX+$$$@$$@->-$$$=,,,,,=$$$+XXo.X@$@$$$$$$$=,=$=,,,&XX",
"@-111-@@@@@@@-11111119y91119yyyyy9111-@@@@@-1111111119y919yyy5@@",
"@-111>-&@@@&->11111117971117999997111<-&@&->11111111179717999<@@",
"@-11111-@@@-111111111111111111111111111-@-1111111111111111111-@@",
"@-11111-@@@-111111111111111111111111111>->1111111111111111111-@@",
"@-11111-@@@-1111111111111111111111111111111111111111111111111-@@",
"@-11111-@&->1111111111111111111111111111111111111111111111111-@@",
"@-11111-@-111111111111111111111111111111111111111111111111111-@@",
"@-11111>->11111111111111111111111111111>->1111111111111111111-@@",
"@-1111111111111111111111111111111111111-@-1111111111111111111-@@",
"@-11111>->11111111111111111111111111111-@-1111111111111111111-@@",
"@-11111-@-11111111111111111111111111111-@-1111111111111111111-@@",
"@-111>-&@&->1111111111111111111111111>-&@&->11111111111111111-@@",
"@-111-@@@@@-1111111111111111111111111-@@@@@-11111111111111111=@@",
"o@---&@@@@@&-------------------------&@@@@@&-----------------$XX",
" X@@@@@@@@@@@@@@@@@@@@@@@@@@@@@@@@@@@@@@@@@@@@@@@@@@@@@@@@@@@X  ",
"o@-<555<---<5<-------&@@@@@&-----------<5<---<55555<---&@@@@@OXX",
"@-19yyy91159y91111111-@@@@@-111111111119y91119yyyyy9111-@@@@@@@@",
"@-1799971115971111111<-&@&->111111111117971155999997111<-&@&-&@@",
"@-111111111111111111111-@-1111111111111111111111111111111-@-1-@@",
"@-111111111111111111111>->1111111111111111111111111111111>-<1-@@",
"@-11111111111111111111111111111111111111111111111111111111111-@@",
"@-111111111111111111111>->11111111111111111111111111111111111-@@",
"@-111111111111111111111-@-11111111111111111111111111111111111-@@",
"@-1111111111111111111>-&@-11111111111111111111111111111111111-@@",
"@-1111111111111111111-@@@-11111111111111111111111111111111111-@@",
"@-1111111111111111111-@@@-1111111111111111111111111111111>->1-@@",
"@-1111111111111111111-@@@-1111111111111111111111111111111-@-1-@@",
"@-11111111111111111>-&@@@&->111111111111111111111111111<-&@&-&@<",
"@-31111111111111111-@@@@@@@-111111111111111111111111111-@@@@@@@r",
"X@-----------------&@@@@@@@&---------------------------&@@@@@Oo2",
" X@@@@@@@@@@@@@@@@$&@@@@@@@@@@@@@@@@@@@@@@@@@@@@@@@@@@@@@@@@@X $",
"X@-------&@@@@@&-<555<---<5<-----------&@@@@@@@&---<51-<5551-@o&",
"$-1111111-@@@@@-19eye91159y911111111111-@@@@@@@-1119e919eyy91-@-",
"@-1111111>-&@&->17999711559511111111111<-&@@@&->1117971799971-@-",
"@-111111111-@-111111111111111111111111111-@@@-111111111111111-@-",
"@-111111111-@-111111111111111111111111111>-&@-111111111111111-@-",
"@-111111111-@-11111111111111111111111111111-@-111111111111111-@-",
"@-111111111-@-11111111111111111111111111111>->111111111111111-@-",
"@-111111111-@-11111111111111111111111111111111111111111111111-@-",
"@-111111111-@-11111111111111111111111111111111111111111111111-@-",
"@-111111111-@-11111111111111111111111111111111111111111111111-@-",
"@-111111111-@-11111111111111111111111111111>->111111111111111-@-",
"@-111111111-@-11111111111111111111111111111-@-111111111111111-@-",
"@-1111111>-&@&->1111111111111111111111111>-&@&->1111111111111-@-",
"@-1111111-@@@@@-1111111111111111111111111-@@@@@-1111111111113-@-",
"X@-------&@@@@@&-------------------------&@@@@@&-------------@o&",
" X$@$$@@@@@@@@@@@@@@@@@@@@@@@@@@@@@@@@@@@@@@@@@@@@@@@@@@@@@@@o &",
"X@-<575<-<5>-------------&@@@@@&---<55555<-<5<-----------&@@@. $",
"@-19eew919e91111111111111-@@@@@-1119yyyyy919y911111111111-@@@X $",
"@-5599w717w71111111111111<-&@&->1117999997179711111111111<-&@X $",
"@-1111111111111111111111111-@-11111111111111111111111111111-@X $",
"@-1111111111111111111111111<->11111111111111111111111111111-@OX&",
"@-111111111111111111111111111111111111111111111111111111111-@@@-",
"@-111111111111111111111111111111111111111111111111111111111<-&@-",
"@-11111111111111111111111111111111111111111111111111111111111-@-",
"@-1111111111111111111111111<-<1111111111111111111111111111111-@-",
"@-1111111111111111111111111-@-1111111111111111111111111111111-@-",
"@-1111111111111111111111111-@&-<111111111111111111111111111<-&@-",
"@-1111111111111111111311151-@@@-111111111111111511111111111-@$@-",
"@&-------------------===@@$Ooo.@$*-----------------------&$+.oX&",
"@@@@@@@@@@+$$$@@@@@@@@$X         o@@@@@@@@@@+@@@@@@@@@@@$X     $",
"XXXXXXXXXXXXXoo5hhhhhhhgppiippppighhhhhhhhhhhhh5XXXXXXXXX.     X"
};