/* XPM */
static char *f18ba3fea5ef4283d510bb3b4327f9d67RIRT1EjWEggLRXo[] = {
/* columns rows colors chars-per-pixel */
"64 64 7 1 ",
"  c #0E071B",
". c #1A1932",
"X c #2A2F4E",
"o c #424C6E",
"O c #657392",
"+ c #92A1B9",
"@ c #C7CFDD",
/* pixels */
"@@@@@@@@@@@@@+O+@@@@@@@@@@@@+O+@@@@@@@@@@@@@@+O+@@@@@@@@@@@@+O+@",
"@@@@@@@@@@@@@@+@@@@@@@@@@@@@@+@@@@@@@@@@@@@@@@+@@@@@@@@@@@@@@+@@",
"@@@@@@+@@++@@@+@@@@@@@@@@@@@@+@@@@@@@@+@@++@@@+@@@@@@@@@@@@@@+@@",
"@@@@@@@@@@@@@@+@@@++@@+@@@@@@+@@@@@@@@@@@@@@@@+@@@++@@+@@@@@@+@@",
"++@@@@@@@@@@@@+@@@@@@@@@@@@@@+@@++@@@@@@@@@@@@+@@@@@@@@@@@@@@+@@",
"@@@@@@@@@@@@@@+@@@@@@@@@@@@@@+@@@@@@@@@@@@@@@@+@@@@@@@@@@@@@@+@@",
"@@@@@@@@@@@@@+O+@@@@@@@@@@@@+O+@@@@@@@@@@@@@@+O+@@@@@@@@@@@@+O+@",
"+++++OO++++++OO+++++++OO++++OO+++++++OO++++++OO+++++++OO++++OO++",
"@@@@+O+@@@@@@@@@@@@@@+O+@@@@@@@@@@@@+O+@@@@@@@@@@@@@@+O+@@@@@@@@",
"@@@@@+@@@@@@@@@@@@@@@@+@@@@@@@@@@@@@@+@@@@@@@@@@@@@@@@+@@@@@@@@@",
"@@@@@+@@@@@@@+@@+++@@@+@@@@@@@@@@@@@@+@@@@@@@+@@+++@@@+@@@@@@@@@",
"@@@@@+@@@@@@@@@@@@@@@@+@@@++@@+@@@@@@+@@@@@@@@@@@@@@@@+@@@++@@+@",
"@@@@@+@@@+@@@@@@@@@@@@+@@@@@@@@@@@@@@+@@@+@@@@@@@@@@@@+@@@@@@@@@",
"@@@@+O+@@@@@@@@@@@@@@+O+@@@@@@@@@@@@+O+@@@@@@@@@@@@@@+O+@@@@@@@@",
"++++OO+++++++OO++++++OO++++++OO+++++OO+++++++OO++++++OO++++++OO+",
"@@@@@@@@@@@@+O+@@@@@@@@@@@@@@+O+@@@@@@@@@@@@+O+@@@@@@@@@@@@@@+O+",
"@@@@@@@@@@@@@+@@@@@@@@@@@@@@@@+@@@@@@@@@@@@@@+@@@@@@@@@@@@@@@@+@",
"@@@@@@@@@@@@@+@@@+++@@+@@@@@@@+@@@@@@@@@@@@@@+@@@+++@@+@@@@@@@+@",
"@++@@+@@@@@@@+@@@@@@@@@@@@@@@@+@@@@@@@@@@@@@@+@@@@@@@@@@@@@@@@+@",
"@@@@@@@@++@@@+@@@@@@@@@@@@@@@@+@@@@@@+@@++@@@+@@@@@@@@@@@@@@@@+@",
"@@@@@@@@@@@@@+@@@@@@@@@@@++@@@+@@@@@@@@@@@@@@+@@@@@@@@@@@++@@@+@",
"@@@@@@@@@@@@@+@@@@@@@@@@@@@@@@+@@@@@@@@@@@@@@+@@@@@@@@@@@@@@@@+@",
"@@@@@@@@@@@@+O+@@@@@@@@@@@@@@+O+@@@@@@@@@@@@+O+@@@@@@@@@@@@@@+O+",
"++++OO++++++OO++++++OO++++++++OO++++OO++++++OO++++++OO++++++++OO",
"@@@+O+@@@@@@@@@@@@@@+O+@@@@@@@@@@@@+O+@@@@@@@@@@@@@@+O+@@@@@@@@@",
"@@@@+@@@+@@@@@@@@@@@@+@@@@@@@@@@@@@@+@@@+@@@@@@@@@@@@+@@@@@@@@@@",
"@@@@+@@@@@@@@@@@@@@@@+@@@@+@++@@+@@@+@@@@@@@@@@@@@@@@+@@@@+@++@@",
"@@@@+@@@@@@@@@@@@@@@@+@@@@@@@@@@@@@@+@@@@@@@@@@@@@@@@+@@@@@@@@@@",
"@@@@+@@@@@@@++@@+@@@@+@@@@@@@@@@@@@@+@@@@@@@++@@+@@@@+@@@@@@@@@@",
"@+@@+@@@@@@@@@@@@@@@@+@@@@@@@@@@@@@@+@@@@@@@@@@@@@@@@+@@@@@@@@@@",
"@@@+O+@@@@@@@@@@@@@@+O+@@@@@@@@@@@@+O+@@@@@@@@@@@@@@+O+@@@@@@@@@",
"++++OO++++++++OO+++++OO++++++OO+++++OO++++++++OO+++++OO++++++OOo",
"@@@@@@@@@@@@@+O+@@@@@@@@@@@@+O+@@@@@@@@@@@@@@+O+@@@@@@@@@@@@@@+O",
"@@@@@@@@@@@@@@+@@@@@@@@@@@@@@+@@@@@@@@@@@@@@@@+@@@@@@@@@@@@@@@@+",
"@@@@@@+@@++@@@+@@@@@@@@@@@@@@+@@@@@@@@+@@++@@@+@@@@@@@@@@@@@@@@+",
"@@@@@@@@@@@@@@+@@@++@@+@@@@@@+@@@@@@@@@@@@@@@@+@@@++@@+@@@@@@@@+",
"++@@@@@@@@@@@@+@@@@@@@@@@@@@@+@@++@@@@@@@@@@@@+@@@@@@@@@@@@@@@@+",
"@@@@@@@@@@@@@@+@@@@@@@@@@@@@@+@@@@@@@@@@@@@@@@+@@@@@@@@@@@@@@@@+",
"@@@@@@@@@@@@@+O+@@@@@@@@@@@@+O+@@@@@@@@@@@@@@+O+@@@@@@@@@@@@@@++",
"+++++OO++++++OO+++++++OO++++OO+++++++OO++++++OO+++++++OO++++OO++",
"@@@@+O+@@@@@@@@@@@@@@+O+@@@@@@@@@@@@+O+@@@@@@@@@@@@@@+O+@@@@@@++",
"@@@@@+@@@@@@@@@@@@@@@@+@@@@@@@@@@@@@@+@@@@@@@@@@@@@@@@+@@@@@@@@+",
"@@@@@+@@@@@@@+@@+++@@@+@@@@@@@@@@@@@@+@@@@@@@+@@+++@@@+@@@@@@@@+",
"@@@@@+@@@@@@@@@@@@@@@@+@@@++@@+@@@@@@+@@@@@@@@@@@@@@@@+@@@++@@@+",
"@@@@@+@@@+@@@@@@@@@@@@+@@@@@@@@@@@@@@+@@@+@@@@@@@@@@@@+@@@@+@@@+",
"@@@@+O+@@@@@@@@@@@@@@+O+@@@@@@@@@@@@+O+@@@@@@@@@@@@@@+O@@@@@@@@+",
"++++OO+++++++OO++++++OO++++++OO+++++OO+++++++OO++++++OO+@@@+@@@+",
"@@@@@@@@@@@@+O+@@@@@@@@@@@@@@+O+@@@@@@@@@@@@@@@+@@@@@@@+@@@@@@@+",
"@@@@@@@@@@@@@+@@@@@@@@@@@@@@@@+@@@@@@@@@@@@@@@@+@@@@+@@+@@@@@@@+",
"@@@@@@@@@@@@@+@@@+++@@+@@@@@@@+@@@@@@@@@@@@@@@@+@@@@@@@++@@@@@@o",
"@@@@@@@@@@@@@+@@@@@@@@@@@@@@@@+@@@@@@@@@@@@@@@@+@@@@++@++++++++O",
"@@@@@+@@++@@@+@@@@@@@@@@@@@@@@+@@@@@@+@@++@@@@@+@@@@+@@++@@@@@@o",
"@@@@@@@@@@@@@+@@@@@@@@@@@++@@@+@@@@@@@@@@@@@@@@+@@@@@@@+@@@@@@@+",
"@@@@@@@@@@@@@+@@@@@@@@@@@@@@@@+@@@@@@@@@@@@@@@@+@@@@@@@+@@@@@@@+",
"@@@@@@@@@@@@+O+@@@@@@@@@@@@@@+O+@@@@@@@@@@@@@@+O+@@@@@++@@@+@@@+",
"++++OO++++++OO++++++OO++++++++OO++++OO++++++++OO++++++OO@@@@@@@+",
"@@@+O+@@@@@@@@@@@@@@+O+@@@@@@@@@@@@+O+@@@@@@@@@@@@@@@@+O@@@@@@@+",
"@@@@+@@@+@@@@@@@@@@@@+@@@@@@@@@@@@@@+@@@+@@@@@@@@@@@@@@+@@@@@@@+",
"+@@@+@@@@@@@@@@@@@@@@+@@@@+@++@@+@@@+@@@@@@@@@@@@@@@@@@+@@@@@@@+",
"@@@@+@@@@@@@@@@@@@@@@+@@@@@@@@@@@@@@+@@@@@@@@@@@@@@@@@@+@@@@@+@+",
"@@@@+@@@@@@@++@@+@@@@+@@@@@@@@@@@@@@+@@@@@@@++@@+@@@@@@+@@+@++@+",
"@@@@+@@@@@@@@@@@@@@@@+@@@@@@@@@@@@@@+@@@@@@@@@@@@@@@@@@+@@@@@@@+",
"@@@+O+@@@@@@@@@@@@@@+O+@@@@@@@@@@@@+O+@@@@@@@@@@@@@@@@++@@@@@@@+",
"++++O+++++++++OO+++++OO++++++OOo++++O++++OO++O+++O++OoO+++++O++O"
};