/* XPM */
static char *eba6709818bc4c2cb2815c7572372a24Wiiw8hHopFPq43kZ[] = {
/* columns rows colors chars-per-pixel */
"64 64 171 2 ",
"   c #0E071B",
".  c #110D17",
"X  c #131313",
"o  c #1C121C",
"O  c #2B191F",
"+  c #151226",
"@  c #18162E",
"#  c #1A1932",
"$  c #391F21",
"%  c #1F2131",
"&  c #1F203A",
"*  c #202338",
"=  c #462319",
"-  c #6A301C",
";  c #78321D",
":  c #7E3F18",
">  c #4B2625",
",  c #4B2825",
"<  c #552D28",
"1  c #5D2C28",
"2  c #4F302B",
"3  c #513826",
"4  c #5A302A",
"5  c #573B39",
"6  c #62342C",
"7  c #68352D",
"8  c #793E23",
"9  c #743A2F",
"0  c #6F3D31",
"q  c #7B4822",
"w  c #7F5427",
"e  c #6E4133",
"r  c #754434",
"t  c #7C4736",
"y  c #222440",
"u  c #262A47",
"i  c #2A2F4E",
"p  c #303656",
"a  c #363E5E",
"s  c #39405F",
"d  c #3E4667",
"f  c #424C6E",
"g  c #495272",
"h  c #4E5878",
"j  c #8E310E",
"k  c #AE3E14",
"l  c #C42430",
"z  c #D72B36",
"x  c #EA323C",
"c  c #854418",
"v  c #824A18",
"b  c #875518",
"n  c #8E5A18",
"m  c #955D19",
"M  c #B94518",
"N  c #A5511E",
"B  c #AA5C1E",
"V  c #BD5411",
"C  c #9C611B",
"Z  c #9A691F",
"A  c #A5641C",
"S  c #AE671E",
"D  c #BD6919",
"F  c #BE7016",
"G  c #844923",
"H  c #884B26",
"J  c #9B4526",
"K  c #8C582A",
"L  c #95542A",
"P  c #814434",
"I  c #8A4836",
"U  c #8E4E39",
"Y  c #8C5331",
"T  c #95573A",
"R  c #A4552E",
"E  c #BC5F25",
"W  c #A25A31",
"Q  c #9C7423",
"!  c #976737",
"~  c #956931",
"^  c #9B763C",
"/  c #A56D21",
"(  c #B66722",
")  c #A57725",
"_  c #AE7122",
"`  c #AE7A27",
"'  c #B67C28",
"]  c #AC6E35",
"[  c #B26034",
"{  c #C54C1B",
"}  c #D65914",
"|  c #FF5000",
" . c #C66E17",
".. c #D46717",
"X. c #D7781B",
"o. c #F6630A",
"O. c #FB790D",
"+. c #ED7614",
"@. c #F57B1E",
"#. c #EC5428",
"$. c #E85938",
"%. c #C16D25",
"&. c #C57525",
"*. c #C97828",
"=. c #D6732F",
"-. c #E76529",
";. c #F16A2F",
":. c #E2762B",
">. c #F57D31",
",. c #DD3D47",
"<. c #A55C40",
"1. c #986141",
"2. c #BF6F4A",
"3. c #A17741",
"4. c #A77250",
"5. c #8F7A75",
"6. c #F5555D",
"7. c #9D853C",
"8. c #B78732",
"9. c #CE8117",
"0. c #D6851A",
"q. c #DA881D",
"w. c #F88714",
"e. c #F68C14",
"r. c #FC9714",
"t. c #F69618",
"y. c #F69F1D",
"u. c #FFA214",
"i. c #FBA118",
"p. c #FFAC18",
"a. c #FFB51D",
"s. c #C98327",
"d. c #C5882E",
"f. c #D9892D",
"g. c #CE9926",
"h. c #D59435",
"j. c #DF9C38",
"k. c #F59323",
"l. c #F59733",
"z. c #EFAB2F",
"x. c #FEB924",
"c. c #FFBE29",
"v. c #FAA438",
"b. c #FFC825",
"n. c #FFC736",
"m. c #FFDA3E",
"M. c #A58543",
"N. c #A18A4A",
"B. c #B38E4B",
"V. c #C59A47",
"C. c #F88F46",
"Z. c #FAA05A",
"A. c #C08C67",
"S. c #C49767",
"D. c #C9A267",
"F. c #FFEB57",
"G. c #546080",
"H. c #5E6884",
"J. c #5E6A8A",
"K. c #657392",
"L. c #6A7794",
"P. c #707F9C",
"I. c #76839E",
"U. c #7C8AA6",
"Y. c #8996AF",
"T. c #92A1B9",
"R. c #9FADC2",
"E. c #A1ADC1",
"W. c #ADB8CB",
"Q. c #BAC4D4",
"!. c #C7CFDD",
/* pixels */
"!.!.!.!.!.W.T.T.T.T.T.T.T.T.T.T.T.T.T.T.T.T.T.T.T.T.T.T.T.T.T.T.T.T.T.T.T.T.T.T.T.T.T.T.T.T.T.T.T.T.T.T.T.T.T.Y.T.W.!.!.!.!.!.!.",
"!.!.!.!.!.W.T.I.H.H.H.H.H.H.H.H.G.J.J.H.H.H.H.H.H.H.H.H.G.J.J.J.H.H.H.H.H.H.H.H.J.G.J.H.H.H.H.H.H.H.H.H.H.H.H.U.T.W.!.!.!.!.!.!.",
"!.!.!.!.!.W.T.H.i i i i i i i i i i i i i i i i i i i i i i i i i i i i i i i i i i i i i i i i i i i i i i i H.T.W.!.!.!.!.!.!.",
"!.!.!.!.!.W.T.H.i u y y y y y y y y y y y y y y y y y y y y y y y y y y y y y y y y y y y y y y y y y y y u i H.T.W.!.!.!.!.!.!.",
"!.!.!.!.!.W.T.H.i y # # # # # # # # # # # # # # # @ # # # @ # # # # # # @ # # # # # # # # # # # # # @ # # y i J.T.W.!.!.!.!.!.!.",
"!.!.!.!.!.W.T.H.i # + + + + + + + + + + + + + + + + + + + + + + + + + + + + + + + + + + + + + + + + + + + & u J.T.W.!.!.!.!.!.!.",
"!.!.!.!.!.W.T.H.i #                                                                                       # i J.T.W.!.!.!.!.!.!.",
"!.Q.W.W.W.R.T.H.p #                                                                                       # i J.T.W.!.Q.W.Q.!.!.",
"!.W.T.T.T.T.T.H.i #                                                                                       # i H.T.W.!.W.T.W.!.!.",
"!.Q.W.W.Q.E.T.H.i # . . . . . . X X . . . . . . . . . . . . . X     . . X X . . . . . . X X . . . . . . . % i H.T.W.!.Q.W.Q.!.!.",
"!.!.!.!.!.W.T.H.i % X X X X X X X X X X X X X X X X X X X X X X X X . X X X X X X X X X X X X X X X X X X % i H.T.W.!.!.!.!.!.!.",
"!.!.!.!.!.W.T.H.i & X X X X X X X X X X X X X X X X X X X X X X X X X X X X X X X X X X X X X X X X X X X % i H.T.W.!.!.!.!.!.!.",
"!.!.!.!.!.W.T.H.i % X X X X X X X X X X X X X X X X X X X X X X X X X X X X X X X X X X X X X X X X X X X % i H.T.W.!.!.!.!.!.!.",
"!.!.!.Q.Q.E.T.h i * X X X X X X X X X X X X X X X X X X X X X X X X X X X X X X X X X X X X X X X X X X X % i H.T.E.W.Q.!.!.!.!.",
"!.!.!.W.T.T.T.H.i % X X X X X X X X X X X X X X X X X X X X X X X X X X X X X X X X X X X X X X X X X X X % i H.T.T.T.W.!.!.!.!.",
"W.W.Q.T.T.T.T.H.i * o + + + + + + + X % + X % o + + + + + + + + + + + + o % o + + + + + o % X + + + + + + & i H.T.Y.U.Y.T.R.W.W.",
"T.T.T.T.T.T.T.J.i y # @ @ # @ # # # # # # # # @ @ # # # # # # # # @ # # # @ # # # # # # # @ # # % # # # # y i H.T.U.K.K.K.U.T.T.",
"W.W.W.W.W.T.T.J.i & @ + + @ + + + + + + + + + + + + + + + + + + + + + + + + + + + + + + + + + + + + + + + y i H.T.U.K.P.U.T.W.W.",
"!.!.!.!.!.W.T.h i #                                                                                       # i H.T.U.K.U.T.W.!.!.",
"!.Q.W.Q.!.Q.T.K.i #                       = ; q b b b b v b b b b v b b b b b v : $                       # i H.T.T.T.E.W.Q.!.!.",
"!.W.T.W.!.W.T.h i #                       : +.e.u.u.u.u.u.u.u.u.i.u.u.u.u.u.u.e.+.:     .     .           # i H.T.W.!.!.!.!.!.!.",
"!.Q.W.Q.!.W.E.h i * @ + + @ # 3 b b b b b F e.r.u.p.a.a.a.p.u.p.x.a.a.a.a.p.u.r.e.D b b b q : , # @ + + + & i H.T.W.!.!.!.!.!.!.",
"!.!.!.!.!.Q.T.K.i y # # # y i ~ u.u.u.u.u.u.i.u.u.a.b.b.b.a.u.x.b.b.b.b.b.a.u.u.u.u.u.u.i.e.+.Y i y # # # y i H.T.W.!.!.!.!.!.!.",
"!.!.!.!.!.Q.T.h i * # 2 G K ~ s.u.u.u.p.a.p.u.0.S _ ` ) Q / ( _ ` ) Q ) ` _ S 0.u.p.a.a.a.i.e.9.~ K G 2 # y i H.T.W.!.!.!.!.!.!.",
"!.!.!.!.!.W.T.H.i y # H +.e.u.u.u.u.u.a.b.a.u.( < 1 1 , $ , 1 1 1 , $ , 1 1 1 S u.a.b.b.b.a.u.u.u.e.+.G # y i H.T.W.!.!.!.!.!.!.",
"!.!.!.!.!.W.T.H.i 5 G %.e.r.u.u.u.0.( _ ` / C H 9 P U 6 $ < 9 P U 6 $ < 9 P U L L / ` ` 8.q.u.p.a.i.e.D G 5 i H.T.W.!.!.!.!.!.!.",
"!.!.!.!.!.W.T.J.i Y +.w.u.u.u.u.u.S < 1 1 , $ 6 U W 2.t $ 6 I W 2.P $ 6 I <.2.t $ , 1 1 < S u.a.b.a.u.e.+.Y i H.T.W.!.!.!.!.!.!.",
"!.!.!.!.!.W.T.5.Y %.e.r.u.0.S A C H 9 P Y 6 $ q *.f.j.8.Q ` d.h.j.8.Q ' d.f.f.K $ < 9 P U L C A ` q.u.r.e.%.Y 5.T.W.!.!.!.!.!.!.",
"!.!.!.!.!.W.T.A.+.e.u.u.u.S 1 > $ 6 I W 2.t $ C u.x.b.b.b.b.b.b.b.b.b.b.b.a.u.C $ 6 I W 2.t $ , < S u.u.u.e.+.A.T.W.!.!.!.!.!.!.",
"!.!.!.Q.Q.T.T.A.+.e.u.0.S L Y 7 $ w d.h.j.' C X.r.p.a.x.b.b.b.b.b.b.b.x.a.p.u.9.C ` d.h.j.K $ < 9 L S 0.u.r.e.S.T.T.W.!.!.!.!.!.",
"!.!.!.Q.T.T.T.B.+.e.u.S 6 U 2.t $ Q b.b.b.a.u.u.u.r.u.x.b.b.b.b.b.b.b.a.u.u.u.u.u.a.b.b.b.Q $ 6 I 9 1 S u.u.y.D.T.T.T.W.!.!.!.!.",
"W.W.W.T.T.U.I.3.+.e.u.S 1 U 2.] Q g.a.a.x.p.u.p.a.b.n.b.a.a.a.a.a.a.a.c.n.c.a.p.u.p.a.a.x.g.7.! I 9 1 B e.r.u.B.L.L.L.Y.W.E.T.T.",
"T.T.T.T.T.L.f 1.+.e.u.S < U 2.j.b.a.u.r.u.u.u.a.b.m.F.n.u.u.u.u.u.u.p.n.F.m.b.a.u.u.u.u.u.n.F.V.I 0 < N +.e.u.3.f f f L.T.U.K.K.",
"U.Y.T.U.L.G.f 1.+.e.u.S 1 W j.z.a.i.e.r.u.r.e.t.i.l.C.l.a.p.u.u.u.p.a.v.Z.v.y.t.e.r.u.r.e.y.m.j.V.! 1 N +.e.u.3.f G.L.P.U.P.K.K.",
"K.U.T.K.f f f 1.+.e.u.S 1 ` b.x.u.e.+.w.u.e.+.+.+.#.x >.b.a.u.u.u.a.b.C.6.;.+.+.+.e.u.w.+.e.i.n.F.M.1 N +.e.u.3.f L.T.U.K.K.K.K.",
"K.I.U.U.L.G.f 1.+.t.a._ 1 ` b.p.e.w.+.X.&.q.e.r.i.-.z $.>.t.u.u.u.k.>.$.,.;.y.t.e.X.S ..o.O.e.x.m.8.1 N +.t.a.M.f J.U.P.K.K.K.K.",
"K.K.K.U.T.L.f 1.+.y.b.` 1 ` b.i.+.+.+.E I *.y.a.b.=.l z x ;.u.u.u.;.x z l :.b.x.u.( < k | o.+.i.b.` 1 N +.y.b.N.f G.K.K.K.K.K.K.",
"K.K.K.P.U.J.f 1.+.i.b.` 1 _ a.t.+. .N R W *.e.y.x.k.:.-.#.@.u.u.u.@.#.-.=.k.a.i.w.( 9 J { } o.e.a._ 1 N +.y.b.N.f G.K.K.K.K.K.K.",
"K.K.K.K.K.G.d 1.+.y.b.` 1 S u.e.+.N 1 I 2.=.+.e.i.a.b.i.+.e.u.u.u.e.+.y.b.a.u.e.+.E I I I { | O.u.S 1 N +.y.b.N.f G.K.K.K.K.K.K.",
"K.K.K.K.K.G.f 1.+.y.b.` < S u. .j 8 9 1.2.W c D e.i.a.i.w.i.a.a.a.i.e.i.a.i.e.D c H I T <.J j F a._ 1 N +.y.b.N.f G.K.K.K.K.K.K.",
"K.K.K.K.K.G.d 1.+.y.b.` 1 S u.n + < I <.2.e o c +.e.u.u.u.a.b.b.b.a.u.u.u.e.+.c o < I <.2.0 + Z b.` 1 N +.y.b.N.f G.K.K.K.K.K.K.",
"K.K.K.K.K.G.d 1.+.t.a._ 1 S u.m O 4 I <.2.r O 7 N X.u.u.u.p.a.a.a.p.u.u.r.q.( 8 O 1 I <.2.r O Z a._ 1 N +.t.a.M.f G.K.K.K.K.K.K.",
"K.K.K.K.L.G.g 1.+.e.u.S 1 S u.C $ 6 I <.2.t $ , 1 S u.u.u.u.u.u.u.r.u.u.u.&.I 6 $ 6 I <.2.t $ m r.( 1 N +.e.u.3.f G.K.K.K.K.K.K.",
"K.K.K.K.L.G.d 1.+.e.u.S 1 L &.q $ 6 I <.2.t $ < 9 S e.r.u.p.a.c.n.x.u.r.e.*.<.0 $ 6 I <.2.t $ q S G < N +.t.a.M.f G.K.K.K.K.K.K.",
"K.K.K.K.K.G.d 1.+.e.u.S 1 9 I 6 $ 6 I <.2.t $ 6 I E +.w.r.a.b.m.F.n.u.e.+.=.2.t $ 6 I <.2.t $ > < 1 1 N +.y.b.N.f G.K.K.K.K.K.K.",
"K.K.K.J.G.G.d 1.+.t.a._ 1 P <.0 $ 6 I <.2.t $ 6 I R E f.a.a.x.b.n.b.a.0.N [ 2.t $ 6 I <.2.t $ < 9 7 1 N +.y.b.N.f h G.J.K.K.K.K.",
"K.K.K.G.d d d 1.+.y.b.` 1 U 2.t $ 6 I <.2.t $ 6 I I I 8.b.a.u.u.r.a.b.` 1 U 2.t $ 6 I <.2.t $ 6 I 9 1 N +.y.b.N.f f f h K.K.K.K.",
"G.d g d d a a 1.+.y.b.` 1 U 2.t $ 6 U W 2.t $ 6 I R E +.r.r.u.u.u.r.r...N [ 2.t $ 6 I <.2.t $ 6 I 9 1 N +.t.a.^ a a a f f g g g ",
"i i i i i i i Y +.y.b.` 1 U 2.t $ 6 I <.2.t $ 6 I ( @.| | O.u.u.u.O.| o.+.=.2.t $ 6 I <.2.t $ 6 I 9 1 N +.e.u.~ i i i i i i i i ",
"a d h d g s i Y +.t.a._ 1 U 2.t $ 6 I W 2.t $ q *.( [ ..o.+.e.e.e.+.o.} R %.f.K $ 6 I <.2.t $ 6 I 9 1 N +.e.u.~ i p a d a d g f ",
"d G.K.K.L.g i Y +.e.u.S 1 U 2.t $ 6 I <.2.t $ C i.&.I %.+.+.+.+.+.+.+.N 1 S u.C $ 6 I <.2.t $ 6 I 9 1 N +.e.r.~ i s d f f G.K.K.",
"d G.G.G.h h g 1.+.e.u.S 1 U 2.t $ 6 I <.2.t $ / x.f.<.J v V o.| o.V c 8 9 D u.C $ 6 I <.2.t $ 6 I 9 1 N +.t.a.^ s d f f f h G.h ",
"d g f f f G.K.5.+.e.u.S 1 U 2.t $ 6 I <.2.t $ Q b.j.2.e o j | | | j o < I &.u.C $ 6 I <.2.t $ 6 I 9 1 N +.i.b.N.f f f f f f f f ",
"g d f f d G.G.4.+.t.a._ 1 U 2.t $ 6 I <.2.t $ Z x.f.2.t O - k M { ; O 4 I &.u.C $ 6 I <.2.t $ 6 I 9 1 N +.t.x.M.f f f f f f f f ",
"f f f f d f f 1.+.y.b.` 1 U 2.t $ 6 I <.2.t $ m u.f.2.t $ > 1 9 I 6 $ 6 I &.i.C $ 6 I <.2.t $ 6 I 9 1 N +.e.u.3.f f f f f f f f ",
"f f f f f f f 1.+.t.a._ 1 U 2.t $ 6 I <.2.t $ 8 S s.j.K $ < 9 U W 0 $ w d.*.*.G $ 6 I <.2.t $ 6 I 9 1 N +.e.u.3.f f f f f f f f ",
"f f f f f f f 1.+.e.u.S 1 U 2.t $ 6 I <.2.t $ > 1 ` b.Q $ 4 I <.2.t $ Q b.d.I 6 $ 6 I <.2.t $ 6 I 9 1 N +.e.u.3.f f f f f f f f ",
"f f f f f f f 1.+.e.u.S 1 U 2.t $ 6 I <.2.t $ < 9 ~ 8.8.7.B.V.h.j.8.C / ` ] W 0 $ 6 I <.2.t $ 6 I 9 1 N +.w.u.3.f f f f f f f f ",
"f f d f f f d 1.+.e.u.S 1 U 2.t $ 6 I <.2.t $ 6 I I I V.F.F.F.m.b.x.r.S 1 I 2.t $ 6 I <.2.t $ 6 I 9 1 N +.e.u.^ f d d f d d f f ",
"f f d d a d s T +.e.u.S 1 U 2.t $ 6 I <.2.t $ 6 I T <.! 7.7.B.8.d._ n G 9 1.2.t $ 6 I <.2.t $ 6 I 9 1 N +.e.u.^ d d f f g d s d ",
"f d d d i i i Y +.e.u.S 1 U 2.t $ 6 I <.2.t $ 6 I <.2.0 o $ < 9 I < + < I <.2.P $ 6 I <.2.t $ 6 I 9 1 N +.e.u.~ i s d d d s i i ",
"d s d p i i i Y +.w.e.B 1 P <.0 $ < 9 U <.9 $ < 9 U <.0 O > 1 9 I 1 O < 9 I <.0 $ < 9 I W 0 $ < 9 7 1 N +.q.e.T i p d s d p i i ",
"i i u i i i i Y +.+.+.N 1 9 I 6 $ > 1 9 I 6 $ > < 9 I 6 $ > 1 9 I 6 $ > 4 9 I 6 $ , 1 9 I 6 $ , 1 1 1 N +.+.+.Y i i i i i i i i ",
"i i i i i i i H +.+.+.R 1 9 I 6 $ , 1 9 I 6 $ > 1 9 I 6 $ > 1 9 I 6 $ > 1 9 I 6 $ , 1 9 I 6 $ , 1 1 1 N +.+.+.Y i i i i i i i i "
};
