/* XPM */
static char *eaf41716b4ef4824d44fe5f371981b566lCFa943ZLCbhrhe[] = {
/* columns rows colors chars-per-pixel */
"64 64 227 2 ",
"   c None",
".  c #050505",
"X  c #0B0B0C",
"o  c #070708",
"O  c #180A03",
"+  c #0E0F10",
"@  c #0F1111",
"#  c #131414",
"$  c #161718",
"%  c #16191A",
"&  c #1B1C1C",
"*  c #1A1716",
"=  c #17120E",
"-  c #240C00",
";  c #2B0E00",
":  c #2D1101",
">  c #27180C",
",  c #331300",
"<  c #3B1600",
"1  c #391B04",
"2  c #241D18",
"3  c #300F01",
"4  c #37271A",
"5  c #36220F",
"6  c #1D1F20",
"7  c #211F20",
"8  c #1E2122",
"9  c #1F2628",
"0  c #222425",
"q  c #252728",
"w  c #26292A",
"e  c #2A2B2C",
"r  c #2A2626",
"t  c #352C27",
"y  c #2D2F30",
"u  c #262E30",
"i  c #2D3233",
"p  c #2E3739",
"a  c #323435",
"s  c #343638",
"d  c #353A3B",
"f  c #3A3C3D",
"g  c #373736",
"h  c #33302E",
"j  c #1C201F",
"k  c #441A01",
"l  c #4B1D00",
"z  c #411903",
"x  c #511F00",
"c  c #492606",
"v  c #542201",
"b  c #5B2400",
"n  c #592B04",
"m  c #563415",
"M  c #54300B",
"N  c #622600",
"B  c #652900",
"V  c #6C2C00",
"C  c #662B07",
"Z  c #702F00",
"A  c #7B2E00",
"S  c #643301",
"D  c #6D3201",
"F  c #6D3A01",
"G  c #653708",
"H  c #713101",
"J  c #733D01",
"K  c #7B3801",
"L  c #6B3916",
"P  c #443C39",
"I  c #523624",
"U  c #653F23",
"Y  c #3A403F",
"T  c #7C4401",
"R  c #764304",
"E  c #6E4315",
"W  c #6F482C",
"Q  c #55453A",
"!  c #3C3F40",
"~  c #353E41",
"^  c #423F41",
"/  c #3D4243",
"(  c #3C4749",
")  c #424445",
"_  c #444749",
"`  c #454A4B",
"'  c #4A4C4D",
"]  c #474746",
"[  c #534C4B",
"{  c #4B504F",
"}  c #454E51",
"|  c #4B4E51",
" . c #455154",
".. c #4D5253",
"X. c #4C5659",
"o. c #4D5A5D",
"O. c #475558",
"+. c #525455",
"@. c #535857",
"#. c #535659",
"$. c #555A5B",
"%. c #5A5C5D",
"&. c #5A5656",
"*. c #514F50",
"=. c #615D5E",
"-. c #6A544E",
";. c #5A605F",
":. c #54605F",
">. c #4E5C61",
",. c #545E62",
"<. c #5B5E61",
"1. c #625F60",
"2. c #546165",
"3. c #5D6263",
"4. c #566569",
"5. c #5A666B",
"6. c #5B696D",
"7. c #5A6869",
"8. c #5E6C71",
"9. c #626465",
"0. c #626867",
"q. c #646669",
"w. c #686768",
"e. c #666A6B",
"r. c #6A6C6E",
"t. c #686667",
"y. c #6A706F",
"u. c #66716F",
"i. c #636E72",
"p. c #6C6E71",
"a. c #657174",
"s. c #6D7173",
"d. c #6E7579",
"f. c #6E797B",
"g. c #6B7678",
"h. c #717576",
"j. c #727877",
"k. c #717679",
"l. c #747B7B",
"z. c #7A7D7D",
"x. c #797977",
"c. c #72716F",
"v. c #61615E",
"b. c #853D01",
"n. c #8B4300",
"m. c #834B01",
"M. c #874803",
"N. c #974901",
"B. c #8D5201",
"V. c #955901",
"C. c #9B5D01",
"Z. c #945501",
"A. c #8F4B13",
"S. c #A45401",
"D. c #A95601",
"F. c #AE5E00",
"G. c #AE5D00",
"H. c #A55802",
"J. c #B15E00",
"K. c #A14E01",
"L. c #9E6100",
"P. c #A36400",
"I. c #A66900",
"U. c #AB6C00",
"Y. c #AF6001",
"T. c #B26000",
"R. c #AE7001",
"E. c #804F2F",
"W. c #7A807F",
"Q. c #77807F",
"!. c #747D81",
"~. c #7A7E81",
"^. c #6F7C80",
"/. c #768182",
"(. c #7D8483",
"). c #7F8887",
"_. c #7E8989",
"`. c #768989",
"'. c #818685",
"]. c #818887",
"[. c #838689",
"{. c #838B8A",
"}. c #898D8D",
"|. c #86908F",
" X c #8A908F",
".X c #8C8E91",
"XX c #848E91",
"oX c #869191",
"OX c #8D9293",
"+X c #8B9799",
"@X c #919596",
"#X c #929897",
"$X c #949699",
"%X c #969A9A",
"&X c #9A9D9D",
"*X c #9BA09F",
"=X c #97A09F",
"-X c #9C9FA0",
";X c #969EA1",
":X c #9EA2A2",
">X c #9CA5A5",
",X c #A2A4A5",
"<X c #A2A8A7",
"1X c #A5A6A9",
"2X c #A6A9AA",
"3X c #ABACAE",
"4X c #A8A7A9",
"5X c #AAB1AE",
"6X c #A7B0AF",
"7X c #AEAFB1",
"8X c #A7AFB0",
"9X c #AFB0B2",
"0X c #AFB8B7",
"qX c #B0B1B3",
"wX c #B2B8B7",
"eX c #B5BBBA",
"rX c #B9BEBD",
"tX c #B2B7B8",
"yX c #B0AFB2",
"uX c #BBC0BF",
"iX c #B7C1BE",
"pX c #BEC3C2",
"aX c #C3C7C6",
"sX c #C3C8C7",
"dX c #C4C9C8",
"fX c #C7CACA",
"gX c #BCBFC0",
/* pixels */
"uXiXpXiXuXuXpXuXuXsXpXaXpXaXaXgXaXaXgXpXaXuXaXaXaXuXpXiXuXrXeX'._ @.'.}.&X4X3XyXqXqX9X9X9X7XqXqX7X7X7X3X7X3X2X4X4X4X&X:X$X@XOXOX",
"pXsXsXsXsXdXdXaXdXdXdXaXaXsXsXdXsXdXdXdXdXsXdXsXsXfXsXsXsXaXsX2X4XqXtXqXqXqXqXqXqXqXqX9XqXqXqXyXyXqXqXqXqXqXqXqX9X7XqX7X7XqX7X9X",
"sXsXsXpXsXaXaXaXaXaXaXaXaXsXsXsXsXaXsXsXdXsXaXaXaXsXsXsXsXdXdX,X4XyXyXqX9XyX3XqXqX9X7X7X7X7XyXyXyXqX7XqXqX9X9X7X7X7X7X7XqX7X7X7X",
"pXaXsXaXaXpXaXaXpXaXuXaXaXaXsXsXuXdXdXaXaXaXaXaXaXaXdXaXsXaXsX:X3.e.s.k.[.%X1X3X3X7X3XyX3X7X7X7XyXyXyX3XyX3X5X7X7X7X7X7X7X7X3X3X",
"9X0X5X6X6X5XeX0XwX0XwX5X6X5X5XwX0X5XqX5XqX0XwXwX5X5X5X6X6XqX:X..u.d.d.d.d.p.s.s.e.3.%.%.e.s.!.~.[.[.}..X.X%X$X%X&X,X,X,X4X3X7X4X",
"|.{.{.|.).].|.{.}.{.{.{.{.].].].|.].|.|.].].|.].].{.].).).{.{.2.r.g.k.g.s.s.s.s.s.s.a.p.s.p.p.p.p.p.p.p.^.s.a.r.s.i.r.p.p.p.i.r.",
"].{.].{.).|.].].].{.{.{.].|.].{.].].].].].].].{.].].].].'.].].3.u.s.s.s.s.s.s.s.s.r.p.p.p.p.p.p.p.p.p.r.r.p.p.p.p.p.p.p.p.p.p.p.",
"{.{.{.{.{.{.{.).{.{.{.{.].{.).{.].{.].].{.].].{.].{.).'.{.{.{.0.a.h.s.s.p.p.p.p.p.p.i.i.p.p.p.p.p.r.p.p.^.p.p.p.p.p.p.p.p.p.p.p.",
"{.].].{.{.{.{.{.{.{._.{.].{.{.{.{.{.{.{.].{.].'.{.{.].{.).{.{.e.a.s.p.p.p.p.p.p.p.p.p.p.p.p.p.p.p.r.^.p.p.p.s.s.p.s.p.s.p.s.p.p.",
"{.].].{._.{.).).{.].'.{.{.{._.{.{.{.].).{.{.{.{.].{.).].].{.{.0.r.a.p.s.p.p.p.p.p.p.p.p.p.p.p.p.p.p.p.p.p.p.p.s.s.p.s.p.p.p.p.p.",
"].{.{.].].{.).{.{.{.{.{._.].{.{.{._.{.{.].).].].{.].{.].).'.{.0.a.s.p.p.r.p.r.r.r.p.r.p.r.p.p.p.p.p.p.p.p.p.s.p.p.p.s.p.p.s.p.p.",
"].).'.{.].).].{._.{.].{.{.{.{.{.].{.{.{.{.{.{.{.].{.{.{.{._.{.3.r.p.r.p.r.p.r.r.p.r.p.r.p.p.r.p.r.p.p.p.p.r.s.p.p.p.s.p.p.p.p.p.",
"].).'.).).{.].].{.].).{.{.{.].{.].).{.).{.{.].).].).{.).{.{.{.3.r.r.r.r.r.r.r.r.r.p.r.r.p.p.r.p.p.p.p.p.p.a.p.p.a.p.p.p.p.p.p.p.",
"'.].).'.'.'.].).{.].{.).].{.|.).{.{.).{.].{.{.].{.{.{.].].{.{.3.r.r.r.r.r.r.r.i.r.r.r.p.r.p.p.r.r.r.p.p.p.r.p.p.r.p.p.p.p.p.p.r.",
"'.'.].'.).'.).].'.).].{.{.{.].].{.{.].{.).]._.].{.).].{.).'.).3.q.w.w.r.r.r.r.w.r.r.r.r.r.r.r.r.p.p.r.i.r.r.p.p.p.p.p.p.p.p.p.p.",
"'.'.].'.].'.).'.'.'.'.].].'.{.{.{.{.{.(.{.{.].'.).{.).[._.{.).3.3.3.5.q.e.q.r.e.q.i.w.r.r.p.i.r.r.r.p.r.r.p.s.r.s.p.p.r.s.r.r.p.",
"'.'.'.).).'.'.).'.).].].].'.'.).'.).).{.{.].].].).).(.(.(.).(.2...@.%.<.3.<.q.q.q.q.q.q.w.r.r.r.r.r.r.p.r.r.r.r.r.p.r.p.r.p.p.r.",
").'.'.).(.(.'.'.).'.'.'.'.'.{.'.{.{.(.[.).).(.(.(.(././.(.Q.f.+.( _ } ....#.#.#.,.<.1.q.q.w.r.r.e.r.r.r.r.r.r.r.r.r.p.r.r.p.p.p.",
"'.W.'.(.'.).).'.'.'.).'.).'.'.'.{.'.(._./.Q.f.g.a.a.6.7.o.o.o.d w ~ ~ f ~ _ ( ` | X.o.,.<.1.q.r.w.r.w.r.r.r.r.r.p.r.a.r.r.r.r.r.",
"%.@.3.%.%.$.;.%.%.3.%.3.%.7.;.3.3.X.X.| ( ~ d / a i s u | 3.q.<.q.<.1.p.%.#.1.! <.<.*.X.s.^.!.w.p.k.k.~.s.h.x.h.h.p.p.r.q.q.q.7.",
"s.y.s.u.u.p.p.r.s.y.r.a.r.r.r.e.3.} ! ..! 0.@.3.a.<.q.r...s.s.p.s.p.h.p.,.r.q.' q.| ! ! | *.q.r.r.r.r.1.r.t.r.q.9.w.9...` a.l./.",
"p.a.s.s.r.p.p.p.p.y.r.r.p.r.0.3.+.p ` i 3.h.s.s.u.*.p.r.' s.p.p.p.p.p.w.9.r.q.| ^.s.s.r._ ! } #.q.i.i.p.p.p.r.p.p.p.p.<.3.oXoXoX",
"s.p.s.r.s.p.s.r.p.p.p.i.r.r.7...i q ! p._ r.a.u.r.q q.9.! r.i.r.r.r.r.+.1.1.#.<.p.p.s.#.1...u ~ } 1.e.p.p.r.p.p.p.p.p.<.,.oXoXoX",
"p.s.p.p.s.p.i.p.p.p.i.p.r.3.#.s _ q 3.p.p.) r.r.w.g 1.9.#.9.9.t.9.t.9.] 9.9.P q.r.r.<.&.p.r.a | p #.<.r.r.r.p.p.r.p.p.3.3.oXoX|.",
"s.s.p.p.p.p.p.p.p.p.p.i.3.#.s ~ p.i.e 9.e.9.d 9.w.%.[ 1.1.' 9.9.9.9.=.` =.1.0 q.1.1.*.q.r.e ,.s.1.6 ,.5.r.p.p.r.p.r.r.;.0._.|._.",
"s.p.p.p.p.s.p.p.p.p.p.w.,.~ ~ p.p.d.r.6 1.w.=.^ t.9.* 1.&.a 9.v.v.=.[ [ &.*.' 1.%.' 1.q.s ! p.s.p.#.y #.q.r.p.p.p.a.r.3.r.|._.{.",
"s.s.i.s.p.p.p.s.p.p.p.<._ p p.s.p.p.p.9.0 9.t.=.P 9.g n M.L.U W P W L P.J 1 <.&.^ 1.1.! ! r.r.p.p.d.,.y <.r.p.r.p.r.p.%.e._.{._.",
"p.s.p.p.s.p.p.p.p.p.q.,.i ) <.p.p.p.w.w.%.0 %.4 B.E Z.M.Z.U.U.L.F I.U.P.m.L.R R L P ' ~ 1.e.e.r.p.e.*.q +.r.i.r.p.r.s.%.3._.{._.",
"s.p.p.p.p.p.p.p.p.e.<...! p.i.+._ q.w.t.w.&.= S I.R.R.m.Z.Z.U.L.n U.U.I.R L.P.U.Z.- r 1.w.r.1.,.' 1.p.,.| q.r.p.p.p.r.#.3.].{.).",
"s.p.p.p.p.p.p.p.p.q.+.~ _ 9.p.p.e.=.g +.t.1.E B I.U.U.m.V.v P.P.D U.U.U.R L.L.B.C.x Q r.<.` _ 1.r.d.r.,.a ( q.r.p.p.p.%.;.{.).].",
"p.p.a.a.p.p.p.p.p.,./ | 1.d y _ 1.w.w.<.I E F.n I.U.U.m.V.S C.L.F U.U.U.m.L.V.m.C.n C.U ] 1.e.q.+.! u ! e.s <.r.p.y.y.%.7._.{.].",
"p.p.p.p.p.p.p.i.r.<.d q.p.p.e.| q f 1.P C.P.P.S I.U.U.m.Z.G m.P.n U.U.U.T I.B.m.V.n P.C.m q.+.0 a <.r.s.p.f +.i.p.p.p.$.3.{.).{.",
"p.p.p.p.p.p.p.p.q.,.y p.p.p.p.r.w.%.y 2 C.P.P.n I.U.U.m.L.B.V.P.S U.U.U.R I.L.M.V.S I.C.G % ..w.r.i.p.s.p.' s e.p.p.p.<.%.'.).).",
"r.r.r.r.p.r.i.i.q...d p.p.p.r.p.w.w.r.] L.P.P.S I.I.U.B.V.U.U.L.F I.U.I.R I.U.U.V.R P.L.R e.e.e.w.r.p.p.p.q.a 9.p.s.r.%.3.).{.{.",
"$.%.$...#.| | | ! y ` p.p.p.i.r.r.r.i.W V.L.L.S P.I.P.T Z.I.I.C.n I.P.I.R L.I.I.V.G P.P.V.1.e.w.e.p.p.p.p.p.i $.w.r.e.| ` +.3.q.",
").{.).{.).(.[.(.Q.d 0.i.p.r.r.r.r.r.w.> 1 5 c > 5 5 1 > c G m M 5 M M M = m c M 5 5 c c 5 ) e.r.q.r.p.p.p.p.s _ <.<.9.q.s.` d.s.",
"{.{.{.).{.{.{.(.(.i <.e.r.p.r.r.r.t.| X X # + = + # = + + + + + + # @ = @ % @ @ @ @ @ # X % 1.1.q.e.p.r.r.e.a | i.s.g.g.g.` d.d.",
"{.).{.).{.).{._.!.s.%.r.q.$.| %.3.<.# r e w e w e e w w e e w e e u q y q w e e w e e e w 7 r 9.<.#.,.<.q.p.a 1.p.s.s.p.h.| g.s.",
"{.{.).{.).{.).(.l.o.3.e.i.r.r.r.w.+.& q e e w e e e e e w e e e e w y e e u e e e u e e w 0 p r.q.e.r.p.r.i.y >.e.p.p.s.s.} s.s.",
").).{.{.].'.{.(.a.0 i i e s i 0 q q 0 2 2 4 4 4 4 4 4 4 4 4 4 4 4 4 4 4 4 4 4 4 4 4 4 2 4 2 u 6 w w ~ i q e r y q.p.p.p.p.` p.p.",
"{.{.].].].{.).(.0.w r.r.r.r.e.p.p.s.h B.L.P.P.S I.I.U.T V.R.I.L.v I.U.I.m.I.U.I.V.J U.P.P.z e.a.r.r.r.r.r.p.e.a <.e.p.p.p.} p.p.",
")._.].].].).).(.3./ p.p.r.r.p.p.p.p.h B.Y.P.I.S I.U.U.m.V.U.I.P.D U.U.I.T P.I.U.C.n I.P.C.z i.a.r.r.p.p.p.r.i.y 1.q.r.r.p._ p.i.",
"].].].].].'.(.(.3./ r.p.p.i.p.p.p.r.g B.P.I.P.S I.U.I.T V.U.U.P.F I.I.U.T P.I.I.B.D P.C.B.z e.r.r.r.r.p.r.p.e.s 9.r.r.r.p._ p.r.",
").'.).).'.(.(.(.0.~ r.r.p.p.s.r.s.p.d B.P.I.P.S I.U.I.B.Z.I.I.P.D U.B.I.D T 0 & 0 6 7 6 c c 9.p.p.r.r.i.p.r.w.i 9.e.r.r.r.! r.r.",
").'.(.W.'.(.).(.3.f r.p.r.p.p.p.r.p.g B.P.I.P.F I.U.I.m.Z.U.I.I.S I.n U.T m.u e w e r q c c 4.p.e.r.r.r.p.p.e.a 9.q.r.w.r.! q.r.",
").'.).).'.(.(.Q.;.) r.p.r.r.s.r.s.p.y B.P.I.I.S I.I.U.m.V.I.I.P.n I.T P.R m.q & % + * 0 5 1 1.p.r.r.i.p.r.p.w.y 9.r.r.q.q.^ r.r.",
"(.(.'.(.W.(.(.(.3./ r.r.r.r.p.s.r.p.y B.P.I.P.D I.U.I.m.C.U.U.L.S P.m.C.J B.# % + + # # c M 5.r.r.r.p.r.p.p.w.r <.q.w.w.r.` q.w.",
"(.).(.(.).W.(.Q.7.Y r.r.r.p.p.p.p.p.e B.L.P.P.S P.I.I.T V.I.I.P.F U.V.P.R L.= $ w r % # G 1 e.p.r.r.r.p.r.p.q.y 1.q.w.w.q.) r.w.",
"(.(.'.'.).).(.W.0.f r.r.r.r.p.p.r.p.g M.L.P.I.S I.I.U.m.V.I.I.P.F I.U.P.S C.> # * # # X Z.c q.i.r.i.r.r.p.p.i.y 1.q.q.1.*.y 1.q.",
"%.3.;.0.0.u.e.e.' / r.r.r.p.r.p.p.p.h B.V.C.L.S L.P.L.R m.L.L.Z.b L.L.C.J C.m.> @ # & n B.1 r.r.r.r.r.p.r.r.r.0 w q w u e ! s w ",
").).).'.).'.(.W.u./ r.r.r.r.r.p.p.p.y = > 2 > * 2 2 > 2 2 5 2 2 2 2 2 2 2 > * * + + = > @ # 5.r.r.r.r.r.p.r.q.i 1.r.p.p.p.p.p.p.",
").(.).(.{.).(.(.0.) r.r.r.r.p.p.p.p.a % % $ & & & j * & & 6 & & & & & & 8 & & & & % & % % $ r.r.r.r.p.r.p.r.q.y 1.r.p.p.p.r.s.p.",
"'.'.).'.).).).Q.0.a p.r.r.r.p.r.r.r.a q w e e e e y e q y e e w e w e e e e e e e y q q q 6 r.p.r.r.r.r.r.p.q.i 9.r.p.p.a.s.p.p.",
"(.).).{.(.).(.Q.3.a a.r.i.r.p.r.p.p.g 9 w w e w e e 9 y e w w e e e e e e e w w u u w e 0 6 e.i.r.r.p.p.r.i.e.y 9.r.r.r.p.r.a.r.",
"{.).'.'.(.).).(.9.d r.r.r.r.p.p.p.p.e c m m m 5 m m m m c m m M 5 m m m c m m m M 5 m m M 2 q.r.r.r.r.r.i.p.r.y 1.r.p.p.p.p.p.p.",
"(.).'.).).(.).(.0.f r.r.p.r.p.p.r.s.a B.L.B.P.G U.U.U.m.C.U.U.P.n U.U.U.T I.U.U.P.F I.P.L.c 3.r.r.r.r.p.p.r.q.a <.p.p.p.r.p.r.p.",
"(.{.(.'.).).).Q.3./ r.p.r.r.r.p.r.p.P B.H.S L.S I.U.I.T V.I.U.L.n U.U.U.F I.U.U.C.S I.L.C.M q.r.r.r.r.r.r.p.q.y 3.i.p.r.p.p.r.r.",
"{.).).(.).).(.(.3./ r.r.u.r.p.p.p.s.h B.P.S V.S I.I.U.m.V.U.I.P.S C.T S c I.P.P.C.J I.P.C.c q.r.r.p.e.r.r.r.q.y 1.r.p.r.r.r.r.r.",
").(.).'.(.(.).Q.7.~ r.r.r.r.p.r.p.r.a B.P.J J S I.U.U.T C.I.U.L.n F B.I.F I.L.T C.J I.P.L.c q.i.e.e.e.p.p.r.e.y 1.r.r.r.r.r.r.r.",
").).(.).).).(.(.3.s r.i.r.r.p.p.p.r.a B.P.R B.D I.I.U.T V.U.I.L.F U.U.I.R I.I.B.V.S I.P.C.1 e.i.r.r.r.p.e.r.q.p 1.e.r.r.r.r.r.r.",
").'.'.{.(.(.).l.0.a r.r.r.r.p.p.r.r.g Z.P.U.P.F I.U.I.m.V.I.I.P.F U.U.I.T L.U.U.C.S I.P.L.n q.e.r.i.r.r.r.r.r.y q.e.r.r.r.r.r.e.",
"(.).(.(.{.(.(.W.5./ p.r.r.i.r.p.p.r.h B.V.C.C.v C.L.C.F B.P.C.V.n C.C.C.F C.C.C.B.n V.V.Z.c 3.r.r.e.r.r.r.r.q.y <.r.e.r.r.e.r.r.",
").'.)._.(.).(.(.e.! p.p.r.r.p.p.r.p.)                                                       e.p.r.i.r.p.r.r.q.y 1.r.r.r.r.r.r.r.",
"l.(.(.).(.(.(.(.e.) r.p.r.p.p.p.p.r.a                                                       9.i.p.r.r.r.p.p.r.s <.e.e.r.r.r.r.r."
};