/* XPM */
static char *f38c3d90e74d4577e9b390050b0185f08M3xTVj67CiFpXKK[] = {
/* columns rows colors chars-per-pixel */
"64 64 79 1 ",
"  c #0E071B",
". c #110D17",
"X c #131313",
"o c #171623",
"O c #141027",
"+ c #17152C",
"@ c #18162E",
"# c #1A1932",
"$ c #1D1E33",
"% c #1C1B35",
"& c #1E1F39",
"* c #1F2131",
"= c #1F203A",
"- c #202338",
"; c #222440",
": c #252742",
"> c #262A47",
", c #282A45",
"< c #282B48",
"1 c #2B2E4A",
"2 c #2A2F4E",
"3 c #2C314F",
"4 c #2E3350",
"5 c #303656",
"6 c #323857",
"7 c #373C59",
"8 c #363E5E",
"9 c #39405F",
"0 c #3B4260",
"q c #3C4566",
"w c #3F4767",
"e c #404662",
"r c #414968",
"t c #444C69",
"y c #424C6E",
"u c #454F6F",
"i c #485170",
"p c #4A5371",
"a c #4F5773",
"s c #4B5677",
"d c #4E5878",
"f c #565D76",
"g c #535D7A",
"h c #575E7A",
"j c #5A637D",
"k c #546080",
"l c #566181",
"z c #5E6884",
"x c #5C6989",
"c c #6B748D",
"v c #657392",
"b c #6A7794",
"n c #717B95",
"m c #797F96",
"M c #707F9C",
"N c #73809D",
"B c #78859E",
"V c #7F869E",
"C c #7C8AA6",
"Z c #7E8CA6",
"A c #858EA6",
"S c #8796AF",
"D c #8996AF",
"F c #939AAE",
"G c #9BA3B7",
"H c #92A1B9",
"J c #94A1B8",
"K c #96A1B8",
"L c #A1A6B7",
"P c #9FADC2",
"I c #A1ADC1",
"U c #A9AFC0",
"Y c #ADB8CB",
"T c #B2B9C9",
"R c #BAC4D4",
"E c #C7CFDD",
"W c #C8D0DD",
"Q c #E3E7EE",
"! c white",
/* pixels */
"EEEEEYHHHHHHHHHHHHHHHHHHHHHHHHHHHHHHHHHHHHHHHHHHHHHHHHHHHYEEEEEE",
"EEEEEYHBzzzzzzzzzzzzzzzzzzzzzzzzzzzzzzzzzzzzzzzzzzzzzzzBHYEEEEEE",
"EEEEEYHz22222222222222222222222222222222222222222222222zHYEEEEEE",
"EEEEEYHz2>;;;;;;;;;;;;;;;;;;;;;;;;;;;;;;;;;;;;;;;;;;;>2zHYEEEEEE",
"EEEEEYHz2;###########################################;2zHYEEEEEE",
"EEEEEYHz2=OOOOOOOOOOOOOOOOOOOOOOOOOOOOOOOOOOOOOOOOOOO=2zHYEEEEEE",
"EEEEEYHz2%                                           %2zHYEEEEEE",
"ERYYYPHz2%                                           %2zHYERYREE",
"EYHHHHHz2%                                           %2zHYEYHYEE",
"ERYYYPHz2$...........................................$2zHYERYREE",
"EEEEEYHz2*XXXXXXXXXXXXXXXXXXXXXXXXXXXXXXXXXXXXXXXXXXX*2zHYEEEEEE",
"EEEEEYHz2*XXXXXXXXXXXXXXXXXXXXXXXXXXXXXXXXXXXXXXXXXXX*2zHYEEEEEE",
"EEEEEYHz2*XXXXXXXXXXXXXXXXXXXXXXXXXXXXXXXXXXXXXXXXXXX*2zHYEEEEEE",
"EEERYPHz2*XXXXXXXXXXXXXXXXXXXXXXXXXXXXXXXXXXXXXXXXXXX*2zHPYREEEE",
"EEEYHHHz2*XXXXXXXXXXXXXXXXXXXXXXXXXXXXXXXXXXXXXXXXXXX*2zHHHYEEEE",
"YYYPHHHz2-ooooooooooooooooooooooooooooooooooooooooooo-2zHSCDKIYY",
"HHHHHHHz2;#####################################%#####;2zHCvvvCHH",
"YYYYYPHz2=OOOOOOOOOOOOOOOOOOOOOOOOOOOOOOOOOOOOOOOOOOO=2zHCvMCHYY",
"EEEEEYHz2%                                           %2zHCvCHYEE",
"ERYREYHz2%                                           %2zHKKIYREE",
"EYHYEYHz2%                                           %2zHYEEEEEE",
"ERYREYHz2=OOO@%%%%%%%%%%%%%%%%%%%%%%%%%%%%%%%%%%%@OOO=2zHYEEEEEE",
"EEEEEYHz2;###;22222222222222222222222222222222242;###;2zHYEEEEEE",
"EEEEEYHz2;###&;=%%%%%=;;;=%=;;;;;;;;;;;;;;;;;;;-;&###;2zHYEEEEEE",
"EEEEEYHz2;#####O     O###O O#########################;2zHYEEEEEE",
"EEEEEYHz2;#####+OOOOO+###+O+#############+OOO+#+O+###;2zHYEEEEEE",
"EEEEEYHz2;###############################O   O#O O###;2zHYEEEEEE",
"EEEEEYHz2>;;;;;<44444444444444444444444431,>,14:%=;;;>2zHYEEEEEE",
"EEEEEYHz22222228yyyyyyyyyyyyyyyyyyyyyyyyyyyyyyy82222222zHYEWEEEE",
"EEERYPHz2>;;;;;388888888864686444446888646888883;;;;;>2zHIYREEEE",
"EEEYHHHz2;#####;222222222;#;2;#####;222;#;22222;#####;2zHHHYEEEE",
"YYYPHZbp2;#####&;;;;;;;;;&#&;&#####&;;;&#&;;;;;&#####;2pbbbDYIKK",
"HHHHKby82;########################%##################;28yyybHCvv",
"CSHAbky82444444437qqeeeqeeeqeeeqeqeeqeeeeqeee74444444428ykbMCMvv",
"vCHbyyy828yyyyyyyjvvvvvvvvvvvvvvvvvvvvvvvvvvvkyyyyyyy828ybKCvvvv",
"vMCMbky82588854449pdhdpdkkkkgjkkhkkdpdhdiiipie8888888528yxCMvvvv",
"vvvCHby822223;###-38y828yyyyyyyyyyy838y82222222322222228ykvvvvvv",
"vvvMCxy82<;;-&###-;485258888888888842485222<;;;-;;;;;<28ykvvvvvv",
"vvvvvky82;#####%###;22222232222242222222222;#########-38ykvvvvvv",
"vvvvvky827eeeeqeeeqazzzzzzzzzzzzzzzzzzzxzzzaeeeqeeeeq728ykvvvvvv",
"vvvvvky82yvbvvvvvvvAHHHHHHHHHHHHHHHHHHHHHHHCvvvvvvvvvu28ykvvvvvv",
"vvvvvky85qgkkkkkgjkvCCvMCCCNbbbbbMCCCCCCCCCvkhkkkkkgkr28ykvvvvvv",
"vvvvvky828yyyyyyyyykvkykvvvkyyyyykvvvvvvvvvkyyyyyyyyy828ykvvvvvv",
"vvvvvky825888888888yksyskkksyyyyyskkkkkkkkkr445586558528ykvvvvvv",
"vvvvvky8222222222228yyyyyyyyyyyyyyyyyyyyyyy4###;3;%;2228ykvvvvvv",
"vvvxksy82wzzzzzzzzznAAAAAAAAAAAAAAAAAAAAAAAbfffjzhhlzt28yskxvvvv",
"vvvkyyy82zHHHHHHHHHYEEEEEEEEEEEEWEEEEEEEWEEYKHHHHHKKHz38yyykvvvv",
"puuw88852gCCCCCCCCCHYYYYYYYYYYYYYYYYYYYYYYYHCCCCCCCCCg25888riiii",
"222222222pvvvvvvvvvCKHHHHHHHHHHHHHHHHHHHHHHCvvvvvvvvvi2222222222",
"8rpup8222ivvvvvvvvvCHHHHHHHHHHHHHSCCCSHHHSCMvvvvvvvvvi2244888wii",
"ykvvvp232ivvvvvvvvvCHHHHHHHHHHHHHCvvvCHHHCvvvvvvvvvvvu2428yyykvv",
"yskkksu82rkkkkkspskxbbbNCCCCCCCCCMvvvMCCCMvxkkkkkkkkkw248qyyyskk",
"yyyyykvp27yyyyy828yyyyykvvvvvvvvvvvvvvvvvvvkyyyyyyyyy828yyyyyyyy",
"yyyyyskw2hAAAAACmVAFLLLUTTTTTTTTTTTTTTTTTTTGAAAAAAAAAh28yyyyyyyy",
"yyyyyyy82mEEEEEEEEEQ!!!!!!!!!!!!!!!!!!!!!!!QEEEEEEEEEm28yyyyyyyy",
"yyyyyyy82cYYYYYYYYYEQQQQQQQQQQQQQQQQQQQQQQQEYYYYYYYYYc28yyyyyyyy",
"yyyyyyy82zHHHHHHHHHYEEEEEEEEEEEEEEEEEEEEEEEYHHHHHHHHHz28yyyyyyyy",
"yyyyyyy82zHHHDCSHHHYEEEEEEEEEEEEEEEEERYREEEICCCCCSHHHz28yyyyyyyy",
"yyyyyyy82zKHHCvCHHHYEEEEEEEEEEEEEEEEEYHYEEEKvvvvvCHHHz28yyyyyyyy",
"yyyq88852zHHHSCSHSCIEEERYYYREEEEEEEEERYREEEPCCCCCSHHHz258qyyyq88",
"yyy822222zHHHHHHHCvKEEEYHHHYEEEEEEEEEEEEEEEYHHHHHHHHHz2228yyy822",
"888522222zHHHHHHHSCIEEERYYYREEEEEEEEEEEEEEEYHHHHHHHHHz2225888522",
"222222222zHHHHHHHHHYEEEEEEEEEEEEEEEEEEEEEEEYHHHHHHHHHz2222222222",
"222222222zHHHHHHHHHYEEEEEEEEEEEEEEEEEEEEEEEYHHHHHHHHHz2222222222"
};
